<svg xmlns="http://www.w3.org/2000/svg" viewBox="0 0 231.53 71.85"><path d="M12.31,0h206.9a12.31,12.31,0,0,1,12.31,12.31V47.44A12.6,12.6,0,0,1,218.93,60H12.6A12.6,12.6,0,0,1,0,47.44V12.31A12.31,12.31,0,0,1,12.31,0Z" style="fill:#fff4d9"/><path d="M50.73,21.8c0,1.8,0,3.6,0,5.42V28c0,1.81,0,3.63,0,5.38l1.55.15v.6H46.15v-.6l1.54-.15c.05-1.78,0-3.55.05-5l.07-5.63L43.64,34.12h-.93l-4.3-11.25c0,1.81.07,4.07.07,5.19v5.2l1.94.26v.6H35.7v-.6l1.93-.24.06-11.39-1.85-.23v-.59h4.83l3.56,9.27,3.46-9.27H52.3v.59Z" style="fill:#a01f24"/><path d="M64.65,32.06a4.1,4.1,0,0,1-3.89,2.36,4.75,4.75,0,0,1-5-5.11,4.86,4.86,0,0,1,5-5,3.78,3.78,0,0,1,4,4,3.8,3.8,0,0,1-.11,1.06H58.73c.09,2.73,1.4,3.85,3,3.85a2.9,2.9,0,0,0,2.55-1.33ZM61.11,28.7c.82,0,1-.4,1-1.48,0-1.52-.66-2.33-1.59-2.33S58.8,26,58.73,28.69Z" style="fill:#a01f24"/><path d="M85.5,33.58v.54H80.56v-.54l1-.11c0-1,0-2.5,0-3.51V27.6c0-1.54-.39-2-1.22-2a2.9,2.9,0,0,0-2,1,6.5,6.5,0,0,1,.07,1V30c0,1,0,2.52,0,3.53l1,.09v.54h-5v-.54l1.12-.11c0-1,0-2.5,0-3.51V27.6c0-1.43-.37-2-1.21-2a3,3,0,0,0-1.92,1V30c0,1,0,2.5,0,3.53l1,.09v.54h-5v-.54l1.17-.11c0-1,0-2.53,0-3.51V28.51c0-1.15,0-1.71-.06-2.57l-1.3-.14v-.4l3.79-1.1.24.17L72.62,26a4,4,0,0,1,3.15-1.75,2.44,2.44,0,0,1,2.57,1.82,4,4,0,0,1,3.23-1.82c2,0,2.85,1.1,2.85,3.48V30c0,1,0,2.52,0,3.51Z" style="fill:#a01f24"/><path d="M89.24,29.3a5,5,0,1,1,9.91,0,5,5,0,1,1-9.91,0Zm6.88,0c0-3.06-.68-4.44-1.93-4.44s-2,1.38-2,4.44.7,4.47,2,4.47S96.12,32.37,96.12,29.33Z" style="fill:#a01f24"/><path d="M107,27c.52-1.78,1.71-2.69,2.76-2.69a1.52,1.52,0,0,1,1.69,1.38c-.07.77-.42,1.42-1.29,1.42-.66,0-1.08-.42-1.56-1l-.15-.21A5,5,0,0,0,107,28.51V30c0,1,0,2.43,0,3.46l1.61.16v.54H103v-.54l1.19-.12c0-1,0-2.52,0-3.5V28.51c0-1.14,0-1.71,0-2.55l-1.31-.14V25.4l3.79-1.1.25.17Z" style="fill:#a01f24"/><path d="M125,25.1l-1.17.16L120,35.31c-1,2.72-2.56,3.54-3.63,3.54s-1.9-.57-1.94-1.36a1.41,1.41,0,0,1,1.5-1.12,2.09,2.09,0,0,1,1.65,1l.28.37a6.38,6.38,0,0,0,1.65-2.64l-4.14-9.85-1-.11v-.52h5.33v.52l-1.28.14,2.38,6.61L123,25.28l-1.59-.18v-.52H125Z" style="fill:#a01f24"/><path d="M142.43,21.8c-.06,1.8-.06,3.6-.06,5.42V28c0,1.81,0,3.63.06,5.38l1.55.15v.6h-6.13v-.6l1.54-.15c.05-1.78,0-3.55.05-5l.07-5.63-4.18,11.34h-.92l-4.3-11.25c0,1.81.07,4.07.07,5.19v5.2l1.94.26v.6H127.4v-.6l1.92-.24.07-11.39-1.85-.23v-.59h4.82l3.57,9.27,3.46-9.27H144v.59Z" style="fill:#a01f24"/><path d="M157.47,33.05a2.15,2.15,0,0,1-2.22,1.37,1.94,1.94,0,0,1-2.06-1.52,3.56,3.56,0,0,1-2.95,1.52A2.32,2.32,0,0,1,147.69,32c0-1.59.91-2.45,3.72-3.27.49-.14,1.1-.29,1.71-.45V27.25c0-1.81-.42-2.36-1.75-2.36a3.75,3.75,0,0,0-.73.07l-.12,1.24c-.06,1.19-.65,1.66-1.31,1.66A1.13,1.13,0,0,1,148,27c.14-1.64,1.66-2.69,4.37-2.69,2.48,0,3.48,1.07,3.48,3.6v4.7c0,.67.21.89.54.89s.45-.14.78-.66Zm-7.81-7.84-.28.1Zm3.46,3.58a7,7,0,0,0-1,.3,2.64,2.64,0,0,0-1.87,2.6c0,1.05.49,1.54,1.31,1.54.47,0,.87-.23,1.52-.81Z" style="fill:#a01f24"/><path d="M171.85,33.58v.54H168L165.56,29l-.79.72v.12c0,1,0,2.64,0,3.65l1.1.11v.54h-5.15v-.54l1.17-.11c0-1,0-2.6,0-3.51V21l-1.27-.13v-.45l3.91-.75.25.15-.08,2.82V29l3.78-3.65-1.77-.21v-.52h4.56v.52l-1.71.18-2.09,1.92,3.18,6.24Z" style="fill:#a01f24"/><path d="M183.75,32.06a4.11,4.11,0,0,1-3.9,2.36,4.74,4.74,0,0,1-5-5.11,4.86,4.86,0,0,1,5-5,3.77,3.77,0,0,1,4,4,3.82,3.82,0,0,1-.1,1.06h-5.94c.08,2.73,1.4,3.85,3,3.85a2.92,2.92,0,0,0,2.55-1.33ZM180.2,28.7c.82,0,1-.4,1-1.48,0-1.52-.66-2.33-1.59-2.33s-1.74,1.09-1.81,3.8Z" style="fill:#a01f24"/><path d="M191.73,27c.53-1.78,1.72-2.69,2.77-2.69a1.52,1.52,0,0,1,1.69,1.38c-.07.77-.42,1.42-1.29,1.42-.67,0-1.09-.42-1.56-1l-.15-.21a5.1,5.1,0,0,0-1.46,2.69V30c0,1,0,2.43,0,3.46l1.61.16v.54H187.7v-.54l1.19-.12c0-1,0-2.52,0-3.5V28.51c0-1.14,0-1.71,0-2.55l-1.31-.14V25.4l3.79-1.1.25.17Z" style="fill:#a01f24"/><path d="M158.88,58.09V48.28a279.91,279.91,0,0,0-86.23,0v9.81a191.69,191.69,0,0,0-20.27,1.07V71.32a177.83,177.83,0,0,1,20.48-1.16,179.73,179.73,0,0,1,20,1.16V63.43c7.19-.44,14.74-.7,22.64-.7,8,0,15.75.25,23.07.7v7.89a179.73,179.73,0,0,1,20-1.16,177.83,177.83,0,0,1,20.48,1.16V59.16A191.69,191.69,0,0,0,158.88,58.09Z" style="fill:#a01f24;stroke:#fff4d9;stroke-miterlimit:10;stroke-width:0.940174244172582px"/><path d="M73.44,64.38l19,6.42V63q-2.91,0-6,.14A130.07,130.07,0,0,0,73.44,64.38Z" style="fill:#751113"/><path d="M158.06,64.39l-19,6.42V63c1.94,0,3.94,0,6,.14A129.86,129.86,0,0,1,158.06,64.39Z" style="fill:#751113"/><path d="M98.46,56.76c.36.57.44.89.27,1.05-.45.45-1.28.08-1.68-.26a5.66,5.66,0,0,1-.85-.92,7,7,0,0,1-2.49,1.7l-.06-.08a7.11,7.11,0,0,0,2.08-2.35,9.92,9.92,0,0,1-1-3.46l-2.12.14.09,1.29.74,0,.52-.57,1,.73a.48.48,0,0,1-.31.17c.07,1.84,0,2.41-.36,2.74a1.61,1.61,0,0,1-1,.34,1.39,1.39,0,0,0-.16-.72.84.84,0,0,0-.52-.29v0A3.9,3.9,0,0,1,91,58.65l-.07-.06a8.52,8.52,0,0,0,.55-4.4L91.32,52l1.4.37,1.93-.13c-.08-.56-.13-1.13-.17-1.71l1.49,0c0,.11-.07.22-.28.26,0,.44,0,.89.1,1.33l.91-.06L97,51.7l-.18-.06a2.36,2.36,0,0,0-.79-1l.06-.06c1.46-.27,1.75.43,1.5.83.25.18.61.42.87.62,0,.09-.1.14-.23.14l-2.37.16a8.67,8.67,0,0,0,.52,2.15,10.7,10.7,0,0,0,.39-1.58l1.54.41c0,.11-.1.18-.31.18a8.88,8.88,0,0,1-1,2.13,3.61,3.61,0,0,0,.73.73c.12.12.19.12.28,0a10.48,10.48,0,0,0,.53-1.1l.08,0ZM92.67,54.1h0a7.7,7.7,0,0,1-.08,2l.59,0a.25.25,0,0,0,.21-.07c.12-.13.14-.7.09-2Z" style="fill:#fff4d9"/><path d="M106.35,54.77a5.56,5.56,0,0,0,3.15,1.53v.1a1.31,1.31,0,0,0-.87,1.08,4.5,4.5,0,0,1-2.46-2.71h-.08l.08,2.72c0,.08-.36.34-1,.35H105l-.06-2.08a7.84,7.84,0,0,1-3.21,1.9l-.06-.08a6.72,6.72,0,0,0,2.51-2.76l-2.4.06-.08-.23,3.21-.09,0-1-1,0v.19c0,.12-.49.39-1,.4h-.17l-.11-4,1.24.44,3.2-.09.51-.57,1.07.77a.55.55,0,0,1-.29.16l.08,2.61a1.72,1.72,0,0,1-1,.36h-.2v-.38l-1.1,0,0,1,1.58,0,.61-.81s.73.51,1.18.86a.25.25,0,0,1-.24.14Zm-2.63-3.89,0,1.12,1,0,0-1.12Zm1.12,2.47,0-1.15-1,0,0,1.15ZM106,50.82l0,1.12,1.1,0,0-1.12Zm1.17,2.47,0-1.15-1.1,0,0,1.15Z" style="fill:#fff4d9"/><path d="M116.12,55.48a.48.48,0,0,1-.32.14c-.1,1.06-.27,1.63-.66,1.88a2.07,2.07,0,0,1-1.06.22.94.94,0,0,0-.16-.68,1.42,1.42,0,0,0-.78-.35v-.1l1.06.07a.41.41,0,0,0,.25,0,2.36,2.36,0,0,0,.29-1.17H114l-.39.46-.87-.58a1.3,1.3,0,0,1,.33-.19,13.83,13.83,0,0,0,.24-1.49l1.07.43h.28V53h-.83a7.48,7.48,0,0,1-1.43.44l0-.09a5.26,5.26,0,0,0,1.69-1.24.76.76,0,0,1-.63-.12A1.31,1.31,0,0,0,113,51l0,0c1-.12,1.41.2,1.43.52a4.32,4.32,0,0,0,.41-.8l-2,0-.07-.24,2,0,.63-.59,1,.87c0,.09-.12.11-.31.14a4.5,4.5,0,0,1-1.89,1.82h.56l.42-.46L116,53a.56.56,0,0,1-.3.13v1.28a2.23,2.23,0,0,1-.87.17h-.2V54.3h-.52c0,.29-.1.63-.16.91h.68l.54-.48Zm2.67-2.42v.64c0,.08,0,.11.09.11h.32a1.62,1.62,0,0,0,.2,0h.07l.05,0c.22.12.28.2.28.36,0,.4-.35.48-1,.48l.82.7c0,.09-.13.12-.31.13a3.34,3.34,0,0,1-.53.72c1.15.73.82,1.77,0,1.51a4.6,4.6,0,0,0-.78-.84,6.42,6.42,0,0,1-2.48.86l0-.1a4.57,4.57,0,0,0,1.88-1.27,7.62,7.62,0,0,0-1.2-.72l.06-.08a7.9,7.9,0,0,1,1.56.22,2.65,2.65,0,0,0,.23-.48l-1.95,0-.07-.23,2,0,.46-.43c-.63,0-.67-.22-.67-.78V53h-.41v.29c0,.48-.2,1.29-1.62,1.65l0-.07a1.93,1.93,0,0,0,.59-1.59v-.95l1.22.44h.16l.29-.31a4.9,4.9,0,0,1-1.46-2.57l.09,0a3,3,0,0,0,.86,1.12,6.46,6.46,0,0,0,.58-1l1,.73c0,.08-.12.12-.32.08a6.25,6.25,0,0,1-1,.4,4.78,4.78,0,0,0,1,.53,5.52,5.52,0,0,0,.49-.91l1.06.73c0,.08-.13.12-.32.08a6.07,6.07,0,0,1-.82.27,9.38,9.38,0,0,0,1.28.37l0,.1a1.32,1.32,0,0,0-1,1l-.57-.3Z" style="fill:#fff4d9"/><path d="M130.94,55c-.05.07-.13.12-.32.08a10.69,10.69,0,0,1-1.81.59,4.47,4.47,0,0,0,2.17,1l0,.12A1.68,1.68,0,0,0,130,58c-1.38-.71-2.09-2-2.39-4a5.11,5.11,0,0,1-1.19,1l-.08,1.68,1.61-.31,0,.09a26.5,26.5,0,0,1-2.46,1.51.58.58,0,0,1-.21.18l-.68-1.21c.44-.22.51-.31.52-.48l0-.86a11.61,11.61,0,0,1-2.07.58l0-.08a7.26,7.26,0,0,0,2.9-2.28l-2.52-.13,0-.23,3.19.16,0-1-2.32-.11,0-.24,2.38.12,0-.92-2.73-.13,0-.24,2.79.14.06-1.06,1.52.2c0,.12-.08.2-.32.22l0,.7,1.34.07.6-.76s.62.56,1,.94c0,.09-.12.12-.24.12l-2.68-.13,0,.91,1.09.06.6-.74s.61.55.95.91c0,.09-.12.13-.24.12l-2.41-.12,0,1,1.64.08.62-.77s.62.57,1,.95c0,.09-.12.13-.24.12l-3.06-.15a3.46,3.46,0,0,0,.83,1.53A9,9,0,0,0,129.69,54Z" style="fill:#fff4d9"/><path d="M139.19,51.44c-.05.11-.15.16-.46.16A6.75,6.75,0,0,0,142.1,53v.13a1.45,1.45,0,0,0-.94,1.08l-.33-.16.21.19a.43.43,0,0,1-.19.08l-.13,1.52a1.76,1.76,0,0,1-.9.19l-.19,0,0-.22-3.51-.31v0a.35.35,0,0,1-.14.15l.88.42,1.93.17.53-.45.9.8a.34.34,0,0,1-.2.09l-.17,2a1.59,1.59,0,0,1-1,.26l-.21,0,0-.45-2.06-.18v.13c0,.11-.55.32-1,.27h-.16l.25-2.9a1.36,1.36,0,0,1-.41,0h-.19l.19-2.2a10.05,10.05,0,0,1-1.05.26l0-.1a7.23,7.23,0,0,0,3.4-2.83Zm.92,2.12a4.14,4.14,0,0,1-1.5-1.88,7.2,7.2,0,0,1-2.73,1.64l.52.25,3.35.29Zm-4,1.64,1.25.11.12-1.41-1.25-.11Zm.3-1.32c1.61.67.55,1.76,0,1.07a2.09,2.09,0,0,0-.09-1Zm2.24,4.31.07-.76-2.06-.18-.07.76Zm-1.9-1.94-.07.77,2.06.18.06-.77Zm1.93-3.74s.47.45.75.76c0,.09-.11.13-.23.12l-2.27-.2-.05-.24,1.29.11Zm1.06,1.59L138.5,54l-.12,1.41h.14a13.61,13.61,0,0,0,.37-1.31l.86.36Zm-.12,1.41.07-.83h-.06a6.89,6.89,0,0,1-.92.76Z" style="fill:#fff4d9"/></svg>