<svg xmlns="http://www.w3.org/2000/svg" viewBox="0 0 127.7 71.85"><path d="M16.22,0h95.26a11.47,11.47,0,0,1,11.47,11.47V60a0,0,0,0,1,0,0H4.76a0,0,0,0,1,0,0V11.47A11.47,11.47,0,0,1,16.22,0Z" style="fill:#fff4d9"/><path d="M29.26,26.64c0,2.81-.22,6.64-3.87,9l-.14-.13c1.52-2.62,1.6-6,1.6-8.89v-5l2.78.95h2.85V19.16l3.13.23c0,.25-.14.42-.63.51v1h2.2l1.2-1.52s1.37,1,2.2,1.73c0,.19-.24.28-.5.28H35v1.21h3.75l1.17-1.17,2,1.92a.93.93,0,0,1-.68.21,15.71,15.71,0,0,1-2.76,1.57L38.35,25a17.69,17.69,0,0,0,.49-1.94H29.26Zm10.45,6.54s1.36,1,2.2,1.69c0,.19-.24.28-.49.28H27.5l-.14-.49H32V32.77H31.5l-.61,1-2-1.21a3.29,3.29,0,0,1,.54-.5V29l2.53.26v-1l2.73.22c0,.23-.16.39-.58.46v5.78h.81V28.2l2.76.22c0,.23-.14.39-.56.46v3.37h.63V29l2.65.23c0,.24-.17.42-.64.49V33c0,.14-.88.42-1.66.42h-.35v-.7h-.63v1.92h1.4Zm-5.13-5.42c-2,0-2.42-.35-2.42-1.7v-.57l-2.56.21-.18-.49L32.16,25V23.2l2.87.21c0,.24-.19.38-.54.44v.92l1.06-.09.86-1.22s1.12.7,1.82,1.22a.45.45,0,0,1-.44.34l-3.3.28v.5c0,.21.07.28.57.28h1.73c.51,0,1.12,0,1.38,0s.51,0,.65-.05a3.51,3.51,0,0,0,.61-.13h.16l.1,0c.65.24.86.45.86.8,0,.93-.86,1.05-4,1.05ZM32,32.28V29.4a.71.71,0,0,1-.57.3v2.58Z" style="fill:#a01f24"/><path d="M45.51,26.26h4.67a1.76,1.76,0,0,1-.67-.46,2.14,2.14,0,0,0,0-1.34h-.75v.43c0,.2-.94.65-1.84.65H46.6V19.43l2.22.87h3.4l1-1.05,2,1.52a1.17,1.17,0,0,1-.72.37v3.54a3.4,3.4,0,0,1-1.73.48H52.4v-.7h-2c2,.42,1.75,1.47.88,1.8H53l1-1.33s1.19.91,1.9,1.54c0,.19-.22.28-.47.28H45.65Zm6.12,4.19v2.92c0,1.4-.3,2.25-2.38,2.41a3.4,3.4,0,0,0-.21-1.4,1.18,1.18,0,0,0-.94-.61v-.21s.87,0,1.12,0,.26-.1.26-.28v-1.2a1,1,0,0,1-.44.07,8.37,8.37,0,0,1-3.32,3l-.14-.2A9.92,9.92,0,0,0,47,31.34a.86.86,0,0,1-.22,0h-.28V26.9l2.18.84h3.43l.9-1L55,28.2a1.32,1.32,0,0,1-.6.31v2.08a3.55,3.55,0,0,1-1.71.47h-.37v-.61Zm-2.15,0h-.87v.3c0,.1-.3.28-.7.42l1.57.66Zm-.87-2.22V30h3.68V28.23Zm.12-7.44v1.33H52.4V20.79Zm0,3.18H52.4V22.61H48.73Zm3.11,7.34c4.68.73,2.69,4.24.85,2.79a5.82,5.82,0,0,0-1-2.71Zm10.5-1.16c-.12.21-.32.28-.75.21a16,16,0,0,1-8.37,5.52l-.09-.21a15.56,15.56,0,0,0,6.22-7.11Zm-7.65-.64a20,20,0,0,0,4.43-5.77L62,25.54c-.12.18-.3.25-.72.16a21.4,21.4,0,0,1-6.48,4Zm.1-4.72a19.34,19.34,0,0,0,4.3-5.45l2.76,1.75c-.12.19-.3.24-.7.15A21.83,21.83,0,0,1,54.91,25Z" style="fill:#a01f24"/><path d="M81.89,33.23c.56,1.29.68,2.06.28,2.32-1.07.75-2.59-.26-3.18-1.1a14.54,14.54,0,0,1-1-1.68,13.36,13.36,0,0,1-3.53,2.64l-.16-.17a14.14,14.14,0,0,0,3.06-3.85,21.66,21.66,0,0,1-1.27-6.06l-1,.14L74.87,25,76,24.84c0-.56-.07-1.12-.1-1.69l-.26,0a9.66,9.66,0,0,1-1.93,1.15l-.15-.1-.18.05-2.11.28v.28c0,.19,0,.25.33.25h.8a7.09,7.09,0,0,0,.72,0,2.18,2.18,0,0,0,.38,0l.41-.07h.15l.09,0c.44.17.6.31.6.63s-.21.63-.74.77c.33.26,1,.75,1.4,1.13,0,.19-.23.28-.47.28H73.75L75.41,29a1,1,0,0,1-.63.29v1.78a2.37,2.37,0,0,1-1.52.37H73v-.54h-2.5v.38c0,.06-.14.16-.37.25,1.49.52,1.47,1.41.94,1.8l1.07-.11a17.57,17.57,0,0,0,.1-1.88l2.4.49c0,.21-.25.36-.63.38a10.46,10.46,0,0,1-1,.93l2.59-.28,0,.24c-1.35.56-3.32,1.29-6.22,2.24a.83.83,0,0,1-.49.42l-1-2.17c.49,0,1.21-.09,2.08-.16a1.24,1.24,0,0,1-.38-.28,2.83,2.83,0,0,0-.16-1.46h-.77V28l1.94.75h2.27l.82-.93H68.58l-.14-.49h4.45l.67-.84a8.78,8.78,0,0,1-1.37.07h-1.1c-1.32,0-1.52-.33-1.52-1.36v-.4l-1,.14-.12-.28v1.28c0,2.79-.09,7-2.72,9.73l-.18-.11c.86-2.95.8-6.64.8-9.62V21.45l2.43.86h.82V19.16l2.92.23c0,.23-.14.39-.56.46V21h.65l1.06-1.34s1.19.9,1.93,1.55a.46.46,0,0,1-.49.28h-.35l1.15,1.1c0-1.1,0-2.24,0-3.39l3,.3c0,.23-.17.43-.63.5,0,1.52,0,3.06.06,4.55l.68-.09.94-1.57a2.31,2.31,0,0,1-.28-.19,4.09,4.09,0,0,0-1-2.52l.14-.11c4.25.44,3,3.48,1.35,2.91.42.24,1.43.78,2.11,1.22a.44.44,0,0,1-.43.36L78.27,25a22,22,0,0,0,.49,3.24,26,26,0,0,0,.81-2.92l2.79.92c-.07.2-.22.34-.68.32a18.77,18.77,0,0,1-2.08,4.12,7.46,7.46,0,0,0,1,1.5c.19.28.32.28.49,0A21.51,21.51,0,0,0,82.17,30l.18,0Zm-12.32-8.9V22.8H68.42v1.68Zm2.76-1.25s.74.42,1.28.77c0-.34.07-.72.1-1.05H70.36l1.4.12c0,.23-.19.37-.49.42v.77l.45-.07ZM73,30.45V29.23h-2.5v1.22Zm-1-8.14h1.61l.82-.84H71.93Z" style="fill:#a01f24"/><path d="M85.86,23.41c5.15.19,3.34,4.14,1.24,2.76a6.76,6.76,0,0,0-1.36-2.67Zm5.89-1.84c-.72,2.31-1.91,6.56-2.15,7.62A7.48,7.48,0,0,0,89.32,31c0,1,.85,1.57.8,3.2a1.59,1.59,0,0,1-1.69,1.59,1.13,1.13,0,0,1-1.16-.93c.37-1.85.3-3.63-.14-3.93a2,2,0,0,0-1-.3v-.31H87c.27,0,.36,0,.57-.37.42-.72.42-.72,3.92-8.46Zm-4.37-2.16c5.4.33,3.41,4.42,1.22,2.93a8.12,8.12,0,0,0-1.34-2.84Zm12.89,6s1.51,1.17,2.4,2c-.06.19-.25.28-.51.28H95.43l2.66,1.17a.56.56,0,0,1-.59.28,19.9,19.9,0,0,1-4.65,3.63c1.59,0,3.79-.12,6.15-.22a15.51,15.51,0,0,0-1.49-2.64l.16-.09c6.87,2,4.73,7.36,2.13,5.31a9.2,9.2,0,0,0-.58-2c-1.59.58-3.89,1.31-6.76,2.1a1.21,1.21,0,0,1-.49.4l-1.15-2.83a3.28,3.28,0,0,0,.7-.28c1-.67,2.52-3.18,3.06-4.79h-4l-.14-.49h4.42V23.36h-3l-.14-.49h3.18V19.22l3.18.26c0,.24-.16.42-.65.49v2.9h.86l1.26-1.66s1.41,1.12,2.25,1.87c0,.19-.24.28-.51.28H97.44v3.77H99Z" style="fill:#a01f24"/><path d="M107,58.09V48.28a280,280,0,0,0-86.24,0v9.81A191.49,191.49,0,0,0,.47,59.16V71.32A177.7,177.7,0,0,1,21,70.16,179.73,179.73,0,0,1,41,71.32V63.43c7.18-.44,14.74-.7,22.64-.7,8,0,15.75.25,23.06.7v7.89a179.88,179.88,0,0,1,20-1.16,177.56,177.56,0,0,1,20.48,1.16V59.16A191.34,191.34,0,0,0,107,58.09Z" style="fill:#a01f24;stroke:#fff4d9;stroke-miterlimit:10;stroke-width:0.940174244172582px"/><path d="M21.53,64.38l19,6.42V63q-2.91,0-6,.14A129.86,129.86,0,0,0,21.53,64.38Z" style="fill:#751113"/><path d="M106.15,64.39l-19,6.42V63c1.94,0,3.94,0,6,.14A130.07,130.07,0,0,1,106.15,64.39Z" style="fill:#751113"/><path d="M48.85,54.74c0,.62.06,1.36.1,2.1l.89.06,0,.28-3.07.13V57l.74-.11c0-.83-.05-1.68-.09-2.54l0-.37c0-.86-.07-1.71-.14-2.56l-.74,0,0-.28L49,51c1.87-.08,2.66.56,2.71,1.72s-.62,1.9-2.59,2Zm-.14-3.39c0,.86.06,1.72.1,2.6l0,.49h.27a1.39,1.39,0,0,0,1.36-1.64c-.05-1-.55-1.49-1.43-1.45Z" style="fill:#fff4d9"/><path d="M60.85,56.64v.28a3.68,3.68,0,0,1-1,.14c-.77,0-1.19-.21-1.28-.88L58.33,55c-.12-.68-.33-1-1-1H57c0,.87,0,1.72.06,2.56l.76.07V57l-2.92,0v-.28l.74-.09c0-.83,0-1.69,0-2.55v-.36c0-.87,0-1.72-.06-2.57l-.75-.06v-.28l3,0c1.46,0,2.26.54,2.28,1.53,0,.68-.45,1.32-1.75,1.54a1.47,1.47,0,0,1,1.53,1.4l.29,1.37Zm-3.41-2.91a1.21,1.21,0,0,0,1.27-1.39,1.14,1.14,0,0,0-1.29-1.25H57c0,.83,0,1.69,0,2.64Z" style="fill:#fff4d9"/><path d="M71,52.12a7.33,7.33,0,0,1-1.17,3.34,5,5,0,0,0,1.7,1.29l0,.08a1.24,1.24,0,0,0-1,1,4.24,4.24,0,0,1-1.25-1.59,6.67,6.67,0,0,1-3,1.54l0-.08a6,6,0,0,0,2.65-2.43,10.85,10.85,0,0,1-.36-1.93,5.44,5.44,0,0,1-1,1.1l-.1-.06c.08-.16.16-.34.24-.53a.75.75,0,0,1-.24,0c-.28.15-.61.31-.94.45l.3,0c0,.13-.1.18-.27.21v.27c.5-.05,1-.1,1.54-.17v.11c-.41.18-.92.37-1.56.6l0,1.16c0,.75-.19,1.15-1.41,1.23a1.42,1.42,0,0,0-.18-.78,1,1,0,0,0-.71-.37v-.11s.86.07,1,.07.15,0,.16-.12v-.69l-1,.32a.34.34,0,0,1-.24.2l-.44-1.19,1.71-.14v-.74l.54.05c.12-.18.24-.38.34-.56h-.72a8.85,8.85,0,0,1-2,1.17l-.07-.08a9,9,0,0,0,1.29-1.11H64L64,53.4l1,0c.25-.27.48-.56.7-.84l-2-.05-.06-.23,1.23,0,0-1.09-.86,0L63.94,51l.93,0,0-1.15,1.43.14c0,.13-.08.2-.31.24L66,51l.38-.51s.19.16.4.36c.15-.29.27-.57.38-.83l1.23.64c0,.09-.13.14-.34.1a10.3,10.3,0,0,1-1.18,1.64h.25l.43-.56s.31.27.57.52A15.6,15.6,0,0,0,68.54,50l1.56.42c0,.11-.13.18-.33.18a11.94,11.94,0,0,1-.44,1.28l.68,0,.6-.76s.64.54,1,.9c0,.09-.12.13-.24.12Zm-3.39,1.59A9.56,9.56,0,0,0,68,52.64l-1.36,0a11.46,11.46,0,0,1-.87.83h.47l.53-.52ZM66,51.28l0,.91q.32-.45.57-.9Zm3.24.8a6.24,6.24,0,0,1-.52,1,6.3,6.3,0,0,0,.53,1.46,8.48,8.48,0,0,0,.52-2.4Z" style="fill:#fff4d9"/><path d="M75.73,53.64a.87.87,0,0,1-.54,1c-.73.24-1.14-.75-.31-1.11a.82.82,0,0,0,.47-.82h.09a3.09,3.09,0,0,1,.25.65h0l.11-2.79.82.19a7.48,7.48,0,0,0,.63-.51l.68.57a2.19,2.19,0,0,1,.56.07,2.8,2.8,0,0,0,.31-.49l.84.49c-.05.07-.13.08-.28,0a2.38,2.38,0,0,1-.28.26c.37.34.12.78-.31.63a1.78,1.78,0,0,0-.23-.28,4.93,4.93,0,0,1-.82.35c0,.08-.09.11-.2.1L76.79,52l0,.65h0l.35-.42a7.89,7.89,0,0,1,.57.58c0,.09-.11.12-.22.12l-.73,0,0,.61,3.23.19,0-.6-.53,0-.06-.24.62,0,.07-.64-.54,0-.06-.23.62,0,.06-.66-.66,0L79.48,51l.66,0,.45-.47,1,.8a.44.44,0,0,1-.3.12l-.2,2,.36-.31.93,1a.44.44,0,0,1-.32.08c-.38.15-1,.39-1.4.51l-.05-.06c.07-.2.16-.51.25-.76ZM81,55.31s.62.58,1,.95c0,.09-.13.13-.25.12l-2.85-.17,0,.73c0,.78-.25,1.19-1.54,1.23a1.61,1.61,0,0,0-.16-.84,1.18,1.18,0,0,0-.76-.43v-.1l1.13.12c.11,0,.15,0,.16-.11l0-.67L74.6,56l0-.23,3.14.19,0-.69.82.12.5-.52-2.77-.17-.06-.24,2.94.18.65-.55,1,1c-.07.07-.15.09-.33.08-.36.11-.82.24-1.29.34,0,.12-.11.17-.28.18l0,.37,1.47.09Zm-3.78-4s.26.23.46.44a5.76,5.76,0,0,0,.59-.53L77.91,51l-.11,0a6.52,6.52,0,0,1-1,.13l0,.64h0Zm2.49,1c0,.08-.13.09-.27,0a2.36,2.36,0,0,1-.32.31c.37.39.08.87-.37.67a2.17,2.17,0,0,0-.21-.32,4.45,4.45,0,0,1-1.06.37l-.06-.12a3.57,3.57,0,0,0,.81-.59,3.28,3.28,0,0,0-.46-.4l.08-.07a2.45,2.45,0,0,1,.69.12,2.06,2.06,0,0,0,.33-.48Z" style="fill:#fff4d9"/></svg>