<svg xmlns="http://www.w3.org/2000/svg" viewBox="0 0 127.7 71.85"><path d="M16.22,0h95.26a11.47,11.47,0,0,1,11.47,11.47V60a0,0,0,0,1,0,0H4.76a0,0,0,0,1,0,0V11.47A11.47,11.47,0,0,1,16.22,0Z" style="fill:#fff4d9"/><path d="M34.68,23.78l1.71,1.27a1,1,0,0,1-.57.3v2.51a2.77,2.77,0,0,1-1.49.46H34v-.53h-1.1v.28c0,.16-.79.55-1.52.55h-.25V26.57c-.42.32-.91.67-1.45,1.05V33c0,1.66-.31,2.58-2.72,2.81a4.31,4.31,0,0,0-.34-1.82,1.58,1.58,0,0,0-1.24-.8V32.9s1.35.08,1.68.08.31-.08.31-.26V29.16l-.87.56a.87.87,0,0,1-.49.52l-.82-2.74c.45-.09,1.22-.26,2.18-.51V23.86h-1.9l-.14-.49h2V19.18l3,.28c0,.26-.21.44-.65.49v3.42h.11l.89-1.52s1,1.07,1.55,1.73c0,.2-.21.28-.45.28H29.7V26.4L31.15,26V23.9l1.84.73h.87Zm5.1,4.71s1.29,1,2.1,1.63c-.05.19-.25.28-.49.28H37.32v4.84a3.06,3.06,0,0,1-1.87.54h-.4V32a1.24,1.24,0,0,1-.44,0,9.82,9.82,0,0,1-4.14,3.29l-.18-.17a13.4,13.4,0,0,0,2.38-4.58l2.38,1.05V30.4h-3.9L31,29.91h4V28.27l1.34.12V23.88l1.91.75h.82l.87-.92,1.85,1.36a1.09,1.09,0,0,1-.64.33v2.32a3.07,3.07,0,0,1-1.58.44h-.33v-.37h-1v.06a2.3,2.3,0,0,1-1.59.54h-.17l1.41.12c0,.21-.15.38-.57.44v1h1.33Zm-5-5.2a2.88,2.88,0,0,1-1.93.64h-.3V19.5l2.32.89h2.38l1-1.09,2.1,1.58a1.21,1.21,0,0,1-.67.35v2a3.52,3.52,0,0,1-1.86.56h-.41v-.49Zm-.76,4V25.12h-1.1v2.19Zm.76-6.43V22.8h2.64V20.88ZM37.6,31c5.75,1,4.07,5.22,1.87,3.77a12.62,12.62,0,0,0-2-3.68Zm.64-5.89v2.19h1V25.12Z" style="fill:#a01f24"/><path d="M62.34,28.58a1,1,0,0,1-.63.35v3.93c0,1.59-.35,2.48-2.88,2.71a3.74,3.74,0,0,0-.35-1.75A1.68,1.68,0,0,0,57.17,33v-.23s1.45.09,1.78.09.31-.13.31-.34v-.83a.8.8,0,0,1-1.43.21,6.57,6.57,0,0,0,0-1c-.72.48-1.7,1.07-3,1.79a.78.78,0,0,1-.54.4l-1.14-2.71c.4,0,1,0,1.77,0V28.58H53v6.15c0,.18-.73.82-2,.82h-.45v-7h-.51l-.15-.49h.66V26.92l2.67,1.17h1.66V26.33h-1.1v.28c0,.15-.71.54-1.92.54h-.44V20.3a.67.67,0,0,1-.66.24,21.61,21.61,0,0,1-1.42,3.24l1,.36c-.06.16-.21.28-.55.34v10.6a3,3,0,0,1-1.94.66H47.4V26.61a13.26,13.26,0,0,1-1.94,1.81l-.19-.12a29.76,29.76,0,0,0,2.95-9.14l3.23,1v-.63l2.55.94h4.44l1.14-1.29,2.11,1.61a1,1,0,0,1-.68.35v5.11a3,3,0,0,1-2,.51h-.46v-.45H57.18v1.76h1.91l1-1.15ZM53.81,21v2.11h1.1V21Zm1.1,4.86V23.58h-1.1v2.26ZM57.18,21v2.11h1.33V21Zm1.33,4.86V23.58H57.18v2.26ZM57.5,29a3.36,3.36,0,0,1,1.76,1.82V28.58H57.2v1.78h.46c-.11-.48-.25-.91-.37-1.28Z" style="fill:#a01f24"/><path d="M80.23,19.53s1.31,1.08,2.06,1.8c-.05.19-.22.28-.49.28H68.93v4.32c0,3.07-.11,7.16-3.27,9.85l-.19-.11c1.24-2.88,1.26-6.53,1.26-9.73V20.25l2.53.87h4.65l-.14-.07a3.65,3.65,0,0,0-1-1.8l.12-.09c3.29-.42,3.27,1.42,2.26,2h3.93Zm.87,14.15c.55.19.69.39.69.7,0,.72-.63.94-3.57.94H76.44c-1.71,0-2-.33-2-1.48V31.31h-.35c-.63,2.55-2.85,3.7-6.5,4.22l-.07-.24c2.72-.84,4-2,4.4-4H71.6v.4c0,.19-.94.64-1.82.64h-.29V27.06l-.18.11-.23-.25a6.39,6.39,0,0,0,.39-3.09l1.61.14v-.42H69.14L69,23.06h2.08V21.84l2,.19c0,.17-.12.3-.44.35v.68h.11l.73-1s.84.7,1.35,1.21c-.05.19-.21.28-.46.28H72.68v3a2,2,0,0,1-1.29.42h-.31V24.27a.8.8,0,0,1-.35.14,3.21,3.21,0,0,1-.89,2.41l1.88.71h1.35c0-.42.07-1,.09-1.34a1.3,1.3,0,0,1-.14-.77V23.88l1.74.18c0,.21-.19.35-.45.4v.77a.38.38,0,0,0,0,.17l.13,0h.22c.32.14.46.21.46.44s-.27.51-.67.56l.63.12a10.51,10.51,0,0,0,.19-2.69l1.68.12v-.38H75l-.14-.49H77V21.82l2.2.21c0,.16-.1.28-.42.35v.68l.88-1.19s1,.82,1.57,1.4c0,.19-.21.28-.45.28h-2v2.92c0,.05-.12.14-.31.21L80.23,28a1.11,1.11,0,0,1-.7.37v2.76a2.62,2.62,0,0,1-1.22.49l.58.28.17-.09c2.5.51,1.36,2.29.4,1.52a2,2,0,0,0-.1-.47c-.67.21-1.61.49-2.52.68a.85.85,0,0,1-.21.14l-.35-.8v.66c0,.23,0,.28.58.28h1.57c.54,0,1.07,0,1.33,0a.67.67,0,0,0,.45-.12,4,4,0,0,0,.65-1H81ZM71.6,28v1.19h1.92V28Zm1.92,2.8V29.7H71.6v1.12Zm2.55-4.13c-.07.3-.29.42-.7.46l-.92.38H77.1l.6-.64c-.12,0-.26,0-.39,0H77V24.23a.66.66,0,0,1-.35.14,3.52,3.52,0,0,1-.92,2.25ZM75.57,28v1.19h1.71V28Zm0,2.8h1.71V29.7H75.57Zm.71.49v1.27l.14,0a2.87,2.87,0,0,0,.86-1.21h-1Zm1.94.87a4.27,4.27,0,0,1-.59.38c.47,0,1-.05,1.57-.1a2.55,2.55,0,0,0-.3-.49C78.82,32.13,78.61,32.25,78.22,32.18Zm2.66-8.25a.51.51,0,0,1-.47.4v1.05c0,.16,0,.21.08.21h.13a1.19,1.19,0,0,0,.26-.05H81l.06,0c.34.14.46.21.46.45,0,.51-.46.65-1.28.65H80c-.8,0-.89-.3-.89-1V23.76Z" style="fill:#a01f24"/><path d="M90.38,26.59c-.07.16-.22.28-.55.33v8.25a3.18,3.18,0,0,1-1.93.61h-.43V28.35a13.65,13.65,0,0,1-1.79,1.37l-.15-.16a23,23,0,0,0,2.9-6.5l2.77,1.57c-.1.18-.26.3-.69.23-.32.44-.67.91-1.05,1.38Zm.77-5.84c-.08.18-.26.28-.68.23a14.36,14.36,0,0,1-4.61,3.27l-.14-.16a16.21,16.21,0,0,0,2.69-4.87Zm3.71,3.1v11c0,.22-1,.75-1.75.75h-.42V26.12a.76.76,0,0,1-.44.15v1.54c0,1.75-.35,4.3-2.08,5.79L90,33.42a16.25,16.25,0,0,0,.72-5.64V25.61l2,.19V23.85h-2.1l-.14-.49h2.24V19.3l2.81.28c0,.25-.17.44-.64.49v3.29H95l1-1.31s1.1.89,1.76,1.52c0,.19-.22.28-.47.28ZM95.4,20c3.14.65,1.57,2.92.37,1.86a3.66,3.66,0,0,0-.55-1.77Zm2.37,11.19c.37.17.51.31.51.63,0,.59-.54.87-1.54.87h-.33c-1,0-1.08-.39-1.08-1.31V25.65l2.13.2c0,.23-.17.39-.51.44V31c0,.15,0,.24.07.24a.65.65,0,0,0,.2,0,1.81,1.81,0,0,0,.31-.05h.16Zm2.9-7.71s1.24,1,2,1.73c-.05.19-.23.28-.49.28h-1.33v7.72c0,1.45-.29,2.41-2.5,2.59a3.87,3.87,0,0,0-.21-1.52,1.16,1.16,0,0,0-1-.66v-.23s.94.05,1.21.05.28-.1.28-.28V25.47H97.06L96.92,25h2.65Zm-3.16-1.85-.14-.49h2l1.07-1.45s1.21,1,1.9,1.66c0,.19-.24.28-.48.28Z" style="fill:#a01f24"/><path d="M107,58.09V48.28a280,280,0,0,0-86.24,0v9.81A191.49,191.49,0,0,0,.47,59.16V71.32A177.7,177.7,0,0,1,21,70.16,179.73,179.73,0,0,1,41,71.32V63.43c7.18-.44,14.74-.7,22.64-.7,8,0,15.75.25,23.06.7v7.89a179.88,179.88,0,0,1,20-1.16,177.56,177.56,0,0,1,20.48,1.16V59.16A191.34,191.34,0,0,0,107,58.09Z" style="fill:#a01f24;stroke:#fff4d9;stroke-miterlimit:10;stroke-width:0.940174244172582px"/><path d="M21.53,64.38l19,6.42V63q-2.91,0-6,.14A129.86,129.86,0,0,0,21.53,64.38Z" style="fill:#751113"/><path d="M106.15,64.39l-19,6.42V63c1.94,0,3.94,0,6,.14A130.07,130.07,0,0,1,106.15,64.39Z" style="fill:#751113"/><path d="M52.7,56.78v.28l-2.82.12V56.9l.73-.12L50,55.21l-1.91.08-.38,1.59.78.07v.29l-1.89.08,0-.29.69-.12L48.94,51l.86,0L52,56.73Zm-2.77-1.86-1-2.79L48.2,55Z" style="fill:#fff4d9"/><path d="M60.48,56.92,55.56,57v-.28l.75-.09c0-.84,0-1.69,0-2.55V53.7c0-.86,0-1.71-.06-2.56l-.74-.06V50.8l4.74-.06,0,1.65h-.48l-.4-1.32-1.68,0c0,.83,0,1.68,0,2.56h1.13l.11-.92h.42l0,2.1H59l-.13-.87H57.7v0c0,.92,0,1.79,0,2.66l1.86,0,.36-1.4h.47Z" style="fill:#fff4d9"/><path d="M71,52.12a7.33,7.33,0,0,1-1.17,3.34,5.12,5.12,0,0,0,1.7,1.28l0,.09a1.22,1.22,0,0,0-1,1,4.24,4.24,0,0,1-1.25-1.59,6.67,6.67,0,0,1-3,1.54l0-.08a6,6,0,0,0,2.65-2.43,10.85,10.85,0,0,1-.36-1.93,5.72,5.72,0,0,1-1,1.1l-.1-.06c.08-.16.16-.35.24-.53l-.24,0c-.28.15-.61.31-.94.45l.3,0c0,.13-.1.18-.27.2v.28c.5-.05,1-.1,1.54-.17v.11c-.41.17-.92.37-1.56.6l0,1.16c0,.75-.19,1.14-1.41,1.23a1.42,1.42,0,0,0-.18-.78,1,1,0,0,0-.7-.37v-.11s.86.07,1,.07.15,0,.16-.12v-.69l-1,.32a.34.34,0,0,1-.24.2l-.44-1.19c.35,0,1-.07,1.71-.15l0-.73.53.05c.12-.18.24-.38.34-.56h-.72a8.85,8.85,0,0,1-2,1.17l-.07-.08a9,9,0,0,0,1.29-1.11H64l-.07-.24,1,0c.25-.26.48-.55.7-.83l-2-.05-.06-.23,1.23,0,0-1.08-.86,0L63.87,51l.93,0,0-1.15,1.42.14c0,.13-.08.2-.31.24l0,.73.38-.51s.19.16.4.36c.15-.29.27-.57.38-.83l1.24.64c-.06.09-.14.14-.35.1a10.78,10.78,0,0,1-1.18,1.64H67l.43-.56s.31.26.57.52A15.6,15.6,0,0,0,68.47,50l1.56.42c0,.1-.13.18-.33.18a11.94,11.94,0,0,1-.44,1.28l.69,0,.59-.76s.65.54,1,.89c0,.09-.12.13-.24.13Zm-3.39,1.59A9.56,9.56,0,0,0,68,52.64l-1.36,0a9.85,9.85,0,0,1-.87.83h.47l.53-.52Zm-1.67-2.44,0,.92q.31-.45.57-.9Zm3.24.81a6.24,6.24,0,0,1-.52,1,6.3,6.3,0,0,0,.53,1.46,8.48,8.48,0,0,0,.52-2.4Z" style="fill:#fff4d9"/><path d="M75.66,53.63a.87.87,0,0,1-.53,1c-.74.24-1.14-.76-.32-1.11a.84.84,0,0,0,.48-.82h.09a3.32,3.32,0,0,1,.24.66h0l.1-2.79.83.19a7,7,0,0,0,.63-.52l.67.57a2.68,2.68,0,0,1,.56.08,3.69,3.69,0,0,0,.32-.49l.83.49c0,.07-.13.08-.28,0a1.76,1.76,0,0,1-.28.25c.37.35.12.79-.3.64a2.64,2.64,0,0,0-.23-.29,5.85,5.85,0,0,1-.82.36c0,.07-.1.1-.21.1L76.73,52l0,.65h0l.36-.42s.35.33.56.57a.18.18,0,0,1-.21.12l-.74,0,0,.6,3.23.2.06-.6-.54,0-.06-.23.63,0,.06-.65-.54,0-.06-.24.62,0,.07-.65-.66,0L79.42,51l.66,0,.44-.47,1,.81a.42.42,0,0,1-.31.11l-.19,2,.35-.31.93,1a.44.44,0,0,1-.32.08c-.37.15-1,.38-1.39.5l-.06,0c.07-.2.17-.51.25-.77Zm5.23,1.68s.62.57,1,.95c0,.09-.12.13-.25.12l-2.84-.17,0,.72c0,.79-.24,1.2-1.53,1.24a1.6,1.6,0,0,0-.17-.84,1.16,1.16,0,0,0-.75-.43v-.11s1,.12,1.13.13.15,0,.16-.12l0-.67L74.54,56l-.06-.24,3.14.19,0-.68.81.11.51-.51-2.77-.17-.06-.24,2.93.18.66-.55,1,1a.45.45,0,0,1-.34.09c-.35.1-.82.23-1.28.34,0,.11-.12.17-.29.18l0,.36,1.47.09Zm-3.78-4s.26.23.47.44a4.18,4.18,0,0,0,.58-.54c-.11-.09-.21-.18-.31-.25a.3.3,0,0,1-.12,0c-.22,0-.59.1-1,.13l0,.64h0Zm2.5,1c0,.08-.14.09-.28,0a2.34,2.34,0,0,1-.32.3c.38.4.08.88-.37.68a2.36,2.36,0,0,0-.2-.32,4.61,4.61,0,0,1-1.06.37l-.06-.12a4.13,4.13,0,0,0,.8-.59,3.34,3.34,0,0,0-.45-.41l.08-.07a3,3,0,0,1,.69.13,2.73,2.73,0,0,0,.32-.49Z" style="fill:#fff4d9"/></svg>