<svg xmlns="http://www.w3.org/2000/svg" viewBox="0 0 127.7 71.85"><path d="M16.22,0h95.26a11.47,11.47,0,0,1,11.47,11.47V60a0,0,0,0,1,0,0H4.76a0,0,0,0,1,0,0V11.47A11.47,11.47,0,0,1,16.22,0Z" style="fill:#fff4d9"/><path d="M39.41,22.94a1.25,1.25,0,0,1-.12.08l1.82,1.37a1.25,1.25,0,0,1-.7.38V29a4.1,4.1,0,0,1-1.9.51h-.39V29h-.68A9.16,9.16,0,0,1,37,30.9h1.4l1.21-1.55s1.36,1,2.16,1.76c-.05.2-.24.28-.49.28H36.81c-1,2.22-3,3.67-6.66,4.39l0-.19a7.07,7.07,0,0,0,4.3-4.2H30.75l-.14-.49h3.93a9.52,9.52,0,0,0,.3-1.92h-.53v.23c0,.21-1,.72-2,.72H32V24a.53.53,0,0,1-.3.07H29.61v1c3.58,1.52,1.73,4.28.41,2.92a5.78,5.78,0,0,0-.41-2.34V35c0,.22-1,.77-1.8.77h-.43V29.35a13.41,13.41,0,0,1-1.87,2.31l-.21-.18a23.58,23.58,0,0,0,1.87-7.39H25.49l-.14-.49h2V19.15l2.88.28c0,.26-.18.43-.65.5V23.6h0l.93-1.45s.85.82,1.43,1.49V23l.49.19-.16-1.36h-1.5l-.14-.49h1.59l-.25-2,2.62.07c0,.22-.13.42-.5.52l.17,1.43h.16l.73-1s.62.52,1.09,1h1.29l.3-2.07,2.64.55c-.06.2-.2.4-.67.41l-.17,1.11h.19l.77-1.07S41.49,21,42,21.5c0,.2-.21.28-.44.28h-2Zm-.87.29a3.51,3.51,0,0,1-1.24-.05l.21-1.4H36.23a.39.39,0,0,1-.15,0h-1.7l.14,1.09a2,2,0,0,1-1.36.54l1.24.47H38Zm-.42,2.94V24.39H34.31v1.78Zm0,2.32V26.66H34.31v1.83ZM37,31.9c6,.51,4.81,4.82,2.55,3.65A11.35,11.35,0,0,0,36.86,32Z" style="fill:#a01f24"/><path d="M52.31,20.28a.65.65,0,0,1-.63.37,21.57,21.57,0,0,1-4.4,5c.85,0,2,0,3.32,0a18.78,18.78,0,0,0,1.27-3L55,24.21c-.09.2-.35.35-.77.32a31.79,31.79,0,0,1-6.94,7.56c1.22-.05,2.94-.16,4.74-.29a9.75,9.75,0,0,0-.77-2.57l.17-.09c5.44,2.48,2.87,7.22.68,4.94a10.27,10.27,0,0,0,0-1.57c-1.26.56-3,1.26-5,2a1,1,0,0,1-.44.38l-1.26-2.8a2.76,2.76,0,0,0,.88-.38A21.7,21.7,0,0,0,50,26.82c-.79.35-1.7.73-2.67,1.11a.87.87,0,0,1-.37.3l-1.21-2.62a2.19,2.19,0,0,0,.65-.28,16.11,16.11,0,0,0,2.64-6Zm9.8,1.56a1.31,1.31,0,0,1-.82.36c-.21,9.05-.49,11.4-1.66,12.57a3.55,3.55,0,0,1-2.66,1A3.86,3.86,0,0,0,56.73,34a2,2,0,0,0-1.29-.89v-.19c.48,0,1.19.07,1.56.07a1,1,0,0,0,.65-.24c.73-.67,1-3.71,1.15-11H52.57l-.16-.49H58.6L60,19.88Z" style="fill:#a01f24"/><path d="M80.67,30.66s1,.84,1.55,1.41c0,.2-.21.28-.45.28H79.24v2.77c0,.19-1,.64-1.87.64H77V32.35h-.92l-.72.88-1.85-1.1a2.34,2.34,0,0,1,.61-.42c.16-.67.31-1.56.4-2.19a1.12,1.12,0,0,1-.58.16c-1.25,3.09-3.8,5.19-8.24,6.08l-.11-.24A10.3,10.3,0,0,0,70,32.58a1,1,0,0,1-.89-.31,2.89,2.89,0,0,0-.18-1.51,9.06,9.06,0,0,1-2.79,1.7l-.18-.16a11.55,11.55,0,0,0,2.64-5.13h-2.5l-.14-.49H68.8v-2H67.35l-.14-.49H68.8V22.64a11.77,11.77,0,0,1-2.46,1.45L66.2,24a13.35,13.35,0,0,0,3-4.94l2.92.92c-.09.19-.23.26-.7.19a9,9,0,0,1-.84.95h8.23L80,19.5s1.29,1.06,2,1.78c0,.19-.23.28-.49.28H70.1c-.18.17-.39.35-.6.52l1.86.19c0,.21-.16.37-.55.42v1.47h1V22.22l2.52.26c0,.2-.16.37-.55.42v1.26h1v-2l2.52.26c0,.19-.16.37-.55.42v1.29h1v-2.1l2.55.27c0,.21-.16.36-.55.41v1l.49-.79s.89.89,1.37,1.47c0,.19-.21.28-.44.28H79.72v2h.14l.86-1.19s1,.82,1.57,1.4c-.05.19-.22.28-.47.28H68.91l2.53,1c-.07.21-.31.35-.71.32a2.7,2.7,0,0,1-.25.4H71.6l1.14-1.08,1.64,1.41-.11-.33H77V27.22l2.8.24c0,.21-.14.37-.54.42v1h.22l.77-1.07s.87.76,1.38,1.28c0,.19-.21.28-.45.28H79.24v2.52h.57ZM70.15,29.35a6.92,6.92,0,0,1-.77.93c.91.36,1.26.89,1.28,1.34a8.93,8.93,0,0,0,1-2.27Zm.66-2.67h1v-2h-1Zm3-2v2h1v-2ZM77,31.87V29.35h-.49c-.12.68-.31,1.75-.47,2.52Zm-.23-7.22v2h1v-2Z" style="fill:#a01f24"/><path d="M96.06,21.78c7.76,1.47,6.2,6.89,3.53,5.28a11.69,11.69,0,0,0-1-1.9c-2.48.59-6.1,1.29-10.57,2a1.53,1.53,0,0,1-.66.44l-.74-2.87a3.86,3.86,0,0,0,.81-.24c1.66-.77,4.19-3.72,4.92-5.42l3.44,1.29c-.06.2-.27.35-.68.34a23.7,23.7,0,0,1-6.13,4c2.29,0,5.7-.05,9.26-.14a18.16,18.16,0,0,0-2.36-2.72Zm2,5.42,2.49,1.92a1.28,1.28,0,0,1-.8.44v5.5a5.21,5.21,0,0,1-2.24.56h-.45V34.08h-6v.79c0,.26-1.19.86-2.29.86h-.38V27.5l2.81,1.06H96.9Zm-1,6.4V29.05h-6V33.6Z" style="fill:#a01f24"/><path d="M107,58.09V48.28a280,280,0,0,0-86.24,0v9.81A191.49,191.49,0,0,0,.47,59.16V71.32A177.7,177.7,0,0,1,21,70.16,179.73,179.73,0,0,1,41,71.32V63.43c7.18-.44,14.74-.7,22.64-.7,8,0,15.75.25,23.06.7v7.89a179.88,179.88,0,0,1,20-1.16,177.56,177.56,0,0,1,20.48,1.16V59.16A191.34,191.34,0,0,0,107,58.09Z" style="fill:#a01f24;stroke:#fff4d9;stroke-miterlimit:10;stroke-width:0.940174244172582px"/><path d="M21.53,64.38l19,6.42V63q-2.91,0-6,.14A129.86,129.86,0,0,0,21.53,64.38Z" style="fill:#751113"/><path d="M106.15,64.39l-19,6.42V63c1.94,0,3.94,0,6,.14A130.07,130.07,0,0,1,106.15,64.39Z" style="fill:#751113"/><path d="M44.34,51.6c0,.85.1,1.7.16,2.56l0,.37c.06.86.12,1.71.2,2.54l.74,0,0,.28-2.89.21,0-.28.72-.13c0-.84-.12-1.68-.15-2.35L43,52.16l-1.58,5.5-.44,0-2.41-5.17c.07.85.17,1.92.21,2.44l.17,2.46.93.06,0,.28-2.23.16,0-.28.9-.18-.36-5.38L37.3,52l0-.28,2.28-.16,2,4.26,1.32-4.5,2.18-.16,0,.28Z" style="fill:#fff4d9"/><path d="M54.46,56.72V57l-2.82.11v-.28l.73-.11-.56-1.58-1.9.07-.4,1.59.78.08v.28l-1.89.07V57l.68-.13,1.65-5.89.86,0,2.2,5.77Zm-2.75-1.87-1-2.79L50,54.92Z" style="fill:#fff4d9"/><path d="M59.82,54.28c0,1.14,0,1.66,0,2.3l.84.07v.29l-3.11,0v-.28l.83-.09c0-.59,0-1.08,0-2.07l-1.7-3.42-.46,0v-.28l2.87,0V51l-.81.09,1.32,2.81,1.25-2.81-.81-.1v-.28H62V51l-.68.1Z" style="fill:#fff4d9"/><path d="M69.8,56.77v.28L67,57v-.28l.74-.07L67.24,55l-1.91,0-.49,1.56.78.13V57l-1.89,0v-.28l.69-.09,2-5.79h.86l1.87,5.9Zm-2.65-2-.84-2.85-.89,2.82Z" style="fill:#fff4d9"/><path d="M80.2,52.6a7.31,7.31,0,0,1-1.28,3.29,5.09,5.09,0,0,0,1.65,1.34l0,.08a1.24,1.24,0,0,0-1.07.93,4.29,4.29,0,0,1-1.2-1.64,6.62,6.62,0,0,1-3,1.45L75.21,58a6,6,0,0,0,2.73-2.35,11,11,0,0,1-.3-1.93,5.37,5.37,0,0,1-1.07,1.06l-.1-.06c.09-.16.17-.34.26-.53a.76.76,0,0,1-.25,0c-.28.14-.61.29-1,.42l.3,0c0,.12-.1.18-.28.19v.28L77.08,55v.11c-.42.16-.93.34-1.58.54l-.07,1.16c0,.75-.23,1.14-1.45,1.18a1.28,1.28,0,0,0-.16-.78,1,1,0,0,0-.69-.39v-.11s.86.1,1,.1.15,0,.16-.11l0-.7-1,.3a.38.38,0,0,1-.26.19l-.39-1.21c.35,0,1,0,1.71-.09l0-.73.54.07c.12-.18.25-.38.35-.55l-.72,0a8.52,8.52,0,0,1-2,1.11L72.56,55a9,9,0,0,0,1.32-1.07l-.72,0-.06-.23,1,0c.26-.26.5-.53.73-.81l-2-.11,0-.24L74,52.6l.06-1.08-.86-.05,0-.23.92,0,.07-1.14,1.41.18c0,.12-.08.2-.32.22l0,.73.4-.49.39.37a7.67,7.67,0,0,0,.4-.82L77.6,51c-.06.08-.15.13-.35.08A10.71,10.71,0,0,1,76,52.71l.25,0,.44-.54s.3.27.55.53a14.14,14.14,0,0,0,.51-2.36l1.55.47c0,.11-.14.18-.34.17a11.63,11.63,0,0,1-.48,1.27l.68,0,.63-.74s.62.56,1,.93c0,.09-.12.12-.24.12Zm-3.44,1.47a10.15,10.15,0,0,0,.4-1.06l-1.35-.08a11.75,11.75,0,0,1-.9.81l.47,0,.55-.5Zm-1.58-2.49-.06.91a9.78,9.78,0,0,0,.6-.88Zm3.21.92a8.64,8.64,0,0,1-.56.94,6.18,6.18,0,0,0,.48,1.47,8.73,8.73,0,0,0,.6-2.39Z" style="fill:#fff4d9"/><path d="M84.84,54.26a.89.89,0,0,1-.57,1c-.74.21-1.11-.8-.28-1.13a.8.8,0,0,0,.5-.8h.09a2.33,2.33,0,0,1,.22.66h0l.2-2.79.82.22a7.88,7.88,0,0,0,.64-.49l.66.59a2.85,2.85,0,0,1,.56.09,3.63,3.63,0,0,0,.32-.48l.82.52c0,.07-.13.08-.28,0a1.87,1.87,0,0,1-.29.25c.36.35.1.79-.32.62a2.47,2.47,0,0,0-.22-.29,7.16,7.16,0,0,1-.83.33c0,.07-.1.09-.21.08L86,52.65l-.06.64h0l.37-.4s.34.34.54.59c0,.09-.11.12-.22.11l-.73-.07,0,.6,3.22.31.08-.6-.54,0,0-.24.62.06.09-.64-.54-.05,0-.24.62.06.08-.65L88.73,52l-.06-.24.66.06.46-.45.94.83a.44.44,0,0,1-.31.11l-.26,2,.37-.3.89,1a.4.4,0,0,1-.32.07c-.38.14-1,.36-1.41.46l0,0c.07-.21.18-.51.27-.76ZM90,56.1s.6.6,1,1c0,.09-.13.12-.25.11l-2.84-.27-.07.73c-.07.78-.28,1.18-1.57,1.18a1.69,1.69,0,0,0-.14-.85,1.18,1.18,0,0,0-.74-.45v-.1l1.13.16c.1,0,.15,0,.16-.11l.06-.67-3.06-.29,0-.23,3.13.29.07-.68.81.14c.18-.16.36-.35.52-.5l-2.76-.26-.06-.24,2.93.28.67-.53.94,1a.46.46,0,0,1-.34.07c-.36.09-.83.21-1.29.3,0,.11-.12.16-.29.17l0,.36,1.47.14ZM86.36,52s.26.24.45.45a4.71,4.71,0,0,0,.61-.51,3.29,3.29,0,0,0-.31-.26l-.11,0a9.05,9.05,0,0,1-1,.1l0,.63h0Zm2.46,1.1c0,.08-.14.09-.28,0a1.9,1.9,0,0,1-.33.29c.37.41.05.88-.39.66a2.23,2.23,0,0,0-.19-.32,4.56,4.56,0,0,1-1.07.33L86.5,54a4.48,4.48,0,0,0,.83-.56,3.41,3.41,0,0,0-.45-.42L87,53a2.85,2.85,0,0,1,.69.15,2.77,2.77,0,0,0,.34-.47Z" style="fill:#fff4d9"/></svg>