<svg xmlns="http://www.w3.org/2000/svg" viewBox="0 0 127.7 71.85"><path d="M16.22,0h95.26a11.47,11.47,0,0,1,11.47,11.47V60a0,0,0,0,1,0,0H4.76a0,0,0,0,1,0,0V11.47A11.47,11.47,0,0,1,16.22,0Z" style="fill:#fff4d9"/><path d="M33.06,25c2.63,7-2.64,6.53-1.54,4.1a1.21,1.21,0,0,1-1.23-.26,4.68,4.68,0,0,0-.36-1.45v7.57a2.39,2.39,0,0,1-1.92.71h-.42V29.19a13.89,13.89,0,0,1-2.29,1.57l-.14-.14a17.72,17.72,0,0,0,4-7.14H25.65L25.49,23h3.6l1.27-1.22,2.08,2a1.12,1.12,0,0,1-.77.26,13.2,13.2,0,0,1-1.53,2.46c1.38.33,1.94.95,2,1.49a7.61,7.61,0,0,0,.71-3Zm-5.89-5.68c5,.54,2.48,4.16.54,2.48A6,6,0,0,0,27,19.34ZM41.9,21.05c-.07.21-.23.37-.74.37a35.41,35.41,0,0,1-1.85,4.63c4.58,2.53,1.61,6,.31,4a9.93,9.93,0,0,0-.54-3.58,26.15,26.15,0,0,1-2.79,4.37v1.76c0,.32.1.42.49.42h1.69a.69.69,0,0,0,.46-.18,8.74,8.74,0,0,0,.75-1.76h.17l.07,1.83c.58.26.75.54.75,1,0,.93-.8,1.47-3.23,1.47H36.15c-1.71,0-2.13-.42-2.13-2V33.3a18.85,18.85,0,0,1-2.87,2.18L31,35.31A20.6,20.6,0,0,0,34,31.81V22.68l2.35.22a7,7,0,0,0-1.9-3.21l.11-.14c5.13.42,4,4.33,2.21,3.65a.78.78,0,0,1-.5.23v4.5A35.76,35.76,0,0,0,39,20.28Z" style="fill:#a01f24"/><path d="M61.1,26.59a3.87,3.87,0,0,1-1.45.47c2.71.39,2.58,2.41,1.43,2.71.44.33,1,.77,1.38,1.12-.05.19-.24.28-.49.28H59.09v2c0,1.59-.35,2.39-2.81,2.6A3.39,3.39,0,0,0,56,34.22a1.56,1.56,0,0,0-1.2-.7v-.08a1.36,1.36,0,0,1-2.28.45,5.49,5.49,0,0,0-.78-2.6l.12-.09c2.39.3,3.11,1.31,3,2.1.21,0,1.35.09,1.59.09s.26-.06.26-.23v-2H50.35l-.14-.49h6.43V29l3,.25c0,.26-.2.38-.57.44v1h.07l.94-1.21a8,8,0,0,0-.91-1.22c-1.67.49-4,1.05-7.3,1.8a.77.77,0,0,1-.52.38l-.93-2.37c.91,0,2.5,0,4.4-.07v-1.3H53.69v.21c0,.23-1.12.75-2.13.75h-.35V21.71l2.6,1h1v-1.1h-4l-.11-.38a22.1,22.1,0,0,1-1.52,3l.94.35c0,.17-.21.28-.54.35V35.08a3,3,0,0,1-2,.68h-.45V27a16,16,0,0,1-1.75,1.66l-.19-.12a35.79,35.79,0,0,0,3.05-9.4l3.41,1c-.07.22-.3.36-.7.36l-.23.56h4.09V19.2l3.13.26c0,.24-.16.44-.65.51V21.1h1.33l1.26-1.64s1.42,1.1,2.27,1.85c0,.19-.26.28-.51.28H59.54l2.17,1.61a1.07,1.07,0,0,1-.61.33Zm-7.41-3.41v1.28h1.15V23.18Zm1.15,3V25H53.69V26.2Zm2.48-3.51h1.07l1-1.1h-2.1Zm1.24.49H57.32v1.28h1.24ZM57.32,25V26.2h1.24V25Zm0,3,1.49-.06a7.44,7.44,0,0,0-.82-.73l.12-.12a3.54,3.54,0,0,1,.45,0v-.3H57.32Z" style="fill:#a01f24"/><path d="M76.84,26.27c1.24,1.38,3.58,1.89,5.54,2l0,.26a3.17,3.17,0,0,0-1.66,2.34,8.68,8.68,0,0,1-4.35-4.58h-4a12.43,12.43,0,0,1-1.76,2h3.82l1.07-1.31s1.2.89,2,1.52a.46.46,0,0,1-.49.28H75.11a10.83,10.83,0,0,1-.24,2h1.54l1.15-1.49s1.31,1,2.11,1.7c0,.19-.24.28-.49.28H74.73a4.91,4.91,0,0,1-.26.63c9.88,1.06,5.71,5.29,3.7,3.47a12.31,12.31,0,0,0-3.93-3c-.95,1.56-3,2.71-7.51,3.53l-.13-.23c3.85-1.22,5.1-2.63,5.54-4.36h-4L68,30.68h4.3a14.93,14.93,0,0,0,.14-2h-2l-.09-.3A14.68,14.68,0,0,1,65.71,31l-.12-.15a13.77,13.77,0,0,0,4.33-4.62h-4l-.14-.49H70.2A15.41,15.41,0,0,0,71,24.07H67.39l-.14-.49h3.9c.19-.52.33-1,.47-1.57H66.85l-.14-.49h5c.17-.84.31-1.66.4-2.46l3.46.66c0,.26-.26.44-.68.44-.1.45-.21.91-.33,1.36h3.27L79.11,20s1.4,1,2.27,1.75c0,.19-.24.28-.5.28H74.43a16.21,16.21,0,0,1-.56,1.57h3.79l1.14-1.39s1.27.94,2.06,1.6c0,.2-.23.28-.49.28H73.64a10.56,10.56,0,0,1-.94,1.71h6L80,24.2s1.45,1.06,2.33,1.79c0,.2-.25.28-.49.28Z" style="fill:#a01f24"/><path d="M90.38,26.59c-.07.16-.22.28-.55.33v8.25a3.18,3.18,0,0,1-1.93.61h-.43V28.35a13.65,13.65,0,0,1-1.79,1.37l-.15-.16a23,23,0,0,0,2.9-6.5l2.77,1.57c-.1.18-.26.3-.69.23-.32.44-.67.91-1.05,1.38Zm.77-5.84c-.08.18-.26.28-.68.23a14.36,14.36,0,0,1-4.61,3.27l-.14-.16a16.21,16.21,0,0,0,2.69-4.87Zm3.71,3.1v11c0,.22-1,.75-1.75.75h-.42V26.12a.76.76,0,0,1-.44.15v1.54c0,1.75-.35,4.3-2.08,5.79L90,33.42a16.25,16.25,0,0,0,.72-5.64V25.61l2,.19V23.85h-2.1l-.14-.49h2.24V19.3l2.81.28c0,.25-.17.44-.64.49v3.29H95l1-1.31s1.1.89,1.76,1.52c0,.19-.22.28-.47.28ZM95.4,20c3.14.65,1.57,2.92.37,1.86a3.63,3.63,0,0,0-.55-1.77Zm2.37,11.19c.37.17.51.31.51.63,0,.59-.54.87-1.54.87h-.33c-1,0-1.08-.39-1.08-1.31V25.65l2.13.2c0,.23-.17.39-.51.44V31c0,.15,0,.24.07.24a.65.65,0,0,0,.2,0,1.81,1.81,0,0,0,.31-.05h.16Zm2.9-7.71s1.24,1,2,1.73c-.05.19-.23.28-.49.28h-1.33v7.72c0,1.45-.29,2.41-2.5,2.59a3.87,3.87,0,0,0-.21-1.52,1.16,1.16,0,0,0-1-.66v-.23s.94.05,1.21.05.28-.1.28-.28V25.47H97.06L96.92,25h2.65Zm-3.16-1.85-.14-.49h2l1.07-1.45s1.21,1,1.9,1.66c0,.19-.24.28-.48.28Z" style="fill:#a01f24"/><path d="M107,58.09V48.28a280,280,0,0,0-86.24,0v9.81A191.49,191.49,0,0,0,.47,59.16V71.32A177.7,177.7,0,0,1,21,70.16,179.73,179.73,0,0,1,41,71.32V63.43c7.18-.44,14.74-.7,22.64-.7,8,0,15.75.25,23.06.7v7.89a179.88,179.88,0,0,1,20-1.16,177.56,177.56,0,0,1,20.48,1.16V59.16A191.34,191.34,0,0,0,107,58.09Z" style="fill:#a01f24;stroke:#fff4d9;stroke-miterlimit:10;stroke-width:0.940174244172582px"/><path d="M21.53,64.38l19,6.42V63q-2.91,0-6,.14A129.86,129.86,0,0,0,21.53,64.38Z" style="fill:#751113"/><path d="M106.15,64.39l-19,6.42V63c1.94,0,3.94,0,6,.14A130.07,130.07,0,0,1,106.15,64.39Z" style="fill:#751113"/><path d="M50.83,52.38s.74.51,1.18.86a.22.22,0,0,1-.23.14l-7.39.36-.07-.23,4.28-.21A13.82,13.82,0,0,0,49,51.53l-2.72.13c2.21.51,1.14,2.29.17,1.49A3.68,3.68,0,0,0,46,51.68l-1.36.06-.08-.23,3.31-.15a.89.89,0,0,1-.29-.12,2.27,2.27,0,0,0-.48-1l0,0c1.9-.17,1.74.94,1.1,1.15l1.64-.08.57-.82s.71.5,1.13.84c0,.09-.11.14-.23.14l-2.08.1,1.3.33c0,.1-.12.17-.31.16a14.12,14.12,0,0,1-1.52,1.29l1.49-.08Zm-1,1.31,1.17.82a.58.58,0,0,1-.33.21l.13,2.74a1.61,1.61,0,0,1-1,.44h-.22l0-.6-2.47.12v.26c0,.12-.5.41-1,.43h-.18L45.72,54l1.29.43,2.32-.11Zm-2.91,1,0,1.13,2.48-.12-.06-1.13Zm2.59,2.4,0-1.16L47,56l.06,1.16Z" style="fill:#fff4d9"/><path d="M55,54.21a6.09,6.09,0,0,0,1.17-2.35l1.33.53a.27.27,0,0,1-.33.14,4.53,4.53,0,0,1-2.08,1.76ZM62.4,52a7.75,7.75,0,0,1-1,3.37,4.67,4.67,0,0,0,1.72,1.29l0,.08a1.22,1.22,0,0,0-1,1,4.22,4.22,0,0,1-1.28-1.58,6.28,6.28,0,0,1-2.66,1.65l-.06-.07a6,6,0,0,0,2.35-2.55,12.28,12.28,0,0,1-.4-2,5.93,5.93,0,0,1-1,1.32l-.1,0a15.67,15.67,0,0,0,.65-2.73l-.11,0-4.41,0L55,51.52l2,0a1.06,1.06,0,0,1-.25-.11A3.19,3.19,0,0,0,56,50l0-.05c2.2,0,2.12,1.33,1.42,1.56h.68l.56-.77s.55.43.94.77c.07-.54.13-1.09.15-1.63l1.54.31c0,.11-.12.19-.31.2-.12.5-.24,1-.39,1.4h.81L62,51s.64.51,1,.85c0,.09-.11.14-.23.14Zm-3.46,1.74c0,.1-.13.17-.35.15a7.35,7.35,0,0,1-.46,1.19c1.28,1.12.65,2.4-.29,1.81a5.61,5.61,0,0,0-.4-.82,7.16,7.16,0,0,1-2.29,1.66l-.07-.12a7.28,7.28,0,0,0,1.86-2.29,11.13,11.13,0,0,0-1.1-1.23l.07-.06a7.69,7.69,0,0,1,1.37.49,5.66,5.66,0,0,0,.25-1.24Zm-1.58-1.8c2.68,0,2.08,2.06,1,1.51A4,4,0,0,0,57.3,52Zm3.2.08c-.11.3-.23.58-.36.85a6.21,6.21,0,0,0,.54,1.54,9,9,0,0,0,.42-2.4Z" style="fill:#fff4d9"/><path d="M68.86,51s.49.42.79.71c0,.1-.11.13-.23.13L66,51.75,66,51.52l2.42.07ZM68,57.35l0-.47-.7,0v.5c0,.1-.45.31-.88.29h-.15l.1-3.3,1,.45H68l.47-.47.92.74a.52.52,0,0,1-.29.14L69,57.1a1.48,1.48,0,0,1-.86.26Zm2.83-6.08a2.54,2.54,0,0,1-1.68,2.43c.06.06.12.11.16.16s-.11.13-.22.12l-2.74-.08-.06-.23,1.79,0,.46-.56s.23.19.47.41a3.46,3.46,0,0,0,.76-2.33l0-1.06,1.21.46h.48l.53-.54.89.77a.54.54,0,0,1-.3.11l0,1.18c0,.09,0,.12.11.12H73a1.34,1.34,0,0,0,.2,0l.21,0h.08l0,0c.23.12.3.23.29.42,0,.4-.36.61-1.17.58h-.39c-.7,0-.77-.23-.75-.86l0-1.53-.73,0Zm-2.71,1.37.45-.56s.49.4.78.69a.22.22,0,0,1-.23.13l-2.74-.08-.06-.23Zm-1.23-2.59c2.48,0,1.49,1.9.47,1.19a2.3,2.3,0,0,0-.52-1.15ZM68,56.65l0-1.6-.69,0,0,1.6Zm5.3-2.43c-.06.09-.15.12-.35.13a5.41,5.41,0,0,1-1.21,1.77,8,8,0,0,0,1.92.65v.1a1.29,1.29,0,0,0-1,1A5.21,5.21,0,0,1,71,56.73a7.43,7.43,0,0,1-2.83,1.05l-.05-.1a6.15,6.15,0,0,0,2.41-1.54,5.68,5.68,0,0,1-.74-2.09h-.33l-.07-.24,2.33.07.63-.58Zm-3.41-.17a3.34,3.34,0,0,0,1.06,1.55,5.46,5.46,0,0,0,.77-1.5Z" style="fill:#fff4d9"/><path d="M80.43,51.46s.54.49.87.83c0,.09-.12.13-.23.12l-4.15-.29,0-.24,3,.21Zm-.66,3.41.93.82a.53.53,0,0,1-.32.15l-.13,1.82a1.65,1.65,0,0,1-.91.22h-.18l0-.49-1-.08,0,.48c0,.09-.48.29-.92.26H77l.23-3.23,1,.49.94.07Zm.08-1.28s.54.49.86.83c0,.09-.12.12-.23.11L77.2,54.3l0-.23,2.14.15Zm-.48-.45.55-.63s.55.49.87.82c0,.09-.12.13-.24.12l-3.27-.23,0-.23Zm-1.22-2.71c2.56.1,1.46,2,.45,1.27a2.47,2.47,0,0,0-.5-1.23Zm1.06,6.72.11-1.55-1.06-.08-.11,1.55Zm4.6-4s.58.53.91.89c0,.09-.12.12-.24.12L83.09,54l-.28,4.08c0,.12-.53.37-1,.34h-.22L81.92,54l-1.21-.09,0-.24,1.28.09.21-3,1.47.24c0,.11-.09.2-.32.22l-.19,2.66h.12Z" style="fill:#fff4d9"/></svg>