<svg xmlns="http://www.w3.org/2000/svg" viewBox="0 0 127.7 71.85"><path d="M16.22,0h95.26a11.47,11.47,0,0,1,11.47,11.47V60a0,0,0,0,1,0,0H4.76a0,0,0,0,1,0,0V11.47A11.47,11.47,0,0,1,16.22,0Z" style="fill:#fff4d9"/><path d="M39.43,23.64s1.54,1.13,2.48,1.9c0,.19-.24.28-.5.28H36.88v7.06c0,1.61-.42,2.69-3.11,2.88A2.91,2.91,0,0,0,33.32,34a2.49,2.49,0,0,0-1.72-.78V33s2,.12,2.45.12c.26,0,.35-.12.35-.31v-7H33c-.14,4.33-.6,7.72-6.24,9.92l-.17-.22a8.37,8.37,0,0,0,3.87-7.06,1,1,0,0,1-.4,0,11,11,0,0,1-4.66,4.27l-.18-.16A15.53,15.53,0,0,0,28,27l2.53,1c0-.72,0-1.47.05-2.24H25.51l-.14-.49h6.92V22.67H27.06l-.14-.48h5.37v-3l3.19.24c0,.25-.15.42-.63.51v2.24h2.08l1.33-1.66s1.52,1.1,2.43,1.87c0,.19-.24.27-.51.27H34.85v2.66h3.22Zm-2,3.46c6.2,1.85,4,6.7,1.64,4.73a12.36,12.36,0,0,0-1.8-4.65Z" style="fill:#a01f24"/><path d="M48.05,30.83c1.08,2.28.38,3.9-.7,4.32a1.34,1.34,0,0,1-1.84-.86,1.4,1.4,0,0,1,1-1.62,2,2,0,0,0,1.31-1.82Zm2.6-2.74v1.49h7.88l1.21-1.12,2.07,1.71a1.17,1.17,0,0,1-.69.31c-.27,2.82-.69,4.2-1.63,4.81a4.11,4.11,0,0,1-2.32.54,2.43,2.43,0,0,0-.34-1.55,2.41,2.41,0,0,0-1.45-.77v-.19c.62,0,1.61.1,1.94.1a.84.84,0,0,0,.55-.14c.35-.24.61-1.35.8-3.21H50.53a3.6,3.6,0,0,1-2,.64h-.38V20.47l2.67,1H52.2c.08-.68.16-1.69.21-2.39l3.59.52c-.07.34-.32.48-.72.51-.51.39-1.31,1-1.89,1.36h2.89l1.1-1.2L59.66,22a1.05,1.05,0,0,1-.68.39v3.84a3.83,3.83,0,0,1-2.09.63h-.44v-.81h-5.8V27.6h7.79L59.74,26s1.46,1.09,2.35,1.82c-.05.19-.24.28-.5.28Zm-.94,2.8c4,2.18,1.15,5.29-.34,3.28A6.8,6.8,0,0,0,49.51,31Zm.94-8.9v1.52h5.8V22Zm5.8,3.59V24h-5.8v1.58Zm-4.56,5.17c4.77,1.13,2.62,4.75.79,3.14a6.41,6.41,0,0,0-1-3.06Zm2.46-.34c4.58-.34,3.27,3.34,1.33,2.29a4.26,4.26,0,0,0-1.45-2.18Z" style="fill:#a01f24"/><path d="M75,23.78l1.71,1.27a.89.89,0,0,1-.57.3v2.51a2.77,2.77,0,0,1-1.49.46h-.31v-.53h-1.1v.28c0,.16-.79.55-1.52.55h-.25V26.57c-.42.32-.9.66-1.45,1.05V33c0,1.66-.31,2.58-2.72,2.81a4.5,4.5,0,0,0-.33-1.82,1.59,1.59,0,0,0-1.24-.8V32.9S67,33,67.37,33s.32-.08.32-.26V29.16c-.28.19-.58.36-.88.56a.87.87,0,0,1-.49.52L65.5,27.5c.46-.09,1.23-.27,2.19-.51V23.86H65.78l-.14-.49h2V19.18l3,.28c0,.26-.21.44-.65.49v3.42h.11L71,21.85s1,1.07,1.55,1.73c-.05.2-.21.28-.45.28H70V26.4L71.44,26V23.9l1.84.73h.87Zm5.1,4.71s1.3,1,2.1,1.63c0,.19-.24.28-.49.28H77.61v4.84a3.06,3.06,0,0,1-1.87.54h-.4V32a1.2,1.2,0,0,1-.44,0,9.82,9.82,0,0,1-4.14,3.29l-.17-.18A13.42,13.42,0,0,0,73,30.54l2.38,1.05V30.4h-3.9l-.14-.49h4V28.27l1.34.12V23.88l1.91.75h.82l.87-.92,1.86,1.36a1.16,1.16,0,0,1-.65.33v2.32a3.06,3.06,0,0,1-1.57.44h-.34v-.37h-1v.06a2.32,2.32,0,0,1-1.59.54h-.18l1.42.12c0,.21-.16.38-.58.44v1h1.33Zm-5-5.2a2.91,2.91,0,0,1-1.94.64h-.3V19.5l2.32.89h2.38l1-1.09,2.1,1.58a1.14,1.14,0,0,1-.66.34v2a3.6,3.6,0,0,1-1.87.56h-.4v-.49Zm-.77,4V25.12h-1.1V27.3Zm.77-6.42V22.8h2.64V20.88ZM77.89,31c5.75,1,4.07,5.22,1.87,3.77a12.62,12.62,0,0,0-2-3.68Zm.65-5.89V27.3h1V25.12Z" style="fill:#a01f24"/><path d="M90.38,26.59c-.07.16-.22.28-.55.33v8.25a3.18,3.18,0,0,1-1.93.61h-.43V28.35a13.65,13.65,0,0,1-1.79,1.37l-.15-.16a23,23,0,0,0,2.9-6.5l2.77,1.57c-.1.18-.26.3-.69.23-.32.44-.67.91-1.05,1.38Zm.77-5.84c-.08.18-.26.28-.68.23a14.36,14.36,0,0,1-4.61,3.27l-.14-.16a16.21,16.21,0,0,0,2.69-4.87Zm3.71,3.1v11c0,.22-1,.75-1.75.75h-.42V26.12a.76.76,0,0,1-.44.15v1.54c0,1.75-.35,4.3-2.08,5.78L90,33.42a16.25,16.25,0,0,0,.72-5.64V25.61l2,.19V23.85h-2.1l-.14-.49h2.24V19.3l2.81.28c0,.25-.17.44-.64.49v3.29H95l1-1.31s1.1.89,1.76,1.52c0,.19-.22.28-.47.28ZM95.4,20c3.14.65,1.57,2.92.37,1.86a3.63,3.63,0,0,0-.55-1.77Zm2.37,11.19c.37.17.51.31.51.63,0,.59-.54.87-1.54.87h-.33c-1,0-1.08-.39-1.08-1.31V25.65l2.13.2c0,.23-.17.39-.51.44V31c0,.15,0,.24.07.24a.65.65,0,0,0,.2,0,1.81,1.81,0,0,0,.31-.05h.16Zm2.9-7.71s1.24,1,2,1.73c-.05.19-.23.28-.49.28h-1.33v7.72c0,1.45-.29,2.41-2.5,2.59a3.87,3.87,0,0,0-.21-1.52,1.19,1.19,0,0,0-1-.67v-.22s.94.05,1.21.05.28-.1.28-.28V25.47H97.06L96.92,25h2.65Zm-3.16-1.85-.14-.49h2l1.07-1.45s1.21,1,1.9,1.66c0,.19-.24.28-.48.28Z" style="fill:#a01f24"/><path d="M107,58.09V48.28a280,280,0,0,0-86.24,0v9.81A191.49,191.49,0,0,0,.47,59.16V71.32A177.7,177.7,0,0,1,21,70.16,179.73,179.73,0,0,1,41,71.32V63.43c7.18-.44,14.74-.7,22.64-.7,8,0,15.75.25,23.06.7v7.89a179.88,179.88,0,0,1,20-1.16,177.56,177.56,0,0,1,20.48,1.16V59.16A191.34,191.34,0,0,0,107,58.09Z" style="fill:#a01f24;stroke:#fff4d9;stroke-miterlimit:10;stroke-width:0.940174244172582px"/><path d="M21.53,64.38l19,6.42V63q-2.91,0-6,.14A129.86,129.86,0,0,0,21.53,64.38Z" style="fill:#751113"/><path d="M106.15,64.39l-19,6.42V63c1.94,0,3.94,0,6,.14A130.07,130.07,0,0,1,106.15,64.39Z" style="fill:#751113"/><path d="M40.49,51.78l-.84.2.24,3.18c.15,1.9-.59,2.82-2,3s-2.47-.46-2.64-2.41l-.08-.9c-.07-.8-.14-1.64-.24-2.46h-.71l0-.28,2.94-.25,0,.28-.79.14c0,.81.12,1.65.19,2.46l.07.78c.13,1.51.69,2,1.64,1.94s1.46-.74,1.31-2.23L39.22,52l-.95,0,0-.28,2.22-.2Z" style="fill:#fff4d9"/><path d="M49.76,51.25,49,51.4l.26,5.81-.73,0-3.92-5,.3,4.72,1.11.06,0,.28-2.3.12,0-.28.76-.15-.23-5.21-.17-.22-.59,0,0-.28,2-.1,3.36,4.16-.25-3.93-1.1-.06,0-.28L49.74,51Z" style="fill:#fff4d9"/><path d="M55.11,51.17c0,.84,0,1.7,0,2.56v.36c0,.85,0,1.7.08,2.55l.74.06V57l-2.92.08v-.28l.74-.1c0-.83,0-1.69,0-2.55v-.36c0-.86,0-1.71-.09-2.56l-.74-.05v-.28l2.92-.08v.28Z" style="fill:#fff4d9"/><path d="M62.45,51.07c0,.86,0,1.72,0,2.6V54c0,.85,0,1.71,0,2.55l.85.09v.28H60.17v-.28l.84-.08c0-.83,0-1.68,0-2.54v-.37c0-.87,0-1.74,0-2.59H59.87l-.41,1.45H59l0-1.78h5.46l0,1.78H64l-.42-1.46Z" style="fill:#fff4d9"/><path d="M70.87,54.44c0,1.13-.05,1.65-.05,2.29l.84.11v.28L68.54,57v-.28l.84-.05c0-.59,0-1.08.08-2.06L67.9,51.14l-.46,0v-.28l2.87.09v.28l-.82,0,1.21,2.86,1.36-2.75-.8-.13v-.29L73.2,51v.28l-.68.07Z" style="fill:#fff4d9"/><path d="M83.34,52.83A7.48,7.48,0,0,1,82,56.11a5.21,5.21,0,0,0,1.64,1.35l0,.08a1.24,1.24,0,0,0-1.08.92,4.25,4.25,0,0,1-1.18-1.65,6.63,6.63,0,0,1-3,1.41l0-.08a6,6,0,0,0,2.75-2.31,10.29,10.29,0,0,1-.28-1.94,5.64,5.64,0,0,1-1.08,1l-.1-.06c.09-.16.17-.34.26-.52a.74.74,0,0,1-.24,0c-.28.14-.62.28-1,.41l.31,0c0,.13-.11.18-.29.19l0,.27,1.54-.09v.11c-.41.15-.93.32-1.58.52L78.54,57c-.05.75-.24,1.13-1.46,1.16a1.37,1.37,0,0,0-.15-.78,1,1,0,0,0-.69-.4v-.11l1,.12c.12,0,.15,0,.16-.12l0-.69-1,.28a.37.37,0,0,1-.25.19l-.38-1.21c.35,0,1,0,1.71-.07l0-.74.53.08a5.63,5.63,0,0,0,.36-.54l-.72-.05a8.53,8.53,0,0,1-2,1.09l-.07-.09a9.61,9.61,0,0,0,1.34-1l-.73,0-.06-.24,1,.07c.26-.26.5-.53.73-.81l-2-.13,0-.24,1.23.09.07-1.09-.86,0,0-.24.92.06.08-1.14,1.41.21c0,.12-.09.19-.32.21l-.05.73.41-.49.38.38c.16-.28.29-.55.41-.81l1.21.69c-.06.09-.15.13-.35.09a10.65,10.65,0,0,1-1.25,1.58l.25,0,.45-.54s.3.28.54.54a14.89,14.89,0,0,0,.54-2.35l1.54.49c0,.1-.14.17-.34.16a9.19,9.19,0,0,1-.5,1.26l.69.05L83,51.8s.61.56,1,.94c0,.09-.12.12-.24.11Zm-3.45,1.43a9.18,9.18,0,0,0,.41-1L79,53.12a11.72,11.72,0,0,1-.91.79l.47,0,.56-.49Zm-1.56-2.5-.06.91c.22-.29.42-.58.61-.88Zm3.2,1a6.07,6.07,0,0,1-.57.93,5.89,5.89,0,0,0,.47,1.47,8.51,8.51,0,0,0,.62-2.37Z" style="fill:#fff4d9"/><path d="M88,54.54a.87.87,0,0,1-.58,1c-.75.21-1.11-.81-.27-1.13a.81.81,0,0,0,.51-.79h.09a3.19,3.19,0,0,1,.22.66h0l.23-2.78.82.23a6.75,6.75,0,0,0,.65-.49l.65.6a2.57,2.57,0,0,1,.56.1,3.78,3.78,0,0,0,.33-.48L92,52c-.05.07-.13.08-.27,0a2.62,2.62,0,0,1-.3.24c.36.36.09.79-.33.62a2.47,2.47,0,0,0-.22-.29,5.66,5.66,0,0,1-.83.32c0,.07-.1.09-.21.08l-.73-.08-.06.65h0l.38-.4a6.54,6.54,0,0,1,.53.6c0,.09-.11.12-.22.11L89,53.81l-.05.6,3.23.34.07-.6-.53,0-.05-.24.63.06.09-.64-.54-.05,0-.24.62.06.09-.64-.65-.07-.05-.24.65.07.47-.45.93.84a.44.44,0,0,1-.31.11l-.29,2,.38-.3.88,1.05a.48.48,0,0,1-.33.06c-.38.14-1,.34-1.41.44l0-.05c.08-.2.18-.51.28-.76Zm5.15,1.9s.59.61.93,1c0,.09-.12.12-.25.11L91,57.25,90.9,58c-.08.78-.3,1.19-1.59,1.17a1.58,1.58,0,0,0-.13-.85,1.15,1.15,0,0,0-.73-.46v-.11l1.12.18c.11,0,.16,0,.17-.11l.07-.67-3.07-.32,0-.24,3.13.33.07-.68.81.15c.19-.16.37-.34.53-.49l-2.76-.29,0-.24,2.92.31.68-.52.93,1a.41.41,0,0,1-.34.08c-.36.08-.83.19-1.3.27,0,.12-.12.17-.29.17L91,57l1.47.15Zm-3.6-4.11s.25.24.44.46a4.13,4.13,0,0,0,.61-.51,3.48,3.48,0,0,0-.3-.26l-.11,0a9.45,9.45,0,0,1-1,.09l-.05.63h0ZM92,53.46c0,.08-.15.09-.28,0s-.21.19-.33.29c.35.41,0,.88-.41.66a1.4,1.4,0,0,0-.19-.33,4.54,4.54,0,0,1-1.07.32l0-.12a4.32,4.32,0,0,0,.83-.56,4.26,4.26,0,0,0-.44-.42l.08-.07a2.93,2.93,0,0,1,.69.16,3,3,0,0,0,.35-.47Z" style="fill:#fff4d9"/></svg>