<svg xmlns="http://www.w3.org/2000/svg" viewBox="0 0 127.7 71.85"><path d="M16.22,0h95.26a11.47,11.47,0,0,1,11.47,11.47V60a0,0,0,0,1,0,0H4.76a0,0,0,0,1,0,0V11.47A11.47,11.47,0,0,1,16.22,0Z" style="fill:#fff4d9"/><path d="M33.56,34.89c0,.15-.73.66-2,.66h-.45V26.83H29.7c0,3.11-.47,6.64-4.3,9l-.14-.12c1.77-2.55,2-5.73,2-8.83H25.42l-.14-.49h2v-5H25.75l-.14-.49h7.06l1.19-1.57S35.2,20.32,36,21c0,.19-.25.28-.51.28H33.56V26l.89-1.33s1.26,1.14,2,1.87c-.06.2-.25.28-.49.28H33.56Zm-2.44-8.55v-5H29.7v5Zm11.13,3.6c-.11.21-.32.3-.74.25a13.9,13.9,0,0,1-8,5.52l-.07-.21a13.85,13.85,0,0,0,5.69-7.11Zm-8-.33A15.56,15.56,0,0,0,39,23.85l3,1.74c-.14.19-.32.26-.74.19a16.67,16.67,0,0,1-6.9,4Zm.62-5a17.34,17.34,0,0,0,4.2-5.29l2.85,1.78c-.14.19-.32.24-.72.17A19.5,19.5,0,0,1,35,24.86Z" style="fill:#a01f24"/><path d="M45.51,26.26h4.67a1.76,1.76,0,0,1-.67-.46,2.14,2.14,0,0,0,0-1.34h-.75v.43c0,.2-.94.65-1.84.65H46.6V19.43l2.22.87h3.4l1-1.05,2,1.52a1.17,1.17,0,0,1-.72.37v3.54a3.4,3.4,0,0,1-1.73.48H52.4v-.7h-2c2,.42,1.75,1.46.88,1.8H53l1-1.33s1.19.91,1.9,1.54c0,.19-.22.28-.47.28H45.65Zm6.12,4.19v2.92c0,1.4-.3,2.25-2.38,2.41a3.4,3.4,0,0,0-.21-1.4,1.18,1.18,0,0,0-.94-.61v-.21s.87,0,1.12,0,.26-.1.26-.28v-1.2a1,1,0,0,1-.44.07,8.28,8.28,0,0,1-3.32,3L45.58,35A9.92,9.92,0,0,0,47,31.34a.86.86,0,0,1-.22,0h-.28V26.9l2.18.84h3.43l.9-1L55,28.2a1.32,1.32,0,0,1-.6.31v2.08a3.55,3.55,0,0,1-1.71.47h-.37v-.61Zm-2.15,0h-.87v.3c0,.1-.3.28-.7.42l1.57.66Zm-.87-2.22V30h3.68V28.23Zm.12-7.44v1.33H52.4V20.79Zm0,3.18H52.4V22.61H48.73Zm3.11,7.34c4.68.73,2.69,4.24.85,2.79a5.82,5.82,0,0,0-1-2.71Zm10.5-1.16c-.12.21-.32.28-.75.21a16,16,0,0,1-8.37,5.52l-.09-.21a15.56,15.56,0,0,0,6.22-7.11Zm-7.65-.64a20,20,0,0,0,4.43-5.77L62,25.54c-.12.17-.3.24-.72.16a21.4,21.4,0,0,1-6.48,4Zm.1-4.72a19.34,19.34,0,0,0,4.3-5.45l2.76,1.75c-.12.19-.3.24-.7.15A21.83,21.83,0,0,1,54.91,25Z" style="fill:#a01f24"/><path d="M80,24.39s1.46,1.1,2.34,1.87c0,.19-.25.28-.51.28H79.24v6.64c0,1.52-.44,2.44-3.27,2.6a2.34,2.34,0,0,0-.51-1.54,2.92,2.92,0,0,0-1.8-.73V33.3s2.19.14,2.62.14c.28,0,.37-.12.37-.32V26.54H65.8l-.14-.49h13Zm-7.81-3a6.48,6.48,0,0,0,.29-2.24l3.5.37c0,.26-.23.44-.67.47a5.47,5.47,0,0,1-.38,1.4h2.57l1.38-1.7s1.55,1.14,2.51,1.91c0,.19-.26.28-.52.28H74.69a4.85,4.85,0,0,1-.29.49c6.37-.12,5.08,4,2.91,3.18A14.84,14.84,0,0,0,74,22.92c-1.22,1.29-3.42,2.24-7.34,2.76l-.07-.19c3.2-.91,4.74-2.17,5.42-3.6H66.48l-.14-.49Zm2.6,11.18a3.7,3.7,0,0,1-2,.61h-.42v-.92h-2v1c0,.23-1,.75-2.06.75H68V27.25l2.48.95h1.71L73.24,27l2.24,1.67a1.25,1.25,0,0,1-.7.39Zm-2.45-.8V28.69h-2v3.09Z" style="fill:#a01f24"/><path d="M90.38,26.59c-.07.16-.22.28-.55.33v8.25a3.18,3.18,0,0,1-1.93.61h-.43V28.35a13.65,13.65,0,0,1-1.79,1.37l-.15-.16a23,23,0,0,0,2.9-6.5l2.77,1.57c-.1.18-.26.3-.69.23-.32.44-.67.91-1.05,1.38Zm.77-5.84c-.08.18-.26.28-.68.23a14.36,14.36,0,0,1-4.61,3.27l-.14-.16a16.21,16.21,0,0,0,2.69-4.87Zm3.71,3.1v11c0,.22-1,.75-1.75.75h-.42V26.12a.76.76,0,0,1-.44.15v1.54c0,1.75-.35,4.3-2.08,5.78L90,33.42a16.25,16.25,0,0,0,.72-5.64V25.61l2,.19V23.85h-2.1l-.14-.49h2.24V19.3l2.81.28c0,.25-.17.44-.64.49v3.29H95l1-1.31s1.1.89,1.76,1.52c0,.19-.22.28-.47.28ZM95.4,20c3.14.65,1.57,2.92.37,1.86a3.63,3.63,0,0,0-.55-1.77Zm2.37,11.19c.37.17.51.31.51.63,0,.59-.54.87-1.54.87h-.33c-1,0-1.08-.39-1.08-1.31V25.65l2.13.2c0,.23-.17.39-.51.44V31c0,.15,0,.24.07.24a.65.65,0,0,0,.2,0,1.81,1.81,0,0,0,.31-.05h.16Zm2.9-7.71s1.24,1,2,1.73c-.05.19-.23.28-.49.28h-1.33v7.72c0,1.45-.29,2.41-2.5,2.59a3.87,3.87,0,0,0-.21-1.52,1.19,1.19,0,0,0-1-.67v-.22s.94.05,1.21.05.28-.1.28-.28V25.47H97.06L96.92,25h2.65Zm-3.16-1.85-.14-.49h2l1.07-1.45s1.21,1,1.9,1.66c0,.19-.24.28-.48.28Z" style="fill:#a01f24"/><path d="M107,58.09V48.28a280,280,0,0,0-86.24,0v9.81A191.49,191.49,0,0,0,.47,59.16V71.32A177.7,177.7,0,0,1,21,70.16,179.73,179.73,0,0,1,41,71.32V63.43c7.18-.44,14.74-.7,22.64-.7,8,0,15.75.25,23.06.7v7.89a179.88,179.88,0,0,1,20-1.16,177.56,177.56,0,0,1,20.48,1.16V59.16A191.34,191.34,0,0,0,107,58.09Z" style="fill:#a01f24;stroke:#fff4d9;stroke-miterlimit:10;stroke-width:0.940174244172582px"/><path d="M21.53,64.38l19,6.42V63q-2.91,0-6,.14A129.86,129.86,0,0,0,21.53,64.38Z" style="fill:#751113"/><path d="M106.15,64.39l-19,6.42V63c1.94,0,3.94,0,6,.14A130.07,130.07,0,0,1,106.15,64.39Z" style="fill:#751113"/><path d="M51.4,52.54a.56.56,0,0,1-.28.17l.18,3.85c0,.76-.13,1.21-1.48,1.39a1.45,1.45,0,0,0-.31-.83,1.36,1.36,0,0,0-.9-.35v-.11h1.32c.14,0,.18-.06.17-.18l0-.88-3.42.16a3.28,3.28,0,0,1-2.16,2.44l-.06,0a4.21,4.21,0,0,0,1.11-3.59L45.44,53a7.36,7.36,0,0,1-1.14.61l-.06-.06a7.46,7.46,0,0,0,2.16-3.29l1.64.34c0,.09-.09.13-.34.13a4.91,4.91,0,0,1-.38.55l.93,0,.58-.63,1.09.84a.48.48,0,0,1-.33.14,9.35,9.35,0,0,1-1.4.89l1.63-.08.48-.59Zm-4.29-1a7.94,7.94,0,0,1-.87.87l.53.15,1.16-.06a9.38,9.38,0,0,0,.36-1ZM46.67,54l1,0-.06-1.24-1,0Zm0,.5a5.83,5.83,0,0,1,0,1l1.12-.06-.06-1.28-1,0Zm2.09-1.84,0,1.24L50,53.84l-.06-1.24ZM50,55.36,50,54.07l-1.13.06.06,1.28Z" style="fill:#fff4d9"/><path d="M62.31,56.19c.49.15.65.22.66.46,0,.53-.38.86-2.14.88l-2.74,0c-1.37,0-2-.34-2-1.54l0-3.14a8,8,0,0,1-1,.64L55,53.46a9.48,9.48,0,0,0,2.1-3.63l1.62.38c0,.1-.09.14-.33.13a5.49,5.49,0,0,1-.35.54h1.15l.6-.62,1.06.88c-.07.08-.16.1-.33.12a7.83,7.83,0,0,1-1.5,1h1.66l.54-.6,1.12.83a.54.54,0,0,1-.36.2l0,2.08a1.87,1.87,0,0,1-1,.31h-.21v-.54l-3.52,0,0,1.5c0,.3.2.39.77.39l2.66,0a1.23,1.23,0,0,0,.89-.21,4.71,4.71,0,0,0,.6-1.13h.09Zm-4.47-5.08a8.36,8.36,0,0,1-.89,1l.41.15,1.41,0a6.83,6.83,0,0,0,.43-1.15Zm-.58,3.21h1.16l0-1.82H57.24Zm2.29-1.84,0,1.81h1.2V52.47Z" style="fill:#fff4d9"/><path d="M68.86,51s.49.42.79.71c0,.1-.11.13-.23.13L66,51.75,66,51.52l2.42.07ZM68,57.35l0-.47-.7,0v.5c0,.1-.45.31-.88.29h-.15l.1-3.3,1,.45H68l.47-.47.92.74a.52.52,0,0,1-.29.14L69,57.1a1.48,1.48,0,0,1-.86.26Zm2.83-6.08a2.54,2.54,0,0,1-1.68,2.43,1.21,1.21,0,0,1,.16.16c0,.09-.11.13-.22.12l-2.74-.08-.06-.23,1.79,0,.46-.56s.23.19.47.41a3.46,3.46,0,0,0,.76-2.33l0-1.06,1.21.46h.48l.53-.54.89.77a.54.54,0,0,1-.3.11l0,1.18c0,.09,0,.12.11.12h.53l.21,0h.08l0,0c.23.12.3.23.29.42,0,.4-.36.61-1.17.58h-.39c-.7,0-.77-.23-.75-.86l0-1.53-.73,0Zm-2.71,1.37.45-.56s.49.4.78.69a.22.22,0,0,1-.23.13l-2.74-.08-.06-.23Zm-1.23-2.59c2.48,0,1.49,1.9.47,1.19a2.3,2.3,0,0,0-.52-1.15ZM68,56.65l0-1.6-.69,0,0,1.6Zm5.3-2.43c-.06.09-.15.12-.35.13a5.27,5.27,0,0,1-1.21,1.76,8,8,0,0,0,1.92.66v.1a1.29,1.29,0,0,0-1,1A5.21,5.21,0,0,1,71,56.73a7.43,7.43,0,0,1-2.83,1.05l-.05-.1a6.15,6.15,0,0,0,2.41-1.54,5.68,5.68,0,0,1-.74-2.09h-.33l-.07-.24,2.33.07.63-.58Zm-3.41-.17a3.34,3.34,0,0,0,1.06,1.55,5.46,5.46,0,0,0,.77-1.5Z" style="fill:#fff4d9"/><path d="M80.43,51.46s.54.49.87.83c0,.09-.12.13-.23.12l-4.15-.29,0-.24,3,.21Zm-.66,3.41.93.82a.53.53,0,0,1-.32.15l-.13,1.82a1.65,1.65,0,0,1-.91.22h-.18l0-.49-1-.08,0,.47c0,.1-.48.3-.92.27H77l.23-3.23,1,.49.94.07Zm.08-1.28s.54.49.86.83a.21.21,0,0,1-.23.11L77.2,54.3l0-.23,2.14.15Zm-.48-.45.55-.63s.55.49.87.82c0,.09-.12.13-.24.12l-3.27-.23,0-.24Zm-1.22-2.71c2.56.1,1.46,2,.45,1.27a2.47,2.47,0,0,0-.5-1.23Zm1.06,6.72.11-1.55-1.06-.08-.11,1.55Zm4.6-4s.58.53.91.89c0,.09-.12.12-.24.12L83.09,54l-.28,4.08c0,.12-.53.37-1,.34h-.22L81.92,54l-1.21-.09,0-.24,1.28.09.21-3,1.47.24c0,.11-.09.2-.32.22l-.19,2.66h.12Z" style="fill:#fff4d9"/></svg>