<svg xmlns="http://www.w3.org/2000/svg" viewBox="0 0 1366 768"><rect x="299" y="-299" width="768" height="1366" transform="translate(1067 -299) rotate(90)" style="fill:#e89913"/><line x1="17.46" y1="-69.29" x2="17.46" y2="805.73" style="fill:none;stroke:#a01f24;stroke-miterlimit:10;stroke-width:2px"/><line x1="47.04" y1="-69.29" x2="47.04" y2="805.73" style="fill:none;stroke:#a01f24;stroke-miterlimit:10;stroke-width:2px"/><line x1="76.62" y1="-69.29" x2="76.62" y2="805.73" style="fill:none;stroke:#a01f24;stroke-miterlimit:10;stroke-width:2px"/><line x1="106.2" y1="-69.29" x2="106.2" y2="805.73" style="fill:none;stroke:#a01f24;stroke-miterlimit:10;stroke-width:2px"/><line x1="135.78" y1="-69.29" x2="135.78" y2="805.73" style="fill:none;stroke:#a01f24;stroke-miterlimit:10;stroke-width:2px"/><line x1="165.36" y1="-69.29" x2="165.36" y2="805.73" style="fill:none;stroke:#a01f24;stroke-miterlimit:10;stroke-width:2px"/><line x1="194.94" y1="-69.29" x2="194.94" y2="805.73" style="fill:none;stroke:#a01f24;stroke-miterlimit:10;stroke-width:2px"/><line x1="224.52" y1="-69.29" x2="224.52" y2="805.73" style="fill:none;stroke:#a01f24;stroke-miterlimit:10;stroke-width:2px"/><line x1="254.1" y1="-69.29" x2="254.1" y2="805.73" style="fill:none;stroke:#a01f24;stroke-miterlimit:10;stroke-width:2px"/><line x1="283.68" y1="-69.29" x2="283.68" y2="805.73" style="fill:none;stroke:#a01f24;stroke-miterlimit:10;stroke-width:2px"/><line x1="313.25" y1="-69.29" x2="313.25" y2="805.73" style="fill:none;stroke:#a01f24;stroke-miterlimit:10;stroke-width:2px"/><line x1="342.83" y1="-69.29" x2="342.83" y2="805.73" style="fill:none;stroke:#a01f24;stroke-miterlimit:10;stroke-width:2px"/><line x1="372.41" y1="-69.29" x2="372.41" y2="805.73" style="fill:none;stroke:#a01f24;stroke-miterlimit:10;stroke-width:2px"/><line x1="401.99" y1="-69.29" x2="401.99" y2="805.73" style="fill:none;stroke:#a01f24;stroke-miterlimit:10;stroke-width:2px"/><line x1="431.57" y1="-69.29" x2="431.57" y2="805.73" style="fill:none;stroke:#a01f24;stroke-miterlimit:10;stroke-width:2px"/><line x1="461.15" y1="-69.29" x2="461.15" y2="805.73" style="fill:none;stroke:#a01f24;stroke-miterlimit:10;stroke-width:2px"/><line x1="490.73" y1="-69.29" x2="490.73" y2="805.73" style="fill:none;stroke:#a01f24;stroke-miterlimit:10;stroke-width:2px"/><line x1="520.31" y1="-69.29" x2="520.31" y2="805.73" style="fill:none;stroke:#a01f24;stroke-miterlimit:10;stroke-width:2px"/><line x1="549.89" y1="-69.29" x2="549.89" y2="805.73" style="fill:none;stroke:#a01f24;stroke-miterlimit:10;stroke-width:2px"/><line x1="579.47" y1="-69.29" x2="579.47" y2="805.73" style="fill:none;stroke:#a01f24;stroke-miterlimit:10;stroke-width:2px"/><line x1="609.05" y1="-69.29" x2="609.05" y2="805.73" style="fill:none;stroke:#a01f24;stroke-miterlimit:10;stroke-width:2px"/><line x1="638.63" y1="-69.29" x2="638.63" y2="805.73" style="fill:none;stroke:#a01f24;stroke-miterlimit:10;stroke-width:2px"/><line x1="668.21" y1="-69.29" x2="668.21" y2="805.73" style="fill:none;stroke:#a01f24;stroke-miterlimit:10;stroke-width:2px"/><line x1="697.79" y1="-69.29" x2="697.79" y2="805.73" style="fill:none;stroke:#a01f24;stroke-miterlimit:10;stroke-width:2px"/><line x1="727.37" y1="-69.29" x2="727.37" y2="805.73" style="fill:none;stroke:#a01f24;stroke-miterlimit:10;stroke-width:2px"/><line x1="756.95" y1="-69.29" x2="756.95" y2="805.73" style="fill:none;stroke:#a01f24;stroke-miterlimit:10;stroke-width:2px"/><line x1="786.53" y1="-69.29" x2="786.53" y2="805.73" style="fill:none;stroke:#a01f24;stroke-miterlimit:10;stroke-width:2px"/><line x1="816.11" y1="-69.29" x2="816.11" y2="805.73" style="fill:none;stroke:#a01f24;stroke-miterlimit:10;stroke-width:2px"/><line x1="845.69" y1="-69.29" x2="845.69" y2="805.73" style="fill:none;stroke:#a01f24;stroke-miterlimit:10;stroke-width:2px"/><line x1="875.27" y1="-69.29" x2="875.27" y2="805.73" style="fill:none;stroke:#a01f24;stroke-miterlimit:10;stroke-width:2px"/><line x1="904.85" y1="-69.29" x2="904.85" y2="805.73" style="fill:none;stroke:#a01f24;stroke-miterlimit:10;stroke-width:2px"/><line x1="934.43" y1="-69.29" x2="934.43" y2="805.73" style="fill:none;stroke:#a01f24;stroke-miterlimit:10;stroke-width:2px"/><line x1="964.01" y1="-69.29" x2="964.01" y2="805.73" style="fill:none;stroke:#a01f24;stroke-miterlimit:10;stroke-width:2px"/><line x1="993.59" y1="-69.29" x2="993.59" y2="805.73" style="fill:none;stroke:#a01f24;stroke-miterlimit:10;stroke-width:2px"/><line x1="1023.17" y1="-69.29" x2="1023.17" y2="805.73" style="fill:none;stroke:#a01f24;stroke-miterlimit:10;stroke-width:2px"/><line x1="1052.75" y1="-69.29" x2="1052.75" y2="805.73" style="fill:none;stroke:#a01f24;stroke-miterlimit:10;stroke-width:2px"/><line x1="1082.32" y1="-69.29" x2="1082.32" y2="805.73" style="fill:none;stroke:#a01f24;stroke-miterlimit:10;stroke-width:2px"/><line x1="1111.9" y1="-69.29" x2="1111.9" y2="805.73" style="fill:none;stroke:#a01f24;stroke-miterlimit:10;stroke-width:2px"/><line x1="1141.48" y1="-69.29" x2="1141.48" y2="805.73" style="fill:none;stroke:#a01f24;stroke-miterlimit:10;stroke-width:2px"/><line x1="1171.06" y1="-69.29" x2="1171.06" y2="805.73" style="fill:none;stroke:#a01f24;stroke-miterlimit:10;stroke-width:2px"/><line x1="1200.64" y1="-69.29" x2="1200.64" y2="805.73" style="fill:none;stroke:#a01f24;stroke-miterlimit:10;stroke-width:2px"/><line x1="1230.22" y1="-69.29" x2="1230.22" y2="805.73" style="fill:none;stroke:#a01f24;stroke-miterlimit:10;stroke-width:2px"/><line x1="1259.8" y1="-69.29" x2="1259.8" y2="805.73" style="fill:none;stroke:#a01f24;stroke-miterlimit:10;stroke-width:2px"/><line x1="1289.38" y1="-69.29" x2="1289.38" y2="805.73" style="fill:none;stroke:#a01f24;stroke-miterlimit:10;stroke-width:2px"/><line x1="1318.96" y1="-69.29" x2="1318.96" y2="805.73" style="fill:none;stroke:#a01f24;stroke-miterlimit:10;stroke-width:2px"/><line x1="1348.54" y1="-69.29" x2="1348.54" y2="805.73" style="fill:none;stroke:#a01f24;stroke-miterlimit:10;stroke-width:2px"/><path d="M1283.74,868.71H82.26A42.24,42.24,0,0,0,40,826.46V-58.46a42.24,42.24,0,0,0,42.25-42.25H1283.74A42.24,42.24,0,0,0,1326-58.46V826.46A42.24,42.24,0,0,0,1283.74,868.71Z" style="fill:#ffeedc;stroke:#a01f24;stroke-miterlimit:10;stroke-width:5.865602493286133px"/><path d="M1260.24,839H105.76a42.25,42.25,0,0,0-42.25-42.25V-28.75A42.25,42.25,0,0,0,105.76-71H1260.24a42.25,42.25,0,0,0,42.25,42.25v825.5A42.25,42.25,0,0,0,1260.24,839Z" style="fill:none;stroke:#a01f24;stroke-miterlimit:10;stroke-width:1.1731204986572266px"/></svg>