<svg xmlns="http://www.w3.org/2000/svg" xmlns:xlink="http://www.w3.org/1999/xlink" viewBox="0 0 168 201"><defs><linearGradient id="a" x1="148.26" y1="30.15" x2="17.56" y2="173.23" gradientUnits="userSpaceOnUse"><stop offset="0" stop-color="#d0b482"/><stop offset="1" stop-color="#91897e"/></linearGradient></defs><rect width="168" height="201" style="fill:url(#a)"/><line x1="5.1" y1="193.56" x2="5.1" y2="178.63" style="fill:none;stroke:#b73336;stroke-width:0.30000000447034836px"/><path d="M5.1,184.59c-.09-.18-.24-.23-.34-.12a.49.49,0,0,0-.09.53c-.09,0-.16.11-.19.21a.31.31,0,0,0,.12.39.66.66,0,0,1,.34.69h.31a.66.66,0,0,1,.34-.69.32.32,0,0,0,.13-.39c0-.1-.11-.22-.2-.21a.47.47,0,0,0-.09-.53C5.33,184.36,5.18,184.41,5.1,184.59Z" style="fill:#b73336"/><path d="M5.11,193.75c0,.3.12.59.32.47s.06-.36,0-.45c0,.06.15.14.23.07s0-.38-.13-.75a2.25,2.25,0,0,1-.23-1.45c.09.63.5,1,.7.82a.62.62,0,0,0,0-.75c.15.06.24-.1.26-.22a.55.55,0,0,0-.25-.61,1.52,1.52,0,0,1-.63-.87c-.09-.21.06-.28.11-.1.25.6.49.62.63.58s.23-.31.14-.5c.27.09.45,0,.53-.27s-.15-.59-.53-.62c.22-.17.1-.53-.25-.55-.52,0-.55-.17-.7-.32s-.14-.35,0-.21c.29.32.6.29.67.09a.47.47,0,0,0-.15-.54.26.26,0,0,0-.15-.49c-.59-.06-.67-.44-.66-.56" style="fill:#b73336"/><path d="M5.08,193.75c0,.3-.12.59-.32.47s0-.36,0-.45c0,.06-.15.14-.22.07s0-.38.12-.75a2.19,2.19,0,0,0,.23-1.45c-.08.63-.49,1-.69.82a.61.61,0,0,1,0-.75c-.14.06-.23-.1-.26-.22a.59.59,0,0,1,.25-.61,1.47,1.47,0,0,0,.63-.87c.09-.21,0-.28-.1-.1-.26.6-.49.62-.63.58s-.23-.31-.14-.5c-.27.09-.45,0-.54-.27s.16-.59.53-.62c-.21-.17-.1-.53.26-.55.52,0,.55-.17.7-.32s.13-.35,0-.21c-.28.32-.6.29-.66.09a.46.46,0,0,1,.15-.54.26.26,0,0,1,.14-.49c.59-.06.68-.44.67-.56" style="fill:#b73336"/><path d="M5.1,181c0-.16.06-.31.16-.25s0,.19,0,.23.08-.07.12,0,0,.19-.06.38a1.11,1.11,0,0,0-.12.74c0-.32.25-.51.35-.42a.29.29,0,0,1,0,.38c.08,0,.12,0,.14.12s0,.18-.13.31a.71.71,0,0,0-.32.44c0,.11,0,.15,0,0,.13-.3.25-.31.32-.29s.12.15.07.25c.14,0,.23,0,.28.14s-.08.3-.27.32c.11.09,0,.27-.13.28s-.28.08-.36.16-.07.18,0,.11.31-.15.34,0a.23.23,0,0,1-.08.28.13.13,0,0,1-.07.25c-.3,0-.34.22-.34.28" style="fill:#b73336"/><path d="M5.08,181c0-.16-.06-.31-.16-.25s0,.19,0,.23-.08-.07-.11,0,0,.19.06.38A1.11,1.11,0,0,1,5,182c0-.32-.26-.51-.36-.42a.32.32,0,0,0,0,.38c-.07,0-.12,0-.13.12a.29.29,0,0,0,.12.31.79.79,0,0,1,.33.44c0,.11,0,.15-.06,0-.13-.3-.25-.31-.32-.29s-.12.15-.07.25c-.14,0-.23,0-.27.14s.07.3.27.32c-.11.09-.05.27.13.28s.28.08.35.16.07.18,0,.11-.3-.15-.34,0a.24.24,0,0,0,.08.28.13.13,0,0,0,.07.25c.31,0,.35.22.34.28" style="fill:#b73336"/><line x1="5.1" y1="177.94" x2="5.1" y2="163" style="fill:none;stroke:#b73336;stroke-width:0.30000000447034836px"/><path d="M5.1,169c-.09-.18-.24-.24-.34-.13a.5.5,0,0,0-.09.54c-.09,0-.16.11-.19.2a.32.32,0,0,0,.12.4.65.65,0,0,1,.34.68.29.29,0,0,0,.16,0,.26.26,0,0,0,.15,0,.65.65,0,0,1,.34-.68.33.33,0,0,0,.13-.4c0-.09-.11-.22-.2-.2a.48.48,0,0,0-.09-.54C5.33,168.73,5.18,168.79,5.1,169Z" style="fill:#b73336"/><path d="M5.11,178.12c0,.31.12.6.32.48s.06-.36,0-.46c0,.07.15.14.23.07s0-.38-.13-.75A2.21,2.21,0,0,1,5.3,176c.09.63.5,1,.7.81s.14-.61,0-.74c.15,0,.24-.1.26-.23s0-.36-.25-.61a1.5,1.5,0,0,1-.63-.86c-.09-.21.06-.28.11-.1.25.59.49.61.63.58s.23-.31.14-.5c.27.09.45,0,.53-.28s-.15-.58-.53-.62c.22-.17.1-.53-.25-.55-.52,0-.55-.16-.7-.32s-.14-.34,0-.2c.29.31.6.29.67.09a.46.46,0,0,0-.15-.54.26.26,0,0,0-.15-.49C5.11,171.4,5,171,5,170.9" style="fill:#b73336"/><path d="M5.08,178.12c0,.31-.12.6-.32.48s0-.36,0-.46c0,.07-.15.14-.22.07s0-.38.12-.75A2.15,2.15,0,0,0,4.89,176c-.08.63-.49,1-.69.81a.59.59,0,0,1,0-.74c-.14,0-.23-.1-.26-.23a.59.59,0,0,1,.25-.61,1.45,1.45,0,0,0,.63-.86c.09-.21,0-.28-.1-.1-.26.59-.49.61-.63.58s-.23-.31-.14-.5a.36.36,0,0,1-.54-.28c-.08-.39.16-.58.53-.62-.21-.17-.1-.53.26-.55.52,0,.55-.16.7-.32s.13-.34,0-.2c-.28.31-.6.29-.66.09a.45.45,0,0,1,.15-.54.26.26,0,0,1,.14-.49c.59-.06.68-.45.67-.56" style="fill:#b73336"/><path d="M5.1,165.33c0-.16.06-.3.16-.24s0,.18,0,.23.08-.07.12,0,0,.2-.06.39a1.08,1.08,0,0,0-.12.73c0-.32.25-.5.35-.41a.29.29,0,0,1,0,.38c.08,0,.12,0,.14.11a.31.31,0,0,1-.13.32.7.7,0,0,0-.32.43c0,.11,0,.15,0,.06.13-.31.25-.32.32-.3s.12.16.07.26a.19.19,0,0,1,.28.14c0,.2-.08.3-.27.31.11.09,0,.27-.13.28s-.28.09-.36.17-.07.17,0,.1.31-.15.34,0a.22.22,0,0,1-.08.27.13.13,0,0,1-.07.25c-.3,0-.34.23-.34.29" style="fill:#b73336"/><path d="M5.08,165.33c0-.16-.06-.3-.16-.24s0,.18,0,.23-.08-.07-.11,0,0,.2.06.39a1.08,1.08,0,0,1,.12.73c0-.32-.26-.5-.36-.41a.32.32,0,0,0,0,.38c-.07,0-.12,0-.13.11a.3.3,0,0,0,.12.32.78.78,0,0,1,.33.43c0,.11,0,.15-.06.06-.13-.31-.25-.32-.32-.3s-.12.16-.07.26c-.14-.05-.23,0-.27.14s.07.3.27.31c-.11.09-.05.27.13.28s.28.09.35.17.07.17,0,.1-.3-.15-.34,0a.23.23,0,0,0,.08.27.13.13,0,0,0,.07.25c.31,0,.35.23.34.29" style="fill:#b73336"/><line x1="5.1" y1="162.31" x2="5.1" y2="147.38" style="fill:none;stroke:#b73336;stroke-width:0.30000000447034836px"/><path d="M5.1,153.34c-.09-.18-.24-.23-.34-.12a.49.49,0,0,0-.09.53c-.09,0-.16.11-.19.21a.31.31,0,0,0,.12.39.66.66,0,0,1,.34.69h.31a.66.66,0,0,1,.34-.69.32.32,0,0,0,.13-.39c0-.1-.11-.22-.2-.21a.47.47,0,0,0-.09-.53C5.33,153.11,5.18,153.16,5.1,153.34Z" style="fill:#b73336"/><path d="M5.11,162.5c0,.3.12.59.32.47s.06-.36,0-.45c0,.06.15.14.23.07s0-.38-.13-.75a2.25,2.25,0,0,1-.23-1.45c.09.63.5,1,.7.82a.62.62,0,0,0,0-.75c.15.06.24-.1.26-.23a.54.54,0,0,0-.25-.6,1.52,1.52,0,0,1-.63-.87c-.09-.21.06-.28.11-.1.25.6.49.62.63.58s.23-.31.14-.5c.27.09.45,0,.53-.27s-.15-.59-.53-.62c.22-.17.1-.53-.25-.55-.52,0-.55-.17-.7-.32s-.14-.35,0-.21c.29.32.6.29.67.09a.47.47,0,0,0-.15-.54.26.26,0,0,0-.15-.49c-.59-.06-.67-.44-.66-.56" style="fill:#b73336"/><path d="M5.08,162.5c0,.3-.12.59-.32.47s0-.36,0-.45c0,.06-.15.14-.22.07s0-.38.12-.75a2.19,2.19,0,0,0,.23-1.45c-.08.63-.49,1-.69.82a.61.61,0,0,1,0-.75c-.14.06-.23-.1-.26-.23a.58.58,0,0,1,.25-.6,1.47,1.47,0,0,0,.63-.87c.09-.21,0-.28-.1-.1-.26.6-.49.62-.63.58s-.23-.31-.14-.5c-.27.09-.45,0-.54-.27s.16-.59.53-.62c-.21-.17-.1-.53.26-.55.52,0,.55-.17.7-.32s.13-.35,0-.21c-.28.32-.6.29-.66.09a.46.46,0,0,1,.15-.54.26.26,0,0,1,.14-.49c.59-.06.68-.44.67-.56" style="fill:#b73336"/><path d="M5.1,149.7c0-.15.06-.3.16-.24s0,.19,0,.23.08-.07.12,0,0,.19-.06.38a1.11,1.11,0,0,0-.12.74c0-.32.25-.51.35-.42a.29.29,0,0,1,0,.38c.08,0,.12,0,.14.12s0,.18-.13.31a.71.71,0,0,0-.32.44c0,.11,0,.14,0,0,.13-.3.25-.31.32-.29s.12.15.07.25a.19.19,0,0,1,.28.14c0,.2-.08.3-.27.32.11.09,0,.27-.13.28s-.28.08-.36.16-.07.18,0,.11.31-.15.34,0a.23.23,0,0,1-.08.28.13.13,0,0,1-.07.25c-.3,0-.34.22-.34.28" style="fill:#b73336"/><path d="M5.08,149.7c0-.15-.06-.3-.16-.24s0,.19,0,.23-.08-.07-.11,0,0,.19.06.38a1.11,1.11,0,0,1,.12.74c0-.32-.26-.51-.36-.42a.32.32,0,0,0,0,.38c-.07,0-.12,0-.13.12a.29.29,0,0,0,.12.31.79.79,0,0,1,.33.44c0,.11,0,.14-.06,0-.13-.3-.25-.31-.32-.29s-.12.15-.07.25a.18.18,0,0,0-.27.14c0,.2.07.3.27.32-.11.09-.05.27.13.28s.28.08.35.16.07.18,0,.11-.3-.15-.34,0a.24.24,0,0,0,.08.28.13.13,0,0,0,.07.25c.31,0,.35.22.34.28" style="fill:#b73336"/><line x1="5.1" y1="146.69" x2="5.1" y2="131.75" style="fill:none;stroke:#b73336;stroke-width:0.30000000447034836px"/><path d="M5.1,137.72c-.09-.18-.24-.24-.34-.13a.5.5,0,0,0-.09.54c-.09,0-.16.11-.19.2a.32.32,0,0,0,.12.4.65.65,0,0,1,.34.68.29.29,0,0,0,.16,0,.26.26,0,0,0,.15,0,.65.65,0,0,1,.34-.68.33.33,0,0,0,.13-.4c0-.09-.11-.22-.2-.2a.48.48,0,0,0-.09-.54C5.33,137.48,5.18,137.54,5.1,137.72Z" style="fill:#b73336"/><path d="M5.11,146.87c0,.31.12.6.32.48s.06-.36,0-.46c0,.07.15.14.23.07s0-.38-.13-.75a2.21,2.21,0,0,1-.23-1.44c.09.63.5,1,.7.81s.14-.61,0-.74c.15,0,.24-.1.26-.23s0-.36-.25-.61a1.5,1.5,0,0,1-.63-.86c-.09-.21.06-.28.11-.1.25.59.49.61.63.58s.23-.31.14-.5c.27.09.45,0,.53-.28s-.15-.58-.53-.62c.22-.17.1-.53-.25-.55-.52,0-.55-.16-.7-.32s-.14-.35,0-.2c.29.31.6.29.67.08a.45.45,0,0,0-.15-.53.26.26,0,0,0-.15-.49c-.59-.06-.67-.45-.66-.56" style="fill:#b73336"/><path d="M5.08,146.87c0,.31-.12.6-.32.48s0-.36,0-.46c0,.07-.15.14-.22.07s0-.38.12-.75a2.15,2.15,0,0,0,.23-1.44c-.08.63-.49,1-.69.81a.59.59,0,0,1,0-.74c-.14,0-.23-.1-.26-.23a.59.59,0,0,1,.25-.61,1.45,1.45,0,0,0,.63-.86c.09-.21,0-.28-.1-.1-.26.59-.49.61-.63.58s-.23-.31-.14-.5a.36.36,0,0,1-.54-.28c-.08-.39.16-.58.53-.62-.21-.17-.1-.53.26-.55.52,0,.55-.16.7-.32s.13-.35,0-.2c-.28.31-.6.29-.66.08a.44.44,0,0,1,.15-.53.26.26,0,0,1,.14-.49c.59-.06.68-.45.67-.56" style="fill:#b73336"/><path d="M5.1,134.08c0-.16.06-.3.16-.24s0,.18,0,.23.08-.07.12,0,0,.2-.06.38a1.11,1.11,0,0,0-.12.74c0-.32.25-.5.35-.41a.29.29,0,0,1,0,.38c.08,0,.12,0,.14.11a.31.31,0,0,1-.13.32.7.7,0,0,0-.32.43c0,.11,0,.15,0,.06.13-.31.25-.32.32-.3s.12.16.07.26a.19.19,0,0,1,.28.14c0,.2-.08.3-.27.31.11.09,0,.27-.13.28s-.28.09-.36.17-.07.17,0,.1.31-.15.34,0a.22.22,0,0,1-.08.27.13.13,0,0,1-.07.25c-.3,0-.34.23-.34.29" style="fill:#b73336"/><path d="M5.08,134.08c0-.16-.06-.3-.16-.24s0,.18,0,.23-.08-.07-.11,0,0,.2.06.38a1.11,1.11,0,0,1,.12.74c0-.32-.26-.5-.36-.41a.32.32,0,0,0,0,.38c-.07,0-.12,0-.13.11a.3.3,0,0,0,.12.32.78.78,0,0,1,.33.43c0,.11,0,.15-.06.06-.13-.31-.25-.32-.32-.3s-.12.16-.07.26c-.14-.05-.23,0-.27.14s.07.3.27.31c-.11.09-.05.27.13.28s.28.09.35.17.07.17,0,.1-.3-.15-.34,0a.23.23,0,0,0,.08.27.13.13,0,0,0,.07.25c.31,0,.35.23.34.29" style="fill:#b73336"/><line x1="5.1" y1="131.06" x2="5.1" y2="116.13" style="fill:none;stroke:#b73336;stroke-width:0.30000000447034836px"/><path d="M5.1,122.09c-.09-.18-.24-.23-.34-.12a.49.49,0,0,0-.09.53c-.09,0-.16.11-.19.21a.31.31,0,0,0,.12.39.66.66,0,0,1,.34.69h.31a.66.66,0,0,1,.34-.69.32.32,0,0,0,.13-.39c0-.1-.11-.22-.2-.21a.47.47,0,0,0-.09-.53C5.33,121.86,5.18,121.91,5.1,122.09Z" style="fill:#b73336"/><path d="M5.11,131.25c0,.3.12.59.32.47s.06-.36,0-.45c0,.06.15.14.23.07s0-.38-.13-.75a2.25,2.25,0,0,1-.23-1.45c.09.63.5,1,.7.82a.62.62,0,0,0,0-.75c.15.06.24-.1.26-.23a.54.54,0,0,0-.25-.6,1.52,1.52,0,0,1-.63-.87c-.09-.21.06-.28.11-.1.25.6.49.62.63.58s.23-.31.14-.5c.27.09.45,0,.53-.27s-.15-.59-.53-.62c.22-.17.1-.53-.25-.55-.52,0-.55-.17-.7-.32s-.14-.35,0-.21c.29.32.6.29.67.09a.47.47,0,0,0-.15-.54.26.26,0,0,0-.15-.49c-.59-.06-.67-.44-.66-.56" style="fill:#b73336"/><path d="M5.08,131.25c0,.3-.12.59-.32.47s0-.36,0-.45c0,.06-.15.14-.22.07s0-.38.12-.75a2.19,2.19,0,0,0,.23-1.45c-.08.63-.49,1-.69.82a.61.61,0,0,1,0-.75c-.14.06-.23-.1-.26-.23a.58.58,0,0,1,.25-.6,1.47,1.47,0,0,0,.63-.87c.09-.21,0-.28-.1-.1-.26.6-.49.62-.63.58s-.23-.31-.14-.5c-.27.09-.45,0-.54-.27s.16-.59.53-.62c-.21-.17-.1-.53.26-.55.52,0,.55-.17.7-.32s.13-.35,0-.21c-.28.32-.6.29-.66.09a.46.46,0,0,1,.15-.54.26.26,0,0,1,.14-.49c.59-.06.68-.44.67-.56" style="fill:#b73336"/><path d="M5.1,118.45c0-.15.06-.3.16-.24s0,.19,0,.23.08-.07.12,0,0,.19-.06.38a1.11,1.11,0,0,0-.12.74c0-.32.25-.51.35-.42a.29.29,0,0,1,0,.38c.08,0,.12.05.14.12s0,.18-.13.31a.71.71,0,0,0-.32.44c0,.11,0,.14,0,0,.13-.3.25-.31.32-.29s.12.15.07.25a.19.19,0,0,1,.28.14c0,.2-.08.3-.27.32.11.09,0,.27-.13.28s-.28.08-.36.16-.07.18,0,.11.31-.15.34,0a.23.23,0,0,1-.08.28.13.13,0,0,1-.07.25c-.3,0-.34.22-.34.28" style="fill:#b73336"/><path d="M5.08,118.45c0-.15-.06-.3-.16-.24s0,.19,0,.23-.08-.07-.11,0,0,.19.06.38a1.11,1.11,0,0,1,.12.74c0-.32-.26-.51-.36-.42a.32.32,0,0,0,0,.38c-.07,0-.12.05-.13.12a.29.29,0,0,0,.12.31.79.79,0,0,1,.33.44c0,.11,0,.14-.06,0-.13-.3-.25-.31-.32-.29s-.12.15-.07.25a.18.18,0,0,0-.27.14c0,.2.07.3.27.32-.11.09-.05.27.13.28s.28.08.35.16.07.18,0,.11-.3-.15-.34,0a.24.24,0,0,0,.08.28.13.13,0,0,0,.07.25c.31,0,.35.22.34.28" style="fill:#b73336"/><line x1="5.1" y1="115.44" x2="5.1" y2="100.5" style="fill:none;stroke:#b73336;stroke-width:0.30000000447034836px"/><path d="M5.1,106.47c-.09-.18-.24-.24-.34-.13a.5.5,0,0,0-.09.54c-.09,0-.16.11-.19.2a.32.32,0,0,0,.12.4.65.65,0,0,1,.34.68.29.29,0,0,0,.16,0,.26.26,0,0,0,.15,0,.65.65,0,0,1,.34-.68.33.33,0,0,0,.13-.4c0-.09-.11-.22-.2-.2a.48.48,0,0,0-.09-.54C5.33,106.23,5.18,106.29,5.1,106.47Z" style="fill:#b73336"/><path d="M5.11,115.62c0,.31.12.6.32.48s.06-.36,0-.46c0,.07.15.14.23.07s0-.38-.13-.75a2.21,2.21,0,0,1-.23-1.44c.09.63.5,1,.7.81s.14-.61,0-.74c.15,0,.24-.1.26-.23s0-.36-.25-.61a1.5,1.5,0,0,1-.63-.86c-.09-.21.06-.28.11-.1.25.59.49.61.63.58s.23-.31.14-.5c.27.09.45,0,.53-.28S6.68,111,6.3,111c.22-.17.1-.53-.25-.55-.52,0-.55-.16-.7-.32s-.14-.35,0-.2c.29.31.6.29.67.08a.45.45,0,0,0-.15-.53A.26.26,0,0,0,5.7,109c-.59-.06-.67-.45-.66-.56" style="fill:#b73336"/><path d="M5.08,115.62c0,.31-.12.6-.32.48s0-.36,0-.46c0,.07-.15.14-.22.07s0-.38.12-.75a2.15,2.15,0,0,0,.23-1.44c-.08.63-.49,1-.69.81a.59.59,0,0,1,0-.74c-.14,0-.23-.1-.26-.23a.59.59,0,0,1,.25-.61,1.45,1.45,0,0,0,.63-.86c.09-.21,0-.28-.1-.1-.26.59-.49.61-.63.58s-.23-.31-.14-.5a.36.36,0,0,1-.54-.28c-.08-.39.16-.58.53-.62-.21-.17-.1-.53.26-.55.52,0,.55-.16.7-.32s.13-.35,0-.2c-.28.31-.6.29-.66.08a.44.44,0,0,1,.15-.53.26.26,0,0,1,.14-.49c.59-.06.68-.45.67-.56" style="fill:#b73336"/><path d="M5.1,102.83c0-.16.06-.3.16-.24s0,.18,0,.23.08-.07.12,0,0,.2-.06.38a1.11,1.11,0,0,0-.12.74c0-.32.25-.5.35-.41a.29.29,0,0,1,0,.38c.08,0,.12,0,.14.11a.29.29,0,0,1-.13.31.74.74,0,0,0-.32.44c0,.11,0,.15,0,.06.13-.31.25-.32.32-.3s.12.16.07.26a.19.19,0,0,1,.28.14c0,.2-.08.3-.27.31.11.09,0,.27-.13.28s-.28.09-.36.17-.07.17,0,.1.31-.15.34,0a.22.22,0,0,1-.08.27.13.13,0,0,1-.07.25c-.3,0-.34.23-.34.29" style="fill:#b73336"/><path d="M5.08,102.83c0-.16-.06-.3-.16-.24s0,.18,0,.23-.08-.07-.11,0,0,.2.06.38a1.11,1.11,0,0,1,.12.74c0-.32-.26-.5-.36-.41a.32.32,0,0,0,0,.38c-.07,0-.12,0-.13.11a.28.28,0,0,0,.12.31.82.82,0,0,1,.33.44c0,.11,0,.15-.06.06-.13-.31-.25-.32-.32-.3s-.12.16-.07.26c-.14,0-.23,0-.27.14s.07.3.27.31c-.11.09-.05.27.13.28s.28.09.35.17.07.17,0,.1-.3-.15-.34,0a.23.23,0,0,0,.08.27.13.13,0,0,0,.07.25c.31,0,.35.23.34.29" style="fill:#b73336"/><line x1="5.1" y1="99.81" x2="5.1" y2="84.88" style="fill:none;stroke:#b73336;stroke-width:0.30000000447034836px"/><path d="M5.1,90.84c-.09-.18-.24-.23-.34-.12a.49.49,0,0,0-.09.53c-.09,0-.16.11-.19.21a.31.31,0,0,0,.12.39.66.66,0,0,1,.34.69h.31a.66.66,0,0,1,.34-.69.32.32,0,0,0,.13-.39c0-.1-.11-.22-.2-.21a.47.47,0,0,0-.09-.53C5.33,90.61,5.18,90.66,5.1,90.84Z" style="fill:#b73336"/><path d="M5.11,100c0,.3.12.59.32.47s.06-.36,0-.45c0,.06.15.14.23.06s0-.37-.13-.74a2.25,2.25,0,0,1-.23-1.45c.09.63.5,1,.7.82A.62.62,0,0,0,6,98c.15.06.24-.1.26-.23a.54.54,0,0,0-.25-.6,1.52,1.52,0,0,1-.63-.87c-.09-.21.06-.28.11-.1.25.59.49.62.63.58s.23-.31.14-.5c.27.09.45,0,.53-.27s-.15-.59-.53-.62c.22-.17.1-.53-.25-.55-.52,0-.55-.17-.7-.32s-.14-.35,0-.21c.29.32.6.29.67.09a.47.47,0,0,0-.15-.54.26.26,0,0,0-.15-.49c-.59-.06-.67-.44-.66-.56" style="fill:#b73336"/><path d="M5.08,100c0,.3-.12.59-.32.47s0-.36,0-.45c0,.06-.15.14-.22.06s0-.37.12-.74a2.19,2.19,0,0,0,.23-1.45c-.08.63-.49,1-.69.82a.61.61,0,0,1,0-.75c-.14.06-.23-.1-.26-.23a.58.58,0,0,1,.25-.6,1.47,1.47,0,0,0,.63-.87c.09-.21,0-.28-.1-.1-.26.59-.49.62-.63.58s-.23-.31-.14-.5c-.27.09-.45,0-.54-.27s.16-.59.53-.62c-.21-.17-.1-.53.26-.55.52,0,.55-.17.7-.32s.13-.35,0-.21c-.28.32-.6.29-.66.09a.46.46,0,0,1,.15-.54.26.26,0,0,1,.14-.49c.59-.06.68-.44.67-.56" style="fill:#b73336"/><path d="M5.1,87.2c0-.15.06-.3.16-.24s0,.19,0,.23.08-.07.12,0,0,.19-.06.38a1.11,1.11,0,0,0-.12.74c0-.32.25-.51.35-.42a.29.29,0,0,1,0,.38c.08,0,.12.05.14.12s0,.18-.13.31a.71.71,0,0,0-.32.44c0,.11,0,.14,0,0,.13-.3.25-.31.32-.29s.12.15.07.25a.19.19,0,0,1,.28.14c0,.2-.08.3-.27.32.11.09,0,.27-.13.28s-.28.08-.36.16-.07.18,0,.11.31-.15.34,0a.23.23,0,0,1-.08.28.13.13,0,0,1-.07.25c-.3,0-.34.22-.34.28" style="fill:#b73336"/><path d="M5.08,87.2c0-.15-.06-.3-.16-.24s0,.19,0,.23-.08-.07-.11,0,0,.19.06.38a1.11,1.11,0,0,1,.12.74c0-.32-.26-.51-.36-.42a.32.32,0,0,0,0,.38c-.07,0-.12.05-.13.12a.29.29,0,0,0,.12.31.79.79,0,0,1,.33.44c0,.11,0,.14-.06,0-.13-.3-.25-.31-.32-.29s-.12.15-.07.25c-.14-.05-.23,0-.27.14s.07.3.27.32c-.11.09-.05.27.13.28s.28.08.35.16.07.18,0,.11-.3-.15-.34,0a.24.24,0,0,0,.08.28.13.13,0,0,0,.07.25c.31,0,.35.22.34.28" style="fill:#b73336"/><line x1="5.1" y1="84.19" x2="5.1" y2="69.25" style="fill:none;stroke:#b73336;stroke-width:0.30000000447034836px"/><path d="M5.1,75.22C5,75,4.86,75,4.76,75.09a.5.5,0,0,0-.09.54c-.09,0-.16.11-.19.2a.32.32,0,0,0,.12.4.65.65,0,0,1,.34.68.29.29,0,0,0,.16,0,.26.26,0,0,0,.15,0,.65.65,0,0,1,.34-.68.33.33,0,0,0,.13-.4c0-.09-.11-.22-.2-.2a.48.48,0,0,0-.09-.54C5.33,75,5.18,75,5.1,75.22Z" style="fill:#b73336"/><path d="M5.11,84.37c0,.31.12.6.32.48s.06-.37,0-.46c0,.06.15.14.23.07s0-.38-.13-.75a2.21,2.21,0,0,1-.23-1.44c.09.63.5,1,.7.81a.6.6,0,0,0,0-.74c.15,0,.24-.1.26-.23s0-.36-.25-.61a1.53,1.53,0,0,1-.63-.86c-.09-.21.06-.29.11-.1.25.59.49.61.63.58s.23-.31.14-.5c.27.09.45,0,.53-.28s-.15-.58-.53-.62c.22-.17.1-.53-.25-.55-.52,0-.55-.16-.7-.32s-.14-.35,0-.2c.29.31.6.29.67.08a.45.45,0,0,0-.15-.53.26.26,0,0,0-.15-.49c-.59-.06-.67-.45-.66-.56" style="fill:#b73336"/><path d="M5.08,84.37c0,.31-.12.6-.32.48s0-.37,0-.46c0,.06-.15.14-.22.07s0-.38.12-.75a2.15,2.15,0,0,0,.23-1.44c-.08.63-.49,1-.69.81a.59.59,0,0,1,0-.74c-.14,0-.23-.1-.26-.23a.59.59,0,0,1,.25-.61,1.48,1.48,0,0,0,.63-.86c.09-.21,0-.29-.1-.1-.26.59-.49.61-.63.58s-.23-.31-.14-.5a.36.36,0,0,1-.54-.28c-.08-.39.16-.58.53-.62-.21-.17-.1-.53.26-.55.52,0,.55-.16.7-.32s.13-.35,0-.2c-.28.31-.6.29-.66.08a.44.44,0,0,1,.15-.53.26.26,0,0,1,.14-.49c.59-.06.68-.45.67-.56" style="fill:#b73336"/><path d="M5.1,71.58c0-.16.06-.3.16-.24s0,.18,0,.23.08-.07.12,0,0,.2-.06.38a1.11,1.11,0,0,0-.12.74c0-.32.25-.5.35-.41a.29.29,0,0,1,0,.38c.08,0,.12,0,.14.11a.29.29,0,0,1-.13.31.74.74,0,0,0-.32.44c0,.11,0,.15,0,.06.13-.31.25-.32.32-.3s.12.16.07.26a.19.19,0,0,1,.28.14c0,.2-.08.3-.27.31.11.09,0,.27-.13.28s-.28.09-.36.17-.07.17,0,.1.31-.15.34,0a.22.22,0,0,1-.08.27A.13.13,0,0,1,5.4,75c-.3,0-.34.23-.34.29" style="fill:#b73336"/><path d="M5.08,71.58c0-.16-.06-.3-.16-.24s0,.18,0,.23-.08-.07-.11,0,0,.2.06.38a1.11,1.11,0,0,1,.12.74c0-.32-.26-.5-.36-.41a.32.32,0,0,0,0,.38c-.07,0-.12,0-.13.11A.28.28,0,0,0,4.6,73a.82.82,0,0,1,.33.44c0,.11,0,.15-.06.06-.13-.31-.25-.32-.32-.3s-.12.16-.07.26c-.14,0-.23,0-.27.14s.07.3.27.31c-.11.09-.05.27.13.28s.28.09.35.17.07.17,0,.1-.3-.15-.34,0a.23.23,0,0,0,.08.27.13.13,0,0,0,.07.25c.31,0,.35.23.34.29" style="fill:#b73336"/><line x1="5.1" y1="68.56" x2="5.1" y2="53.62" style="fill:none;stroke:#b73336;stroke-width:0.30000000447034836px"/><path d="M5.1,59.59c-.09-.18-.24-.23-.34-.12a.48.48,0,0,0-.09.53c-.09,0-.16.11-.19.21a.31.31,0,0,0,.12.39.66.66,0,0,1,.34.69h.31a.66.66,0,0,1,.34-.69.32.32,0,0,0,.13-.39c0-.1-.11-.22-.2-.21a.47.47,0,0,0-.09-.53C5.33,59.36,5.18,59.41,5.1,59.59Z" style="fill:#b73336"/><path d="M5.11,68.75c0,.3.12.59.32.47s.06-.36,0-.46c0,.07.15.15.23.07s0-.37-.13-.74a2.25,2.25,0,0,1-.23-1.45c.09.63.5,1,.7.82a.62.62,0,0,0,0-.75c.15.06.24-.1.26-.23a.54.54,0,0,0-.25-.6A1.52,1.52,0,0,1,5.42,65c-.09-.21.06-.28.11-.1.25.59.49.62.63.58s.23-.31.14-.5c.27.09.45,0,.53-.27s-.15-.59-.53-.62c.22-.17.1-.53-.25-.55-.52,0-.55-.17-.7-.32s-.14-.35,0-.21c.29.32.6.29.67.09a.47.47,0,0,0-.15-.54.26.26,0,0,0-.15-.49C5.11,62,5,61.64,5,61.52" style="fill:#b73336"/><path d="M5.08,68.75c0,.3-.12.59-.32.47s0-.36,0-.46c0,.07-.15.15-.22.07s0-.37.12-.74a2.19,2.19,0,0,0,.23-1.45c-.08.63-.49,1-.69.82a.61.61,0,0,1,0-.75c-.14.06-.23-.1-.26-.23a.57.57,0,0,1,.25-.6A1.47,1.47,0,0,0,4.77,65c.09-.21,0-.28-.1-.1-.26.59-.49.62-.63.58s-.23-.31-.14-.5c-.27.09-.45,0-.54-.27s.16-.59.53-.62c-.21-.17-.1-.53.26-.55.52,0,.55-.17.7-.32s.13-.35,0-.21c-.28.32-.6.29-.66.09a.46.46,0,0,1,.15-.54.26.26,0,0,1,.14-.49c.59-.06.68-.44.67-.56" style="fill:#b73336"/><path d="M5.1,56c0-.15.06-.3.16-.24s0,.19,0,.23.08-.07.12,0,0,.19-.06.38A1.11,1.11,0,0,0,5.2,57c0-.32.25-.51.35-.42a.29.29,0,0,1,0,.38c.08,0,.12,0,.14.12s0,.18-.13.31a.71.71,0,0,0-.32.44c0,.11,0,.14,0,0,.13-.3.25-.31.32-.29s.12.15.07.25A.19.19,0,0,1,6,58c0,.2-.08.3-.27.32.11.08,0,.27-.13.28s-.28.08-.36.16-.07.18,0,.11.31-.15.34-.05a.23.23,0,0,1-.08.28.13.13,0,0,1-.07.25c-.3,0-.34.22-.34.28" style="fill:#b73336"/><path d="M5.08,56c0-.15-.06-.3-.16-.24s0,.19,0,.23-.08-.07-.11,0,0,.19.06.38A1.11,1.11,0,0,1,5,57c0-.32-.26-.51-.36-.42a.32.32,0,0,0,0,.38c-.07,0-.12,0-.13.12a.29.29,0,0,0,.12.31.79.79,0,0,1,.33.44c0,.11,0,.14-.06,0-.13-.3-.25-.31-.32-.29s-.12.15-.07.25c-.14,0-.23,0-.27.14s.07.3.27.32c-.11.08-.05.27.13.28s.28.08.35.16S5,59,5,58.88s-.3-.15-.34-.05a.24.24,0,0,0,.08.28.13.13,0,0,0,.07.25c.31,0,.35.22.34.28" style="fill:#b73336"/><line x1="5.1" y1="52.94" x2="5.1" y2="38" style="fill:none;stroke:#b73336;stroke-width:0.30000000447034836px"/><path d="M5.1,44c-.09-.18-.24-.24-.34-.13a.5.5,0,0,0-.09.54c-.09,0-.16.11-.19.2a.32.32,0,0,0,.12.4.65.65,0,0,1,.34.68.29.29,0,0,0,.16,0,.26.26,0,0,0,.15,0A.65.65,0,0,1,5.59,45a.33.33,0,0,0,.13-.4c0-.09-.11-.22-.2-.2a.48.48,0,0,0-.09-.54C5.33,43.73,5.18,43.79,5.1,44Z" style="fill:#b73336"/><path d="M5.11,53.12c0,.3.12.6.32.48s.06-.37,0-.46.15.14.23.07,0-.38-.13-.75A2.21,2.21,0,0,1,5.3,51c.09.63.5,1,.7.81a.6.6,0,0,0,0-.74c.15,0,.24-.1.26-.23s0-.36-.25-.61a1.53,1.53,0,0,1-.63-.86c-.09-.21.06-.29.11-.1.25.59.49.61.63.58s.23-.31.14-.5c.27.09.45,0,.53-.28s-.15-.58-.53-.62c.22-.17.1-.53-.25-.55-.52,0-.55-.16-.7-.32s-.14-.35,0-.2c.29.31.6.29.67.08A.45.45,0,0,0,5.85,47a.26.26,0,0,0-.15-.49C5.11,46.4,5,46,5,45.9" style="fill:#b73336"/><path d="M5.08,53.12c0,.3-.12.6-.32.48s0-.37,0-.46-.15.14-.22.07,0-.38.12-.75A2.15,2.15,0,0,0,4.89,51c-.08.63-.49,1-.69.81a.59.59,0,0,1,0-.74c-.14,0-.23-.1-.26-.23a.59.59,0,0,1,.25-.61,1.48,1.48,0,0,0,.63-.86c.09-.21,0-.29-.1-.1-.26.59-.49.61-.63.58s-.23-.31-.14-.5a.36.36,0,0,1-.54-.28c-.08-.39.16-.58.53-.62-.21-.17-.1-.53.26-.55.52,0,.55-.16.7-.32s.13-.35,0-.2c-.28.31-.6.29-.66.08A.44.44,0,0,1,4.35,47a.26.26,0,0,1,.14-.49c.59-.06.68-.45.67-.56" style="fill:#b73336"/><path d="M5.1,40.33c0-.16.06-.31.16-.25s0,.19,0,.24.08-.07.12,0,0,.2-.06.38a1.11,1.11,0,0,0-.12.74c0-.32.25-.5.35-.41a.29.29,0,0,1,0,.38c.08,0,.12.05.14.11a.29.29,0,0,1-.13.31.74.74,0,0,0-.32.44c0,.11,0,.15,0,.06.13-.31.25-.32.32-.3s.12.16.07.26a.19.19,0,0,1,.28.14c0,.19-.08.29-.27.31.11.09,0,.27-.13.28s-.28.09-.36.17-.07.17,0,.1.31-.15.34,0a.22.22,0,0,1-.08.27.13.13,0,0,1-.07.25c-.3,0-.34.23-.34.29" style="fill:#b73336"/><path d="M5.08,40.33c0-.16-.06-.31-.16-.25s0,.19,0,.24-.08-.07-.11,0,0,.2.06.38A1.11,1.11,0,0,1,5,41.4c0-.32-.26-.5-.36-.41a.32.32,0,0,0,0,.38c-.07,0-.12.05-.13.11a.28.28,0,0,0,.12.31.82.82,0,0,1,.33.44c0,.11,0,.15-.06.06C4.74,42,4.62,42,4.55,42s-.12.16-.07.26c-.14,0-.23,0-.27.14s.07.29.27.31c-.11.09-.05.27.13.28s.28.09.35.17.07.17,0,.1-.3-.15-.34,0a.23.23,0,0,0,.08.27.13.13,0,0,0,.07.25c.31,0,.35.23.34.29" style="fill:#b73336"/><line x1="5.1" y1="37.31" x2="5.1" y2="22.37" style="fill:none;stroke:#b73336;stroke-width:0.30000000447034836px"/><path d="M5.1,28.34c-.09-.18-.24-.23-.34-.12a.48.48,0,0,0-.09.53c-.09,0-.16.11-.19.21a.31.31,0,0,0,.12.39.66.66,0,0,1,.34.69h.31a.66.66,0,0,1,.34-.69A.32.32,0,0,0,5.72,29c0-.1-.11-.22-.2-.21a.47.47,0,0,0-.09-.53C5.33,28.11,5.18,28.16,5.1,28.34Z" style="fill:#b73336"/><path d="M5.11,37.49c0,.31.12.6.32.48s.06-.36,0-.46c0,.07.15.15.23.07s0-.37-.13-.74a2.25,2.25,0,0,1-.23-1.45c.09.63.5,1,.7.82a.62.62,0,0,0,0-.75c.15.06.24-.1.26-.23s0-.36-.25-.61a1.47,1.47,0,0,1-.63-.86c-.09-.21.06-.28.11-.1.25.59.49.62.63.58s.23-.31.14-.5c.27.09.45,0,.53-.27s-.15-.59-.53-.62c.22-.17.1-.53-.25-.55-.52,0-.55-.17-.7-.32s-.14-.35,0-.21c.29.32.6.29.67.09a.47.47,0,0,0-.15-.54.26.26,0,0,0-.15-.49c-.59-.06-.67-.44-.66-.56" style="fill:#b73336"/><path d="M5.08,37.49c0,.31-.12.6-.32.48s0-.36,0-.46c0,.07-.15.15-.22.07s0-.37.12-.74a2.19,2.19,0,0,0,.23-1.45c-.08.63-.49,1-.69.82a.61.61,0,0,1,0-.75c-.14.06-.23-.1-.26-.23a.59.59,0,0,1,.25-.61,1.43,1.43,0,0,0,.63-.86c.09-.21,0-.28-.1-.1-.26.59-.49.62-.63.58s-.23-.31-.14-.5c-.27.09-.45,0-.54-.27s.16-.59.53-.62c-.21-.17-.1-.53.26-.55.52,0,.55-.17.7-.32s.13-.35,0-.21c-.28.32-.6.29-.66.09a.46.46,0,0,1,.15-.54.26.26,0,0,1,.14-.49c.59-.06.68-.44.67-.56" style="fill:#b73336"/><path d="M5.1,24.7c0-.15.06-.3.16-.24s0,.19,0,.23.08-.07.12,0,0,.19-.06.38a1.11,1.11,0,0,0-.12.74c0-.32.25-.51.35-.42a.29.29,0,0,1,0,.38c.08,0,.12.05.14.12s0,.18-.13.31a.71.71,0,0,0-.32.44c0,.11,0,.14,0,.05.13-.3.25-.31.32-.3s.12.16.07.26a.19.19,0,0,1,.28.14c0,.2-.08.3-.27.32.11.08,0,.27-.13.28s-.28.08-.36.16-.07.18,0,.11.31-.15.34-.05a.23.23,0,0,1-.08.28.13.13,0,0,1-.07.25c-.3,0-.34.22-.34.28" style="fill:#b73336"/><path d="M5.08,24.7c0-.15-.06-.3-.16-.24s0,.19,0,.23-.08-.07-.11,0,0,.19.06.38a1.11,1.11,0,0,1,.12.74c0-.32-.26-.51-.36-.42a.32.32,0,0,0,0,.38c-.07,0-.12.05-.13.12a.29.29,0,0,0,.12.31.79.79,0,0,1,.33.44c0,.11,0,.14-.06.05-.13-.3-.25-.31-.32-.3s-.12.16-.07.26c-.14-.05-.23,0-.27.14s.07.3.27.32c-.11.08-.05.27.13.28s.28.08.35.16.07.18,0,.11-.3-.15-.34-.05a.24.24,0,0,0,.08.28.13.13,0,0,0,.07.25c.31,0,.35.22.34.28" style="fill:#b73336"/><line x1="5.1" y1="21.69" x2="5.1" y2="6.75" style="fill:none;stroke:#b73336;stroke-width:0.30000000447034836px"/><path d="M5.1,12.72c-.09-.18-.24-.24-.34-.13a.5.5,0,0,0-.09.54c-.09,0-.16.11-.19.2a.32.32,0,0,0,.12.4.65.65,0,0,1,.34.68.29.29,0,0,0,.16,0,.26.26,0,0,0,.15,0,.65.65,0,0,1,.34-.68.33.33,0,0,0,.13-.4c0-.09-.11-.22-.2-.2a.48.48,0,0,0-.09-.54C5.33,12.48,5.18,12.54,5.1,12.72Z" style="fill:#b73336"/><path d="M5.11,21.87c0,.3.12.6.32.48s.06-.37,0-.46.15.14.23.07,0-.38-.13-.75a2.21,2.21,0,0,1-.23-1.44c.09.63.5,1,.7.81a.6.6,0,0,0,0-.74c.15.05.24-.1.26-.23s0-.36-.25-.61a1.53,1.53,0,0,1-.63-.86c-.09-.21.06-.29.11-.1.25.59.49.61.63.58s.23-.31.14-.5c.27.09.45,0,.53-.28s-.15-.58-.53-.62c.22-.17.1-.53-.25-.55-.52,0-.55-.16-.7-.32s-.14-.35,0-.2c.29.31.6.29.67.08a.45.45,0,0,0-.15-.53.26.26,0,0,0-.15-.49c-.59-.06-.67-.45-.66-.56" style="fill:#b73336"/><path d="M5.08,21.87c0,.3-.12.6-.32.48s0-.37,0-.46-.15.14-.22.07,0-.38.12-.75a2.15,2.15,0,0,0,.23-1.44c-.08.63-.49,1-.69.81a.59.59,0,0,1,0-.74c-.14.05-.23-.1-.26-.23A.59.59,0,0,1,4.14,19a1.48,1.48,0,0,0,.63-.86c.09-.21,0-.29-.1-.1-.26.59-.49.61-.63.58s-.23-.31-.14-.5a.36.36,0,0,1-.54-.28c-.08-.39.16-.58.53-.62-.21-.17-.1-.53.26-.55.52,0,.55-.16.7-.32s.13-.35,0-.2c-.28.31-.6.29-.66.08a.44.44,0,0,1,.15-.53.26.26,0,0,1,.14-.49c.59-.06.68-.45.67-.56" style="fill:#b73336"/><path d="M5.1,9.08c0-.16.06-.31.16-.25s0,.19,0,.24.08-.07.12,0,0,.2-.06.38a1.11,1.11,0,0,0-.12.74c0-.32.25-.5.35-.41a.29.29,0,0,1,0,.38c.08,0,.12.05.14.11a.29.29,0,0,1-.13.31.74.74,0,0,0-.32.44c0,.11,0,.15,0,.06.13-.31.25-.32.32-.3s.12.16.07.26c.14-.05.23,0,.28.13s-.08.3-.27.32c.11.09,0,.27-.13.28s-.28.09-.36.17-.07.17,0,.1.31-.15.34,0a.22.22,0,0,1-.08.27.13.13,0,0,1-.07.25c-.3,0-.34.23-.34.29" style="fill:#b73336"/><path d="M5.08,9.08c0-.16-.06-.31-.16-.25s0,.19,0,.24S4.84,9,4.81,9s0,.2.06.38a1.11,1.11,0,0,1,.12.74c0-.32-.26-.5-.36-.41a.32.32,0,0,0,0,.38c-.07,0-.12.05-.13.11a.28.28,0,0,0,.12.31.82.82,0,0,1,.33.44c0,.11,0,.15-.06.06-.13-.31-.25-.32-.32-.3s-.12.16-.07.26c-.14-.05-.23,0-.27.13s.07.3.27.32c-.11.09-.05.27.13.28s.28.09.35.17.07.17,0,.1-.3-.15-.34,0a.23.23,0,0,0,.08.27.13.13,0,0,0,.07.25c.31,0,.35.23.34.29" style="fill:#b73336"/><line x1="7.53" y1="5" x2="22.38" y2="5" style="fill:none;stroke:#b73336;stroke-width:0.30000000447034836px"/><path d="M16.45,5c.18-.09.23-.23.12-.33A.45.45,0,0,0,16,4.58c0-.1-.11-.17-.21-.2a.31.31,0,0,0-.39.12.64.64,0,0,1-.68.34.45.45,0,0,0,0,.16.38.38,0,0,0,0,.15.66.66,0,0,1,.68.35.31.31,0,0,0,.39.12c.1,0,.22-.1.21-.2a.45.45,0,0,0,.53-.09C16.68,5.23,16.63,5.09,16.45,5Z" style="fill:#b73336"/><path d="M7.35,5c-.31,0-.59.11-.48.32s.36,0,.46,0c-.07,0-.14.14-.07.22s.37,0,.74-.12a2.15,2.15,0,0,1,1.44-.23c-.63.08-1,.49-.81.69a.59.59,0,0,0,.74,0c-.06.15.1.24.23.27A.58.58,0,0,0,10.2,6a1.49,1.49,0,0,1,.86-.64c.21-.08.28.06.1.11-.59.26-.61.49-.58.63s.31.23.5.14c-.09.27,0,.45.27.53s.58-.15.62-.53c.17.22.53.1.54-.25,0-.52.17-.55.32-.7s.35-.13.21,0c-.32.29-.29.6-.09.67a.47.47,0,0,0,.54-.15A.25.25,0,0,0,14,5.6c.06-.59.44-.67.56-.66" style="fill:#b73336"/><path d="M7.35,5c-.31,0-.59-.11-.48-.32s.36,0,.46,0c-.07,0-.14-.14-.07-.22s.37,0,.74.12a2.15,2.15,0,0,0,1.44.23c-.63-.08-1-.49-.81-.69a.59.59,0,0,1,.74,0c-.06-.15.1-.24.23-.27a.58.58,0,0,1,.6.25,1.49,1.49,0,0,0,.86.64c.21.08.28-.06.1-.11-.59-.26-.61-.49-.58-.63s.31-.23.5-.14c-.09-.27,0-.45.27-.53s.58.15.62.53c.17-.22.53-.1.54.25,0,.52.17.55.32.7s.35.13.21,0c-.32-.29-.29-.6-.09-.67a.47.47,0,0,1,.54.15A.25.25,0,0,1,14,4.4c.06.59.44.67.56.66" style="fill:#b73336"/><path d="M20.06,5c.16,0,.3.06.24.17s-.18,0-.23,0,.07.07,0,.11-.19,0-.38-.06A1.11,1.11,0,0,0,19,5.1c.32,0,.51.25.42.35a.31.31,0,0,1-.38,0c0,.07-.05.12-.12.13s-.18,0-.3-.13a.79.79,0,0,0-.44-.32c-.11,0-.15,0-.05,0,.3.14.31.25.29.33s-.16.11-.25.07a.19.19,0,0,1-.14.27c-.2,0-.3-.08-.32-.27-.08.11-.27,0-.28-.13s-.08-.28-.16-.36-.18-.07-.1,0,.14.31,0,.35a.25.25,0,0,1-.27-.08.13.13,0,0,1-.25-.08c0-.3-.23-.34-.28-.34" style="fill:#b73336"/><path d="M20.06,5c.16,0,.3-.06.24-.17s-.18,0-.23,0,.07-.07,0-.11-.19,0-.38.06a1.11,1.11,0,0,1-.74.12c.32,0,.51-.25.42-.35a.31.31,0,0,0-.38,0c0-.07-.05-.12-.12-.13s-.18,0-.3.13a.79.79,0,0,1-.44.32c-.11,0-.15,0-.05,0,.3-.14.31-.25.29-.33s-.16-.11-.25-.07c0-.14,0-.23-.14-.27s-.3.08-.32.27c-.08-.11-.27,0-.28.13a.38.38,0,0,1-.16.36c-.08.07-.18.07-.1,0s.14-.31,0-.35a.25.25,0,0,0-.27.08.13.13,0,0,0-.25.08c0,.3-.23.34-.28.34" style="fill:#b73336"/><line x1="23.06" y1="5" x2="37.91" y2="5" style="fill:none;stroke:#b73336;stroke-width:0.30000000447034836px"/><path d="M32,5c.18-.09.23-.23.12-.33a.45.45,0,0,0-.53-.09c0-.1-.11-.17-.21-.2A.31.31,0,0,0,31,4.5a.64.64,0,0,1-.68.34.92.92,0,0,0,0,.16.76.76,0,0,0,0,.15A.66.66,0,0,1,31,5.5a.31.31,0,0,0,.39.12c.1,0,.22-.1.21-.2a.45.45,0,0,0,.53-.09C32.21,5.23,32.16,5.09,32,5Z" style="fill:#b73336"/><path d="M22.88,5c-.3,0-.59.11-.48.32s.36,0,.46,0c-.07,0-.14.14-.07.22s.38,0,.74-.12A2.15,2.15,0,0,1,25,5.21c-.63.08-1,.49-.81.69a.59.59,0,0,0,.74,0c-.06.15.1.24.23.27a.58.58,0,0,0,.6-.25,1.49,1.49,0,0,1,.86-.64c.21-.08.28.06.1.11-.59.26-.61.49-.58.63s.31.23.5.14c-.09.27,0,.45.27.53s.58-.15.62-.53c.17.22.53.1.54-.25,0-.52.17-.55.32-.7s.35-.13.21,0c-.32.29-.29.6-.09.67A.47.47,0,0,0,29,5.75a.25.25,0,0,0,.48-.15c.06-.59.44-.67.56-.66" style="fill:#b73336"/><path d="M22.88,5c-.3,0-.59-.11-.48-.32s.36,0,.46,0c-.07,0-.14-.14-.07-.22s.38,0,.74.12A2.15,2.15,0,0,0,25,4.79c-.63-.08-1-.49-.81-.69a.59.59,0,0,1,.74,0c-.06-.15.1-.24.23-.27a.58.58,0,0,1,.6.25,1.49,1.49,0,0,0,.86.64c.21.08.28-.06.1-.11-.59-.26-.61-.49-.58-.63s.31-.23.5-.14c-.09-.27,0-.45.27-.53s.58.15.62.53c.17-.22.53-.1.54.25,0,.52.17.55.32.7s.35.13.21,0c-.32-.29-.29-.6-.09-.67a.47.47,0,0,1,.54.15.25.25,0,0,1,.48.15c.06.59.44.67.56.66" style="fill:#b73336"/><path d="M35.59,5c.16,0,.3.06.25.17s-.19,0-.24,0a.08.08,0,0,1,0,.11c0,.06-.19,0-.38-.06a1.11,1.11,0,0,0-.74-.12c.32,0,.51.25.42.35a.31.31,0,0,1-.38,0c0,.07-.05.12-.11.13a.28.28,0,0,1-.31-.13.79.79,0,0,0-.44-.32c-.11,0-.15,0-.05,0,.3.14.31.25.29.33s-.16.11-.25.07a.19.19,0,0,1-.14.27c-.2,0-.3-.08-.32-.27-.08.11-.27,0-.28-.13s-.08-.28-.16-.36-.17-.07-.1,0,.15.31,0,.35a.25.25,0,0,1-.27-.08.13.13,0,0,1-.25-.08C32.18,5,32,5,31.93,5" style="fill:#b73336"/><path d="M35.59,5c.16,0,.3-.06.25-.17s-.19,0-.24,0a.08.08,0,0,0,0-.11c0-.06-.19,0-.38.06a1.11,1.11,0,0,1-.74.12c.32,0,.51-.25.42-.35a.31.31,0,0,0-.38,0c0-.07-.05-.12-.11-.13a.28.28,0,0,0-.31.13.79.79,0,0,1-.44.32c-.11,0-.15,0-.05,0,.3-.14.31-.25.29-.33s-.16-.11-.25-.07c0-.14,0-.23-.14-.27s-.3.08-.32.27c-.08-.11-.27,0-.28.13a.38.38,0,0,1-.16.36c-.08.07-.17.07-.1,0s.15-.31,0-.35a.25.25,0,0,0-.27.08.13.13,0,0,0-.25.08c0,.3-.23.34-.28.34" style="fill:#b73336"/><line x1="38.59" y1="5" x2="53.44" y2="5" style="fill:none;stroke:#b73336;stroke-width:0.30000000447034836px"/><path d="M47.51,5c.18-.09.23-.23.12-.33a.45.45,0,0,0-.53-.09c0-.1-.11-.17-.21-.2a.31.31,0,0,0-.39.12.64.64,0,0,1-.68.34.92.92,0,0,0,0,.16.76.76,0,0,0,0,.15.66.66,0,0,1,.68.35.31.31,0,0,0,.39.12c.1,0,.22-.1.21-.2a.45.45,0,0,0,.53-.09C47.74,5.23,47.69,5.09,47.51,5Z" style="fill:#b73336"/><path d="M38.41,5c-.3,0-.59.11-.48.32s.37,0,.46,0c-.06,0-.14.14-.07.22s.38,0,.74-.12a2.15,2.15,0,0,1,1.44-.23c-.63.08-1,.49-.81.69a.59.59,0,0,0,.74,0c0,.15.1.24.23.27a.58.58,0,0,0,.6-.25,1.49,1.49,0,0,1,.86-.64c.21-.08.28.06.1.11-.59.26-.61.49-.58.63s.31.23.5.14c-.09.27,0,.45.27.53S43,6.58,43,6.2c.17.22.53.1.55-.25,0-.52.16-.55.31-.7s.35-.13.21,0c-.32.29-.29.6-.09.67a.47.47,0,0,0,.54-.15A.25.25,0,0,0,45,5.6c.06-.59.44-.67.56-.66" style="fill:#b73336"/><path d="M38.41,5c-.3,0-.59-.11-.48-.32s.37,0,.46,0c-.06,0-.14-.14-.07-.22s.38,0,.74.12a2.15,2.15,0,0,0,1.44.23c-.63-.08-1-.49-.81-.69a.59.59,0,0,1,.74,0c0-.15.1-.24.23-.27a.58.58,0,0,1,.6.25,1.49,1.49,0,0,0,.86.64c.21.08.28-.06.1-.11-.59-.26-.61-.49-.58-.63s.31-.23.5-.14c-.09-.27,0-.45.27-.53s.59.15.62.53c.17-.22.53-.1.55.25,0,.52.16.55.31.7s.35.13.21,0c-.32-.29-.29-.6-.09-.67a.47.47,0,0,1,.54.15A.25.25,0,0,1,45,4.4c.06.59.44.67.56.66" style="fill:#b73336"/><path d="M51.12,5c.16,0,.31.06.25.17s-.19,0-.24,0a.08.08,0,0,1,0,.11c-.05.06-.19,0-.38-.06a1.09,1.09,0,0,0-.73-.12c.32,0,.5.25.41.35a.31.31,0,0,1-.38,0c0,.07-.05.12-.11.13a.28.28,0,0,1-.31-.13.79.79,0,0,0-.44-.32c-.11,0-.14,0,0,0,.3.14.31.25.29.33s-.16.11-.25.07a.19.19,0,0,1-.14.27c-.2,0-.3-.08-.32-.27-.08.11-.27,0-.27-.13s-.09-.28-.17-.36-.17-.07-.1,0,.15.31,0,.35A.25.25,0,0,1,48,5.38a.13.13,0,0,1-.25-.08c0-.3-.22-.34-.28-.34" style="fill:#b73336"/><path d="M51.12,5c.16,0,.31-.06.25-.17s-.19,0-.24,0a.08.08,0,0,0,0-.11c-.05-.06-.19,0-.38.06a1.09,1.09,0,0,1-.73.12c.32,0,.5-.25.41-.35a.31.31,0,0,0-.38,0c0-.07-.05-.12-.11-.13a.28.28,0,0,0-.31.13.79.79,0,0,1-.44.32c-.11,0-.14,0,0,0,.3-.14.31-.25.29-.33s-.16-.11-.25-.07c0-.14,0-.23-.14-.27s-.3.08-.32.27c-.08-.11-.27,0-.27.13a.4.4,0,0,1-.17.36c-.08.07-.17.07-.1,0s.15-.31,0-.35a.25.25,0,0,0-.27.08.13.13,0,0,0-.25.08c0,.3-.22.34-.28.34" style="fill:#b73336"/><line x1="54.12" y1="5" x2="68.97" y2="5" style="fill:none;stroke:#b73336;stroke-width:0.30000000447034836px"/><path d="M63,5c.18-.09.23-.23.12-.33a.45.45,0,0,0-.53-.09c0-.1-.11-.17-.21-.2A.31.31,0,0,0,62,4.5a.64.64,0,0,1-.68.34.92.92,0,0,0,0,.16.76.76,0,0,0,0,.15A.66.66,0,0,1,62,5.5a.31.31,0,0,0,.39.12c.1,0,.22-.1.21-.2a.45.45,0,0,0,.53-.09C63.27,5.23,63.22,5.09,63,5Z" style="fill:#b73336"/><path d="M53.94,5c-.3,0-.59.11-.47.32s.36,0,.45,0c-.06,0-.14.14-.07.22s.38,0,.74-.12A2.15,2.15,0,0,1,56,5.21c-.62.08-1,.49-.81.69a.59.59,0,0,0,.74,0c-.05.15.1.24.23.27a.57.57,0,0,0,.6-.25,1.49,1.49,0,0,1,.86-.64c.21-.08.28.06.1.11-.59.26-.61.49-.58.63s.31.23.5.14c-.09.27,0,.45.27.53s.59-.15.62-.53c.17.22.53.1.55-.25,0-.52.16-.55.31-.7s.35-.13.21,0c-.32.29-.29.6-.09.67a.47.47,0,0,0,.54-.15.25.25,0,0,0,.48-.15c.06-.59.45-.67.56-.66" style="fill:#b73336"/><path d="M53.94,5c-.3,0-.59-.11-.47-.32s.36,0,.45,0c-.06,0-.14-.14-.07-.22s.38,0,.74.12A2.15,2.15,0,0,0,56,4.79c-.62-.08-1-.49-.81-.69a.59.59,0,0,1,.74,0c-.05-.15.1-.24.23-.27a.57.57,0,0,1,.6.25,1.49,1.49,0,0,0,.86.64c.21.08.28-.06.1-.11-.59-.26-.61-.49-.58-.63s.31-.23.5-.14c-.09-.27,0-.45.27-.53s.59.15.62.53c.17-.22.53-.1.55.25,0,.52.16.55.31.7s.35.13.21,0c-.32-.29-.29-.6-.09-.67a.47.47,0,0,1,.54.15.25.25,0,0,1,.48.15c.06.59.45.67.56.66" style="fill:#b73336"/><path d="M66.65,5c.16,0,.31.06.25.17s-.19,0-.24,0,.08.07,0,.11-.19,0-.38-.06a1.09,1.09,0,0,0-.73-.12c.32,0,.5.25.41.35a.31.31,0,0,1-.38,0c0,.07-.05.12-.11.13a.28.28,0,0,1-.31-.13.79.79,0,0,0-.44-.32c-.11,0-.14,0-.05,0,.3.14.31.25.29.33s-.15.11-.25.07a.18.18,0,0,1-.14.27c-.2,0-.3-.08-.32-.27-.08.11-.26,0-.27-.13s-.09-.28-.17-.36-.17-.07-.1,0,.15.31,0,.35a.25.25,0,0,1-.27-.08.13.13,0,0,1-.25-.08C63.24,5,63.05,5,63,5" style="fill:#b73336"/><path d="M66.65,5c.16,0,.31-.06.25-.17s-.19,0-.24,0,.08-.07,0-.11-.19,0-.38.06a1.09,1.09,0,0,1-.73.12c.32,0,.5-.25.41-.35a.31.31,0,0,0-.38,0c0-.07-.05-.12-.11-.13a.28.28,0,0,0-.31.13.79.79,0,0,1-.44.32c-.11,0-.14,0-.05,0,.3-.14.31-.25.29-.33s-.15-.11-.25-.07c0-.14,0-.23-.14-.27s-.3.08-.32.27c-.08-.11-.26,0-.27.13a.4.4,0,0,1-.17.36c-.08.07-.17.07-.1,0s.15-.31,0-.35a.25.25,0,0,0-.27.08.13.13,0,0,0-.25.08c0,.3-.22.34-.28.34" style="fill:#b73336"/><line x1="69.65" y1="5" x2="84.5" y2="5" style="fill:none;stroke:#b73336;stroke-width:0.30000000447034836px"/><path d="M78.57,5c.18-.09.23-.23.12-.33a.45.45,0,0,0-.53-.09c0-.1-.11-.17-.2-.2a.31.31,0,0,0-.39.12.65.65,0,0,1-.69.34.92.92,0,0,0,0,.16.76.76,0,0,0,0,.15.67.67,0,0,1,.69.35.31.31,0,0,0,.39.12c.09,0,.21-.1.2-.2a.45.45,0,0,0,.53-.09C78.8,5.23,78.75,5.09,78.57,5Z" style="fill:#b73336"/><path d="M69.47,5c-.3,0-.59.11-.47.32s.36,0,.45,0c-.06,0-.14.14-.07.22s.38,0,.74-.12a2.16,2.16,0,0,1,1.44-.23c-.62.08-1,.49-.81.69a.59.59,0,0,0,.74,0c0,.15.1.24.23.27a.57.57,0,0,0,.6-.25,1.49,1.49,0,0,1,.86-.64c.21-.08.28.06.1.11-.59.26-.61.49-.58.63s.31.23.5.14c-.09.27,0,.45.27.53s.59-.15.62-.53c.17.22.53.1.55-.25,0-.52.16-.55.32-.7s.34-.13.2,0c-.32.29-.29.6-.09.67a.47.47,0,0,0,.54-.15.25.25,0,0,0,.48-.15c.06-.59.45-.67.56-.66" style="fill:#b73336"/><path d="M69.47,5c-.3,0-.59-.11-.47-.32s.36,0,.45,0c-.06,0-.14-.14-.07-.22s.38,0,.74.12a2.16,2.16,0,0,0,1.44.23c-.62-.08-1-.49-.81-.69a.59.59,0,0,1,.74,0c0-.15.1-.24.23-.27a.57.57,0,0,1,.6.25,1.49,1.49,0,0,0,.86.64c.21.08.28-.06.1-.11-.59-.26-.61-.49-.58-.63s.31-.23.5-.14c-.09-.27,0-.45.27-.53s.59.15.62.53c.17-.22.53-.1.55.25,0,.52.16.55.32.7s.34.13.2,0c-.32-.29-.29-.6-.09-.67a.47.47,0,0,1,.54.15.25.25,0,0,1,.48.15c.06.59.45.67.56.66" style="fill:#b73336"/><path d="M82.18,5c.16,0,.31.06.25.17s-.19,0-.24,0,.08.07,0,.11-.19,0-.38-.06a1.09,1.09,0,0,0-.73-.12c.32,0,.5.25.41.35a.31.31,0,0,1-.38,0c0,.07-.05.12-.11.13a.28.28,0,0,1-.31-.13.76.76,0,0,0-.44-.32c-.11,0-.14,0-.05,0,.3.14.31.25.29.33s-.15.11-.25.07a.18.18,0,0,1-.14.27c-.2,0-.3-.08-.32-.27-.08.11-.26,0-.27-.13s-.09-.28-.17-.36-.17-.07-.1,0,.15.31,0,.35a.25.25,0,0,1-.27-.08.13.13,0,0,1-.25-.08c0-.3-.22-.34-.28-.34" style="fill:#b73336"/><path d="M82.18,5c.16,0,.31-.06.25-.17s-.19,0-.24,0,.08-.07,0-.11-.19,0-.38.06a1.09,1.09,0,0,1-.73.12c.32,0,.5-.25.41-.35a.31.31,0,0,0-.38,0c0-.07-.05-.12-.11-.13a.28.28,0,0,0-.31.13.76.76,0,0,1-.44.32c-.11,0-.14,0-.05,0,.3-.14.31-.25.29-.33s-.15-.11-.25-.07c0-.14,0-.23-.14-.27s-.3.08-.32.27c-.08-.11-.26,0-.27.13a.4.4,0,0,1-.17.36c-.07.07-.17.07-.1,0s.15-.31,0-.35a.25.25,0,0,0-.27.08.13.13,0,0,0-.25.08c0,.3-.22.34-.28.34" style="fill:#b73336"/><line x1="85.19" y1="5" x2="100.03" y2="5" style="fill:none;stroke:#b73336;stroke-width:0.30000000447034836px"/><path d="M94.1,5c.18-.09.23-.23.13-.33a.47.47,0,0,0-.54-.09c0-.1-.11-.17-.2-.2a.31.31,0,0,0-.39.12.65.65,0,0,1-.69.34.92.92,0,0,0,0,.16.76.76,0,0,0,0,.15.67.67,0,0,1,.69.35.31.31,0,0,0,.39.12c.09,0,.22-.1.2-.2a.47.47,0,0,0,.54-.09C94.33,5.23,94.28,5.09,94.1,5Z" style="fill:#b73336"/><path d="M85,5c-.3,0-.59.11-.47.32s.36,0,.45,0c-.06,0-.14.14-.07.22s.38,0,.74-.12a2.16,2.16,0,0,1,1.44-.23c-.62.08-1,.49-.81.69a.59.59,0,0,0,.74,0c0,.15.1.24.23.27a.57.57,0,0,0,.6-.25,1.52,1.52,0,0,1,.86-.64c.21-.08.28.06.1.11-.59.26-.61.49-.58.63s.31.23.5.14c-.09.27,0,.45.27.53s.59-.15.62-.53c.17.22.53.1.55-.25,0-.52.16-.55.32-.7s.34-.13.2,0c-.32.29-.29.6-.09.67a.47.47,0,0,0,.54-.15.25.25,0,0,0,.48-.15c.06-.59.45-.67.56-.66" style="fill:#b73336"/><path d="M85,5c-.3,0-.59-.11-.47-.32s.36,0,.45,0c-.06,0-.14-.14-.07-.22s.38,0,.74.12a2.16,2.16,0,0,0,1.44.23c-.62-.08-1-.49-.81-.69a.59.59,0,0,1,.74,0c0-.15.1-.24.23-.27a.57.57,0,0,1,.6.25,1.52,1.52,0,0,0,.86.64c.21.08.28-.06.1-.11-.59-.26-.61-.49-.58-.63s.31-.23.5-.14c-.09-.27,0-.45.27-.53s.59.15.62.53c.17-.22.53-.1.55.25,0,.52.16.55.32.7s.34.13.2,0c-.32-.29-.29-.6-.09-.67a.47.47,0,0,1,.54.15.25.25,0,0,1,.48.15c.06.59.45.67.56.66" style="fill:#b73336"/><path d="M97.72,5c.15,0,.3.06.24.17s-.19,0-.23,0,.07.07,0,.11-.19,0-.38-.06a1.08,1.08,0,0,0-.73-.12c.32,0,.5.25.41.35a.31.31,0,0,1-.38,0c0,.07-.05.12-.11.13a.28.28,0,0,1-.31-.13.76.76,0,0,0-.44-.32c-.11,0-.14,0,0,0,.3.14.31.25.29.33s-.15.11-.25.07a.18.18,0,0,1-.14.27c-.2,0-.3-.08-.31-.27-.09.11-.27,0-.28-.13a.41.41,0,0,0-.16-.36c-.08-.07-.18-.07-.11,0s.15.31,0,.35a.26.26,0,0,1-.28-.08.13.13,0,0,1-.25-.08c0-.3-.22-.34-.28-.34" style="fill:#b73336"/><path d="M97.72,5c.15,0,.3-.06.24-.17s-.19,0-.23,0,.07-.07,0-.11-.19,0-.38.06a1.08,1.08,0,0,1-.73.12c.32,0,.5-.25.41-.35a.31.31,0,0,0-.38,0c0-.07-.05-.12-.11-.13a.28.28,0,0,0-.31.13.76.76,0,0,1-.44.32c-.11,0-.14,0,0,0,.3-.14.31-.25.29-.33s-.15-.11-.25-.07c0-.14,0-.23-.14-.27s-.3.08-.31.27c-.09-.11-.27,0-.28.13a.43.43,0,0,1-.16.36c-.08.07-.18.07-.11,0s.15-.31,0-.35a.26.26,0,0,0-.28.08.13.13,0,0,0-.25.08c0,.3-.22.34-.28.34" style="fill:#b73336"/><line x1="100.72" y1="5" x2="115.56" y2="5" style="fill:none;stroke:#b73336;stroke-width:0.30000000447034836px"/><path d="M109.63,5c.18-.09.23-.23.13-.33a.46.46,0,0,0-.54-.09c0-.1-.11-.17-.2-.2a.31.31,0,0,0-.39.12.64.64,0,0,1-.69.34.92.92,0,0,0,0,.16.76.76,0,0,0,0,.15.67.67,0,0,1,.69.35.31.31,0,0,0,.39.12c.09,0,.22-.1.2-.2a.46.46,0,0,0,.54-.09C109.86,5.23,109.81,5.09,109.63,5Z" style="fill:#b73336"/><path d="M100.53,5c-.3,0-.59.11-.47.32s.36,0,.45,0c-.06,0-.14.14-.07.22s.38,0,.74-.12a2.17,2.17,0,0,1,1.44-.23c-.62.08-1,.49-.81.69a.59.59,0,0,0,.74,0c0,.15.1.24.23.27a.59.59,0,0,0,.61-.25,1.48,1.48,0,0,1,.85-.64c.21-.08.28.06.1.11-.59.26-.61.49-.57.63s.3.23.49.14c-.09.27,0,.45.27.53s.59-.15.62-.53c.17.22.53.1.55-.25,0-.52.16-.55.32-.7s.34-.13.2,0c-.31.29-.29.6-.09.67a.46.46,0,0,0,.54-.15.25.25,0,0,0,.48-.15c.06-.59.45-.67.56-.66" style="fill:#b73336"/><path d="M100.53,5c-.3,0-.59-.11-.47-.32s.36,0,.45,0c-.06,0-.14-.14-.07-.22s.38,0,.74.12a2.17,2.17,0,0,0,1.44.23c-.62-.08-1-.49-.81-.69a.59.59,0,0,1,.74,0c0-.15.1-.24.23-.27a.59.59,0,0,1,.61.25,1.48,1.48,0,0,0,.85.64c.21.08.28-.06.1-.11-.59-.26-.61-.49-.57-.63s.3-.23.49-.14c-.09-.27,0-.45.27-.53s.59.15.62.53c.17-.22.53-.1.55.25,0,.52.16.55.32.7s.34.13.2,0c-.31-.29-.29-.6-.09-.67a.46.46,0,0,1,.54.15.25.25,0,0,1,.48.15c.06.59.45.67.56.66" style="fill:#b73336"/><path d="M113.25,5c.15,0,.3.06.24.17s-.19,0-.23,0,.07.07,0,.11-.19,0-.38-.06a1.08,1.08,0,0,0-.73-.12c.32,0,.5.25.41.35a.31.31,0,0,1-.38,0c0,.07,0,.12-.11.13a.28.28,0,0,1-.31-.13.76.76,0,0,0-.44-.32c-.1,0-.14,0,0,0,.3.14.31.25.3.33s-.16.11-.26.07a.18.18,0,0,1-.14.27c-.2,0-.3-.08-.31-.27-.09.11-.27,0-.28-.13s-.08-.28-.16-.36-.18-.07-.11,0,.15.31,0,.35a.26.26,0,0,1-.28-.08.13.13,0,0,1-.25-.08c0-.3-.22-.34-.28-.34" style="fill:#b73336"/><path d="M113.25,5c.15,0,.3-.06.24-.17s-.19,0-.23,0,.07-.07,0-.11-.19,0-.38.06a1.08,1.08,0,0,1-.73.12c.32,0,.5-.25.41-.35a.31.31,0,0,0-.38,0c0-.07,0-.12-.11-.13a.28.28,0,0,0-.31.13.76.76,0,0,1-.44.32c-.1,0-.14,0,0,0,.3-.14.31-.25.3-.33s-.16-.11-.26-.07c0-.14,0-.23-.14-.27s-.3.08-.31.27c-.09-.11-.27,0-.28.13s-.08.28-.16.36-.18.07-.11,0,.15-.31,0-.35a.26.26,0,0,0-.28.08.13.13,0,0,0-.25.08c0,.3-.22.34-.28.34" style="fill:#b73336"/><line x1="116.25" y1="5" x2="131.09" y2="5" style="fill:none;stroke:#b73336;stroke-width:0.30000000447034836px"/><path d="M125.16,5c.18-.09.23-.23.13-.33a.46.46,0,0,0-.54-.09c0-.1-.11-.17-.2-.2a.31.31,0,0,0-.39.12.64.64,0,0,1-.69.34.92.92,0,0,0,0,.16.76.76,0,0,0,0,.15.67.67,0,0,1,.69.35.31.31,0,0,0,.39.12c.09,0,.22-.1.2-.2a.46.46,0,0,0,.54-.09C125.39,5.23,125.34,5.09,125.16,5Z" style="fill:#b73336"/><path d="M116.06,5c-.3,0-.59.11-.47.32s.36,0,.45,0c-.06,0-.14.14-.07.22s.38,0,.75-.12a2.13,2.13,0,0,1,1.43-.23c-.62.08-1,.49-.81.69a.59.59,0,0,0,.74,0c0,.15.1.24.23.27a.59.59,0,0,0,.61-.25,1.48,1.48,0,0,1,.85-.64c.21-.08.28.06.1.11-.59.26-.61.49-.57.63s.3.23.49.14c-.09.27,0,.45.28.53s.58-.15.61-.53c.17.22.53.1.55-.25,0-.52.16-.55.32-.7s.34-.13.2,0c-.31.29-.29.6-.09.67a.46.46,0,0,0,.54-.15.26.26,0,0,0,.49-.15c0-.59.44-.67.55-.66" style="fill:#b73336"/><path d="M116.06,5c-.3,0-.59-.11-.47-.32s.36,0,.45,0c-.06,0-.14-.14-.07-.22s.38,0,.75.12a2.13,2.13,0,0,0,1.43.23c-.62-.08-1-.49-.81-.69a.59.59,0,0,1,.74,0c0-.15.1-.24.23-.27a.59.59,0,0,1,.61.25,1.48,1.48,0,0,0,.85.64c.21.08.28-.06.1-.11-.59-.26-.61-.49-.57-.63s.3-.23.49-.14c-.09-.27,0-.45.28-.53s.58.15.61.53c.17-.22.53-.1.55.25,0,.52.16.55.32.7s.34.13.2,0c-.31-.29-.29-.6-.09-.67a.46.46,0,0,1,.54.15.26.26,0,0,1,.49.15c0,.59.44.67.55.66" style="fill:#b73336"/><path d="M128.78,5c.15,0,.3.06.24.17s-.19,0-.23,0,.07.07,0,.11-.19,0-.38-.06a1.08,1.08,0,0,0-.73-.12c.32,0,.5.25.41.35a.29.29,0,0,1-.37,0c0,.07,0,.12-.12.13a.28.28,0,0,1-.31-.13.76.76,0,0,0-.44-.32c-.1,0-.14,0,0,0,.3.14.31.25.3.33s-.16.11-.26.07a.18.18,0,0,1-.14.27c-.2,0-.29-.08-.31-.27-.09.11-.27,0-.28-.13s-.08-.28-.16-.36-.18-.07-.11,0,.15.31,0,.35a.26.26,0,0,1-.28-.08.13.13,0,0,1-.24-.08c0-.3-.23-.34-.29-.34" style="fill:#b73336"/><path d="M128.78,5c.15,0,.3-.06.24-.17s-.19,0-.23,0,.07-.07,0-.11-.19,0-.38.06a1.08,1.08,0,0,1-.73.12c.32,0,.5-.25.41-.35a.29.29,0,0,0-.37,0c0-.07,0-.12-.12-.13a.28.28,0,0,0-.31.13.76.76,0,0,1-.44.32c-.1,0-.14,0,0,0,.3-.14.31-.25.3-.33s-.16-.11-.26-.07c0-.14,0-.23-.14-.27s-.29.08-.31.27c-.09-.11-.27,0-.28.13s-.08.28-.16.36-.18.07-.11,0,.15-.31,0-.35a.26.26,0,0,0-.28.08.13.13,0,0,0-.24.08c0,.3-.23.34-.29.34" style="fill:#b73336"/><line x1="131.78" y1="5" x2="146.62" y2="5" style="fill:none;stroke:#b73336;stroke-width:0.30000000447034836px"/><path d="M140.69,5c.18-.09.23-.23.13-.33a.46.46,0,0,0-.54-.09c0-.1-.11-.17-.2-.2a.31.31,0,0,0-.39.12.64.64,0,0,1-.68.34A.47.47,0,0,0,139,5a.39.39,0,0,0,0,.15.66.66,0,0,1,.68.35.31.31,0,0,0,.39.12c.09,0,.22-.1.2-.2a.46.46,0,0,0,.54-.09C140.92,5.23,140.87,5.09,140.69,5Z" style="fill:#b73336"/><path d="M131.59,5c-.3,0-.59.11-.47.32s.36,0,.45,0c-.06,0-.14.14-.07.22s.38,0,.75-.12a2.13,2.13,0,0,1,1.43-.23c-.62.08-1,.49-.81.69a.59.59,0,0,0,.74,0c-.05.15.1.24.23.27a.59.59,0,0,0,.61-.25,1.48,1.48,0,0,1,.85-.64c.21-.08.29.06.1.11-.59.26-.61.49-.57.63s.31.23.49.14c-.09.27,0,.45.28.53s.58-.15.62-.53c.16.22.52.1.54-.25,0-.52.16-.55.32-.7s.34-.13.2,0c-.31.29-.29.6-.08.67a.45.45,0,0,0,.53-.15.26.26,0,0,0,.49-.15c.05-.59.44-.67.55-.66" style="fill:#b73336"/><path d="M131.59,5c-.3,0-.59-.11-.47-.32s.36,0,.45,0c-.06,0-.14-.14-.07-.22s.38,0,.75.12a2.13,2.13,0,0,0,1.43.23c-.62-.08-1-.49-.81-.69a.59.59,0,0,1,.74,0c-.05-.15.1-.24.23-.27a.59.59,0,0,1,.61.25,1.48,1.48,0,0,0,.85.64c.21.08.29-.06.1-.11-.59-.26-.61-.49-.57-.63s.31-.23.49-.14c-.09-.27,0-.45.28-.53s.58.15.62.53c.16-.22.52-.1.54.25,0,.52.16.55.32.7s.34.13.2,0c-.31-.29-.29-.6-.08-.67a.45.45,0,0,1,.53.15.26.26,0,0,1,.49.15c.05.59.44.67.55.66" style="fill:#b73336"/><path d="M144.31,5c.15,0,.3.06.24.17s-.18,0-.23,0,.07.07,0,.11-.19,0-.38-.06a1.08,1.08,0,0,0-.73-.12c.32,0,.5.25.41.35a.29.29,0,0,1-.37,0c0,.07-.05.12-.12.13s-.18,0-.31-.13a.76.76,0,0,0-.44-.32c-.1,0-.14,0,0,0,.3.14.31.25.3.33s-.16.11-.26.07a.18.18,0,0,1-.14.27c-.19,0-.29-.08-.31-.27-.09.11-.27,0-.28-.13s-.08-.28-.16-.36-.18-.07-.11,0,.15.31,0,.35a.26.26,0,0,1-.28-.08.13.13,0,0,1-.24-.08c0-.3-.23-.34-.29-.34" style="fill:#b73336"/><path d="M144.31,5c.15,0,.3-.06.24-.17s-.18,0-.23,0,.07-.07,0-.11-.19,0-.38.06a1.08,1.08,0,0,1-.73.12c.32,0,.5-.25.41-.35a.29.29,0,0,0-.37,0c0-.07-.05-.12-.12-.13s-.18,0-.31.13a.76.76,0,0,1-.44.32c-.1,0-.14,0,0,0,.3-.14.31-.25.3-.33s-.16-.11-.26-.07c0-.14,0-.23-.14-.27s-.29.08-.31.27c-.09-.11-.27,0-.28.13s-.08.28-.16.36-.18.07-.11,0,.15-.31,0-.35a.26.26,0,0,0-.28.08.13.13,0,0,0-.24.08c0,.3-.23.34-.29.34" style="fill:#b73336"/><line x1="147.31" y1="5" x2="162.15" y2="5" style="fill:none;stroke:#b73336;stroke-width:0.30000000447034836px"/><path d="M156.22,5c.18-.09.23-.23.13-.33a.46.46,0,0,0-.54-.09c0-.1-.11-.17-.2-.2a.31.31,0,0,0-.39.12.64.64,0,0,1-.68.34.3.3,0,0,0,0,.16.26.26,0,0,0,0,.15.66.66,0,0,1,.68.35.31.31,0,0,0,.39.12c.09,0,.22-.1.2-.2a.46.46,0,0,0,.54-.09C156.45,5.23,156.4,5.09,156.22,5Z" style="fill:#b73336"/><path d="M147.12,5c-.3,0-.59.11-.47.32s.36,0,.45,0c-.06,0-.13.14-.06.22s.37,0,.74-.12a2.15,2.15,0,0,1,1.44-.23c-.63.08-1,.49-.82.69a.59.59,0,0,0,.74,0c0,.15.1.24.23.27A.59.59,0,0,0,150,6a1.48,1.48,0,0,1,.85-.64c.21-.08.29.06.1.11-.58.26-.61.49-.57.63s.31.23.49.14c-.09.27,0,.45.28.53s.58-.15.62-.53c.16.22.52.1.54-.25,0-.52.16-.55.32-.7s.34-.13.2,0c-.31.29-.29.6-.08.67a.45.45,0,0,0,.53-.15.26.26,0,0,0,.49-.15c.05-.59.44-.67.55-.66" style="fill:#b73336"/><path d="M147.12,5c-.3,0-.59-.11-.47-.32s.36,0,.45,0c-.06,0-.13-.14-.06-.22s.37,0,.74.12a2.15,2.15,0,0,0,1.44.23c-.63-.08-1-.49-.82-.69a.59.59,0,0,1,.74,0c0-.15.1-.24.23-.27A.59.59,0,0,1,150,4a1.48,1.48,0,0,0,.85.64c.21.08.29-.06.1-.11-.58-.26-.61-.49-.57-.63s.31-.23.49-.14c-.09-.27,0-.45.28-.53s.58.15.62.53c.16-.22.52-.1.54.25,0,.52.16.55.32.7s.34.13.2,0c-.31-.29-.29-.6-.08-.67a.45.45,0,0,1,.53.15.26.26,0,0,1,.49.15c.05.59.44.67.55.66" style="fill:#b73336"/><path d="M159.84,5c.15,0,.3.06.24.17s-.18,0-.23,0,.07.07,0,.11-.19,0-.37-.06a1.11,1.11,0,0,0-.74-.12c.32,0,.5.25.41.35a.29.29,0,0,1-.37,0c0,.07-.05.12-.12.13s-.18,0-.31-.13a.76.76,0,0,0-.44-.32c-.1,0-.14,0-.05,0,.3.14.31.25.3.33s-.16.11-.26.07a.18.18,0,0,1-.14.27c-.19,0-.29-.08-.31-.27-.09.11-.27,0-.28-.13s-.08-.28-.16-.36-.18-.07-.11,0,.15.31,0,.35a.26.26,0,0,1-.28-.08.13.13,0,0,1-.24-.08c0-.3-.23-.34-.29-.34" style="fill:#b73336"/><path d="M159.84,5c.15,0,.3-.06.24-.17s-.18,0-.23,0,.07-.07,0-.11-.19,0-.37.06a1.11,1.11,0,0,1-.74.12c.32,0,.5-.25.41-.35a.29.29,0,0,0-.37,0c0-.07-.05-.12-.12-.13s-.18,0-.31.13a.76.76,0,0,1-.44.32c-.1,0-.14,0-.05,0,.3-.14.31-.25.3-.33s-.16-.11-.26-.07c0-.14,0-.23-.14-.27s-.29.08-.31.27c-.09-.11-.27,0-.28.13s-.08.28-.16.36-.18.07-.11,0,.15-.31,0-.35a.26.26,0,0,0-.28.08.13.13,0,0,0-.24.08c0,.3-.23.34-.29.34" style="fill:#b73336"/><line x1="163.9" y1="7.44" x2="163.9" y2="22.37" style="fill:none;stroke:#b73336;stroke-width:0.30000000447034836px"/><path d="M163.9,16.41c.09.18.24.23.34.12a.49.49,0,0,0,.09-.53c.09,0,.16-.11.19-.21a.31.31,0,0,0-.12-.39.66.66,0,0,1-.34-.69h-.31a.66.66,0,0,1-.34.69.32.32,0,0,0-.13.39c0,.1.11.22.2.21a.47.47,0,0,0,.09.53C163.67,16.64,163.82,16.59,163.9,16.41Z" style="fill:#b73336"/><path d="M163.89,7.25c0-.3-.12-.59-.32-.47s-.06.36,0,.45c0-.06-.15-.14-.23-.07s0,.38.13.75a2.25,2.25,0,0,1,.23,1.45c-.09-.63-.5-1-.7-.82a.62.62,0,0,0,0,.75c-.15-.06-.24.1-.26.22a.55.55,0,0,0,.25.61,1.52,1.52,0,0,1,.63.87c.09.21-.06.28-.11.1-.25-.6-.49-.62-.63-.58s-.23.31-.14.5c-.27-.09-.45,0-.53.27s.15.59.53.62c-.22.17-.1.53.25.55.52,0,.55.17.7.32s.14.35,0,.21c-.29-.32-.6-.29-.67-.09a.47.47,0,0,0,.15.54.26.26,0,0,0,.15.49c.59.06.67.44.66.56" style="fill:#b73336"/><path d="M163.92,7.25c0-.3.12-.59.32-.47s0,.36,0,.45c0-.06.15-.14.22-.07s0,.38-.12.75a2.19,2.19,0,0,0-.23,1.45c.08-.63.49-1,.69-.82a.61.61,0,0,1,0,.75c.14-.06.23.1.26.22a.57.57,0,0,1-.25.61,1.47,1.47,0,0,0-.63.87c-.09.21.05.28.1.1.26-.6.49-.62.63-.58s.23.31.14.5c.27-.09.45,0,.54.27s-.16.59-.53.62c.21.17.1.53-.26.55-.52,0-.55.17-.7.32s-.13.35,0,.21c.28-.32.6-.29.66-.09a.46.46,0,0,1-.15.54.26.26,0,0,1-.14.49c-.59.06-.68.44-.67.56" style="fill:#b73336"/><path d="M163.9,20c0,.16-.06.31-.16.25s0-.19,0-.23-.08.07-.12,0,0-.19.06-.38a1.11,1.11,0,0,0,.12-.74c0,.32-.25.51-.35.42a.29.29,0,0,1,0-.38c-.08,0-.12-.05-.14-.12s0-.18.13-.31a.71.71,0,0,0,.32-.44c0-.11,0-.15-.05-.05-.13.3-.25.31-.32.29s-.12-.15-.07-.25c-.14,0-.23,0-.28-.14s.08-.3.27-.32c-.11-.09,0-.27.13-.28s.28-.08.36-.16.07-.18,0-.11-.31.15-.34.05a.23.23,0,0,1,.08-.28.13.13,0,0,1,.07-.25c.3,0,.34-.22.34-.28" style="fill:#b73336"/><path d="M163.92,20c0,.16.06.31.16.25s0-.19,0-.23.08.07.11,0,0-.19-.06-.38A1.11,1.11,0,0,1,164,19c.05.32.26.51.36.42a.32.32,0,0,0,0-.38c.07,0,.12-.05.13-.12a.29.29,0,0,0-.12-.31.79.79,0,0,1-.33-.44c0-.11,0-.15.06-.05.13.3.25.31.32.29s.12-.15.07-.25c.14,0,.23,0,.27-.14s-.07-.3-.27-.32c.11-.09,0-.27-.13-.28s-.28-.08-.35-.16-.07-.18,0-.11.3.15.34.05a.24.24,0,0,0-.08-.28.13.13,0,0,0-.07-.25c-.31,0-.35-.22-.34-.28" style="fill:#b73336"/><line x1="163.9" y1="23.06" x2="163.9" y2="38" style="fill:none;stroke:#b73336;stroke-width:0.30000000447034836px"/><path d="M163.9,32c.09.18.24.24.34.13a.5.5,0,0,0,.09-.54c.09,0,.16-.11.19-.2a.32.32,0,0,0-.12-.4.65.65,0,0,1-.34-.68.29.29,0,0,0-.16,0,.26.26,0,0,0-.15,0,.65.65,0,0,1-.34.68.33.33,0,0,0-.13.4c0,.09.11.22.2.2a.48.48,0,0,0,.09.54C163.67,32.27,163.82,32.21,163.9,32Z" style="fill:#b73336"/><path d="M163.89,22.88c0-.31-.12-.6-.32-.48s-.06.36,0,.46c0-.07-.15-.14-.23-.07s0,.38.13.75A2.21,2.21,0,0,1,163.7,25c-.09-.63-.5-1-.7-.81s-.14.61,0,.74c-.15-.05-.24.1-.26.23s0,.36.25.61a1.5,1.5,0,0,1,.63.86c.09.21-.06.28-.11.1-.25-.59-.49-.61-.63-.58s-.23.31-.14.5c-.27-.09-.45,0-.53.28s.15.58.53.62c-.22.17-.1.53.25.55.52,0,.55.16.7.32s.14.34,0,.2c-.29-.31-.6-.29-.67-.09a.46.46,0,0,0,.15.54.26.26,0,0,0,.15.49c.59.06.67.45.66.56" style="fill:#b73336"/><path d="M163.92,22.88c0-.31.12-.6.32-.48s0,.36,0,.46c0-.07.15-.14.22-.07s0,.38-.12.75a2.15,2.15,0,0,0-.23,1.44c.08-.63.49-1,.69-.81a.59.59,0,0,1,0,.74c.14-.05.23.1.26.23s0,.36-.25.61a1.45,1.45,0,0,0-.63.86c-.09.21.05.28.1.1.26-.59.49-.61.63-.58s.23.31.14.5a.36.36,0,0,1,.54.28c.08.39-.16.58-.53.62.21.17.1.53-.26.55-.52,0-.55.16-.7.32s-.13.34,0,.2c.28-.31.6-.29.66-.09a.45.45,0,0,1-.15.54.26.26,0,0,1-.14.49c-.59.06-.68.45-.67.56" style="fill:#b73336"/><path d="M163.9,35.67c0,.16-.06.3-.16.24s0-.18,0-.23-.08.07-.12,0,0-.2.06-.39a1.08,1.08,0,0,0,.12-.73c0,.32-.25.5-.35.41a.29.29,0,0,1,0-.38c-.08,0-.12-.05-.14-.11a.31.31,0,0,1,.13-.32.7.7,0,0,0,.32-.43c0-.11,0-.15-.05-.06-.13.31-.25.32-.32.3s-.12-.16-.07-.26a.19.19,0,0,1-.28-.14c0-.2.08-.3.27-.31-.11-.09,0-.27.13-.28s.28-.09.36-.17.07-.17,0-.1-.31.15-.34,0a.22.22,0,0,1,.08-.27.13.13,0,0,1,.07-.25c.3,0,.34-.23.34-.29" style="fill:#b73336"/><path d="M163.92,35.67c0,.16.06.3.16.24s0-.18,0-.23.08.07.11,0,0-.2-.06-.39a1.08,1.08,0,0,1-.12-.73c.05.32.26.5.36.41a.32.32,0,0,0,0-.38c.07,0,.12-.05.13-.11a.3.3,0,0,0-.12-.32.78.78,0,0,1-.33-.43c0-.11,0-.15.06-.06.13.31.25.32.32.3s.12-.16.07-.26c.14,0,.23,0,.27-.14s-.07-.3-.27-.31c.11-.09,0-.27-.13-.28s-.28-.09-.35-.17-.07-.17,0-.1.3.15.34,0a.23.23,0,0,0-.08-.27.13.13,0,0,0-.07-.25c-.31,0-.35-.23-.34-.29" style="fill:#b73336"/><line x1="163.9" y1="38.69" x2="163.9" y2="53.62" style="fill:none;stroke:#b73336;stroke-width:0.30000000447034836px"/><path d="M163.9,47.66c.09.18.24.23.34.12a.49.49,0,0,0,.09-.53c.09,0,.16-.11.19-.21a.31.31,0,0,0-.12-.39.66.66,0,0,1-.34-.69h-.31a.66.66,0,0,1-.34.69.32.32,0,0,0-.13.39c0,.1.11.22.2.21a.47.47,0,0,0,.09.53C163.67,47.89,163.82,47.84,163.9,47.66Z" style="fill:#b73336"/><path d="M163.89,38.5c0-.3-.12-.59-.32-.47s-.06.36,0,.45-.15-.14-.23-.07,0,.38.13.75a2.25,2.25,0,0,1,.23,1.45c-.09-.63-.5-1-.7-.82a.62.62,0,0,0,0,.75c-.15-.06-.24.1-.26.23a.54.54,0,0,0,.25.6,1.52,1.52,0,0,1,.63.87c.09.21-.06.28-.11.1-.25-.6-.49-.62-.63-.58s-.23.31-.14.5c-.27-.09-.45,0-.53.27s.15.59.53.62c-.22.17-.1.53.25.55.52,0,.55.17.7.32s.14.35,0,.21c-.29-.32-.6-.29-.67-.09a.47.47,0,0,0,.15.54.26.26,0,0,0,.15.49c.59.06.67.44.66.56" style="fill:#b73336"/><path d="M163.92,38.5c0-.3.12-.59.32-.47s0,.36,0,.45.15-.14.22-.07,0,.38-.12.75a2.19,2.19,0,0,0-.23,1.45c.08-.63.49-1,.69-.82a.61.61,0,0,1,0,.75c.14-.06.23.1.26.23a.56.56,0,0,1-.25.6,1.47,1.47,0,0,0-.63.87c-.09.21.05.28.1.1.26-.6.49-.62.63-.58s.23.31.14.5c.27-.09.45,0,.54.27s-.16.59-.53.62c.21.17.1.53-.26.55-.52,0-.55.17-.7.32s-.13.35,0,.21c.28-.32.6-.29.66-.09a.46.46,0,0,1-.15.54.26.26,0,0,1-.14.49c-.59.06-.68.44-.67.56" style="fill:#b73336"/><path d="M163.9,51.3c0,.15-.06.3-.16.24s0-.19,0-.23-.08.07-.12,0,0-.19.06-.38a1.11,1.11,0,0,0,.12-.74c0,.32-.25.51-.35.42a.29.29,0,0,1,0-.38c-.08,0-.12,0-.14-.12s0-.18.13-.31a.71.71,0,0,0,.32-.44c0-.11,0-.14-.05,0-.13.3-.25.31-.32.29s-.12-.15-.07-.25a.19.19,0,0,1-.28-.14c0-.2.08-.3.27-.32-.11-.09,0-.27.13-.28s.28-.08.36-.16.07-.18,0-.11-.31.15-.34.05a.23.23,0,0,1,.08-.28.13.13,0,0,1,.07-.25c.3,0,.34-.22.34-.28" style="fill:#b73336"/><path d="M163.92,51.3c0,.15.06.3.16.24s0-.19,0-.23.08.07.11,0,0-.19-.06-.38a1.11,1.11,0,0,1-.12-.74c.05.32.26.51.36.42a.32.32,0,0,0,0-.38c.07,0,.12,0,.13-.12a.29.29,0,0,0-.12-.31.79.79,0,0,1-.33-.44c0-.11,0-.14.06,0,.13.3.25.31.32.29s.12-.15.07-.25c.14,0,.23,0,.27-.14s-.07-.3-.27-.32c.11-.09,0-.27-.13-.28s-.28-.08-.35-.16-.07-.18,0-.11.3.15.34.05a.24.24,0,0,0-.08-.28.13.13,0,0,0-.07-.25c-.31,0-.35-.22-.34-.28" style="fill:#b73336"/><line x1="163.9" y1="54.31" x2="163.9" y2="69.25" style="fill:none;stroke:#b73336;stroke-width:0.30000000447034836px"/><path d="M163.9,63.28c.09.18.24.24.34.13a.5.5,0,0,0,.09-.54c.09,0,.16-.11.19-.2a.32.32,0,0,0-.12-.4.65.65,0,0,1-.34-.68.29.29,0,0,0-.16,0,.26.26,0,0,0-.15,0,.65.65,0,0,1-.34.68.33.33,0,0,0-.13.4c0,.09.11.22.2.2a.48.48,0,0,0,.09.54C163.67,63.52,163.82,63.46,163.9,63.28Z" style="fill:#b73336"/><path d="M163.89,54.13c0-.31-.12-.6-.32-.48s-.06.36,0,.46c0-.07-.15-.14-.23-.07s0,.38.13.75a2.21,2.21,0,0,1,.23,1.44c-.09-.63-.5-1-.7-.81s-.14.61,0,.74c-.15,0-.24.1-.26.23s0,.36.25.61a1.5,1.5,0,0,1,.63.86c.09.21-.06.29-.11.1-.25-.59-.49-.61-.63-.58s-.23.31-.14.5c-.27-.09-.45,0-.53.28s.15.58.53.62c-.22.17-.1.53.25.55.52,0,.55.16.7.32s.14.35,0,.2c-.29-.31-.6-.29-.67-.08a.45.45,0,0,0,.15.53.26.26,0,0,0,.15.49c.59.06.67.45.66.56" style="fill:#b73336"/><path d="M163.92,54.13c0-.31.12-.6.32-.48s0,.36,0,.46c0-.07.15-.14.22-.07s0,.38-.12.75a2.15,2.15,0,0,0-.23,1.44c.08-.63.49-1,.69-.81a.59.59,0,0,1,0,.74c.14,0,.23.1.26.23s0,.36-.25.61a1.45,1.45,0,0,0-.63.86c-.09.21.05.29.1.1.26-.59.49-.61.63-.58s.23.31.14.5a.36.36,0,0,1,.54.28c.08.39-.16.58-.53.62.21.17.1.53-.26.55-.52,0-.55.16-.7.32s-.13.35,0,.2c.28-.31.6-.29.66-.08a.44.44,0,0,1-.15.53.26.26,0,0,1-.14.49c-.59.06-.68.45-.67.56" style="fill:#b73336"/><path d="M163.9,66.92c0,.16-.06.3-.16.24s0-.18,0-.23-.08.07-.12,0,0-.2.06-.38a1.11,1.11,0,0,0,.12-.74c0,.32-.25.5-.35.41a.29.29,0,0,1,0-.38c-.08,0-.12,0-.14-.11a.31.31,0,0,1,.13-.32.7.7,0,0,0,.32-.43c0-.11,0-.15-.05-.06-.13.31-.25.32-.32.3s-.12-.16-.07-.26a.19.19,0,0,1-.28-.14c0-.2.08-.3.27-.31-.11-.09,0-.27.13-.28s.28-.09.36-.17.07-.17,0-.1-.31.15-.34,0a.22.22,0,0,1,.08-.27.13.13,0,0,1,.07-.25c.3,0,.34-.23.34-.29" style="fill:#b73336"/><path d="M163.92,66.92c0,.16.06.3.16.24s0-.18,0-.23.08.07.11,0,0-.2-.06-.38a1.11,1.11,0,0,1-.12-.74c.05.32.26.5.36.41a.32.32,0,0,0,0-.38c.07,0,.12,0,.13-.11a.3.3,0,0,0-.12-.32.78.78,0,0,1-.33-.43c0-.11,0-.15.06-.06.13.31.25.32.32.3s.12-.16.07-.26c.14,0,.23,0,.27-.14s-.07-.3-.27-.31c.11-.09,0-.27-.13-.28s-.28-.09-.35-.17-.07-.17,0-.1.3.15.34,0a.23.23,0,0,0-.08-.27.13.13,0,0,0-.07-.25c-.31,0-.35-.23-.34-.29" style="fill:#b73336"/><line x1="163.9" y1="69.94" x2="163.9" y2="84.88" style="fill:none;stroke:#b73336;stroke-width:0.30000000447034836px"/><path d="M163.9,78.91c.09.18.24.23.34.12a.49.49,0,0,0,.09-.53c.09,0,.16-.11.19-.21a.31.31,0,0,0-.12-.39.66.66,0,0,1-.34-.69h-.31a.66.66,0,0,1-.34.69.32.32,0,0,0-.13.39c0,.1.11.22.2.21a.47.47,0,0,0,.09.53C163.67,79.14,163.82,79.09,163.9,78.91Z" style="fill:#b73336"/><path d="M163.89,69.75c0-.3-.12-.59-.32-.47s-.06.36,0,.45c0-.06-.15-.14-.23-.07s0,.38.13.75a2.25,2.25,0,0,1,.23,1.45c-.09-.63-.5-1-.7-.82a.62.62,0,0,0,0,.75c-.15-.06-.24.1-.26.23a.54.54,0,0,0,.25.6,1.52,1.52,0,0,1,.63.87c.09.21-.06.28-.11.1-.25-.6-.49-.62-.63-.58s-.23.31-.14.5c-.27-.09-.45,0-.53.27s.15.59.53.62c-.22.17-.1.53.25.55.52,0,.55.17.7.32s.14.35,0,.21c-.29-.32-.6-.29-.67-.09a.47.47,0,0,0,.15.54.26.26,0,0,0,.15.49c.59.06.67.44.66.56" style="fill:#b73336"/><path d="M163.92,69.75c0-.3.12-.59.32-.47s0,.36,0,.45c0-.06.15-.14.22-.07s0,.38-.12.75a2.19,2.19,0,0,0-.23,1.45c.08-.63.49-1,.69-.82a.61.61,0,0,1,0,.75c.14-.06.23.1.26.23a.56.56,0,0,1-.25.6,1.47,1.47,0,0,0-.63.87c-.09.21.05.28.1.1.26-.6.49-.62.63-.58s.23.31.14.5c.27-.09.45,0,.54.27s-.16.59-.53.62c.21.17.1.53-.26.55-.52,0-.55.17-.7.32s-.13.35,0,.21c.28-.32.6-.29.66-.09a.46.46,0,0,1-.15.54.26.26,0,0,1-.14.49c-.59.06-.68.44-.67.56" style="fill:#b73336"/><path d="M163.9,82.55c0,.15-.06.3-.16.24s0-.19,0-.23-.08.07-.12,0,0-.19.06-.38a1.11,1.11,0,0,0,.12-.74c0,.32-.25.51-.35.42a.29.29,0,0,1,0-.38c-.08,0-.12-.05-.14-.12s0-.18.13-.31a.71.71,0,0,0,.32-.44c0-.11,0-.14-.05,0-.13.3-.25.31-.32.29s-.12-.15-.07-.25a.19.19,0,0,1-.28-.14c0-.2.08-.3.27-.32-.11-.09,0-.27.13-.28s.28-.08.36-.16.07-.18,0-.11-.31.15-.34,0a.23.23,0,0,1,.08-.28.13.13,0,0,1,.07-.25c.3,0,.34-.22.34-.28" style="fill:#b73336"/><path d="M163.92,82.55c0,.15.06.3.16.24s0-.19,0-.23.08.07.11,0,0-.19-.06-.38a1.11,1.11,0,0,1-.12-.74c.05.32.26.51.36.42a.32.32,0,0,0,0-.38c.07,0,.12-.05.13-.12a.29.29,0,0,0-.12-.31.79.79,0,0,1-.33-.44c0-.11,0-.14.06,0,.13.3.25.31.32.29s.12-.15.07-.25c.14.05.23,0,.27-.14s-.07-.3-.27-.32c.11-.09,0-.27-.13-.28s-.28-.08-.35-.16-.07-.18,0-.11.3.15.34,0a.24.24,0,0,0-.08-.28.13.13,0,0,0-.07-.25c-.31,0-.35-.22-.34-.28" style="fill:#b73336"/><line x1="163.9" y1="85.56" x2="163.9" y2="100.5" style="fill:none;stroke:#b73336;stroke-width:0.30000000447034836px"/><path d="M163.9,94.53c.09.18.24.24.34.13a.5.5,0,0,0,.09-.54c.09,0,.16-.11.19-.2a.32.32,0,0,0-.12-.4.65.65,0,0,1-.34-.68.29.29,0,0,0-.16,0,.26.26,0,0,0-.15,0,.65.65,0,0,1-.34.68.33.33,0,0,0-.13.4c0,.09.11.22.2.2a.48.48,0,0,0,.09.54C163.67,94.77,163.82,94.71,163.9,94.53Z" style="fill:#b73336"/><path d="M163.89,85.38c0-.31-.12-.6-.32-.48s-.06.36,0,.46c0-.07-.15-.14-.23-.07s0,.38.13.75a2.21,2.21,0,0,1,.23,1.44c-.09-.63-.5-1-.7-.81s-.14.61,0,.74c-.15,0-.24.1-.26.23s0,.36.25.61a1.5,1.5,0,0,1,.63.86c.09.21-.06.29-.11.1-.25-.59-.49-.61-.63-.58s-.23.31-.14.5c-.27-.09-.45,0-.53.28s.15.58.53.62c-.22.17-.1.53.25.55.52,0,.55.16.7.32s.14.35,0,.2c-.29-.31-.6-.29-.67-.08a.45.45,0,0,0,.15.53.26.26,0,0,0,.15.49c.59.06.67.45.66.56" style="fill:#b73336"/><path d="M163.92,85.38c0-.31.12-.6.32-.48s0,.36,0,.46c0-.07.15-.14.22-.07s0,.38-.12.75a2.15,2.15,0,0,0-.23,1.44c.08-.63.49-1,.69-.81a.59.59,0,0,1,0,.74c.14,0,.23.1.26.23s0,.36-.25.61a1.45,1.45,0,0,0-.63.86c-.09.21.05.29.1.1.26-.59.49-.61.63-.58s.23.31.14.5a.36.36,0,0,1,.54.28c.08.39-.16.58-.53.62.21.17.1.53-.26.55-.52,0-.55.16-.7.32s-.13.35,0,.2c.28-.31.6-.29.66-.08a.44.44,0,0,1-.15.53.26.26,0,0,1-.14.49c-.59.06-.68.45-.67.56" style="fill:#b73336"/><path d="M163.9,98.17c0,.16-.06.3-.16.24s0-.18,0-.23-.08.07-.12,0,0-.2.06-.38a1.11,1.11,0,0,0,.12-.74c0,.32-.25.5-.35.41a.29.29,0,0,1,0-.38c-.08,0-.12,0-.14-.11a.29.29,0,0,1,.13-.31.74.74,0,0,0,.32-.44c0-.11,0-.15-.05-.06-.13.31-.25.32-.32.3s-.12-.16-.07-.26a.19.19,0,0,1-.28-.14c0-.2.08-.3.27-.31-.11-.09,0-.27.13-.28s.28-.09.36-.17.07-.17,0-.1-.31.15-.34,0a.22.22,0,0,1,.08-.27.13.13,0,0,1,.07-.25c.3,0,.34-.23.34-.29" style="fill:#b73336"/><path d="M163.92,98.17c0,.16.06.3.16.24s0-.18,0-.23.08.07.11,0,0-.2-.06-.38a1.11,1.11,0,0,1-.12-.74c.05.32.26.5.36.41a.32.32,0,0,0,0-.38c.07,0,.12,0,.13-.11a.28.28,0,0,0-.12-.31.82.82,0,0,1-.33-.44c0-.11,0-.15.06-.06.13.31.25.32.32.3s.12-.16.07-.26c.14,0,.23,0,.27-.14s-.07-.3-.27-.31c.11-.09,0-.27-.13-.28s-.28-.09-.35-.17-.07-.17,0-.1.3.15.34,0a.23.23,0,0,0-.08-.27.13.13,0,0,0-.07-.25c-.31,0-.35-.23-.34-.29" style="fill:#b73336"/><line x1="163.9" y1="101.19" x2="163.9" y2="116.13" style="fill:none;stroke:#b73336;stroke-width:0.30000000447034836px"/><path d="M163.9,110.16c.09.18.24.23.34.12a.49.49,0,0,0,.09-.53c.09,0,.16-.11.19-.21a.31.31,0,0,0-.12-.39.66.66,0,0,1-.34-.69h-.31a.66.66,0,0,1-.34.69.32.32,0,0,0-.13.39c0,.1.11.22.2.21a.47.47,0,0,0,.09.53C163.67,110.39,163.82,110.34,163.9,110.16Z" style="fill:#b73336"/><path d="M163.89,101c0-.3-.12-.59-.32-.47s-.06.36,0,.45c0-.06-.15-.14-.23-.06s0,.37.13.74a2.25,2.25,0,0,1,.23,1.45c-.09-.63-.5-1-.7-.82a.62.62,0,0,0,0,.75c-.15-.06-.24.1-.26.23s0,.36.25.61a1.47,1.47,0,0,1,.63.86c.09.21-.06.28-.11.1-.25-.59-.49-.62-.63-.58s-.23.31-.14.5c-.27-.09-.45,0-.53.27s.15.59.53.62c-.22.17-.1.53.25.55.52,0,.55.17.7.32s.14.35,0,.21c-.29-.32-.6-.29-.67-.09a.47.47,0,0,0,.15.54.26.26,0,0,0,.15.49c.59.06.67.44.66.56" style="fill:#b73336"/><path d="M163.92,101c0-.3.12-.59.32-.47s0,.36,0,.45c0-.06.15-.14.22-.06s0,.37-.12.74a2.19,2.19,0,0,0-.23,1.45c.08-.63.49-1,.69-.82a.61.61,0,0,1,0,.75c.14-.06.23.1.26.23a.58.58,0,0,1-.25.61,1.43,1.43,0,0,0-.63.86c-.09.21.05.28.1.1.26-.59.49-.62.63-.58s.23.31.14.5c.27-.09.45,0,.54.27s-.16.59-.53.62c.21.17.1.53-.26.55-.52,0-.55.17-.7.32s-.13.35,0,.21c.28-.32.6-.29.66-.09a.46.46,0,0,1-.15.54.26.26,0,0,1-.14.49c-.59.06-.68.44-.67.56" style="fill:#b73336"/><path d="M163.9,113.8c0,.15-.06.3-.16.24s0-.19,0-.23-.08.07-.12,0,0-.19.06-.38a1.11,1.11,0,0,0,.12-.74c0,.32-.25.51-.35.42a.29.29,0,0,1,0-.38c-.08,0-.12-.05-.14-.12s0-.18.13-.31a.71.71,0,0,0,.32-.44c0-.11,0-.14-.05,0-.13.3-.25.31-.32.29s-.12-.15-.07-.25a.19.19,0,0,1-.28-.14c0-.2.08-.3.27-.32-.11-.09,0-.27.13-.28s.28-.08.36-.16.07-.18,0-.11-.31.15-.34,0a.23.23,0,0,1,.08-.28.13.13,0,0,1,.07-.25c.3,0,.34-.22.34-.28" style="fill:#b73336"/><path d="M163.92,113.8c0,.15.06.3.16.24s0-.19,0-.23.08.07.11,0,0-.19-.06-.38a1.11,1.11,0,0,1-.12-.74c.05.32.26.51.36.42a.32.32,0,0,0,0-.38c.07,0,.12-.05.13-.12a.29.29,0,0,0-.12-.31.79.79,0,0,1-.33-.44c0-.11,0-.14.06,0,.13.3.25.31.32.29s.12-.15.07-.25c.14.05.23,0,.27-.14s-.07-.3-.27-.32c.11-.09,0-.27-.13-.28s-.28-.08-.35-.16-.07-.18,0-.11.3.15.34,0a.24.24,0,0,0-.08-.28.13.13,0,0,0-.07-.25c-.31,0-.35-.22-.34-.28" style="fill:#b73336"/><line x1="163.9" y1="116.81" x2="163.9" y2="131.75" style="fill:none;stroke:#b73336;stroke-width:0.30000000447034836px"/><path d="M163.9,125.78c.09.18.24.24.34.13a.5.5,0,0,0,.09-.54c.09,0,.16-.11.19-.2a.32.32,0,0,0-.12-.4.65.65,0,0,1-.34-.68.29.29,0,0,0-.16,0,.26.26,0,0,0-.15,0,.65.65,0,0,1-.34.68.33.33,0,0,0-.13.4c0,.09.11.22.2.2a.48.48,0,0,0,.09.54C163.67,126,163.82,126,163.9,125.78Z" style="fill:#b73336"/><path d="M163.89,116.63c0-.31-.12-.6-.32-.48s-.06.37,0,.46c0-.06-.15-.14-.23-.07s0,.38.13.75a2.21,2.21,0,0,1,.23,1.44c-.09-.63-.5-1-.7-.81s-.14.61,0,.74c-.15,0-.24.1-.26.23s0,.36.25.61a1.53,1.53,0,0,1,.63.86c.09.21-.06.29-.11.1-.25-.59-.49-.61-.63-.58s-.23.31-.14.5c-.27-.09-.45,0-.53.28s.15.58.53.62c-.22.17-.1.53.25.55.52,0,.55.16.7.32s.14.35,0,.2c-.29-.31-.6-.29-.67-.08a.45.45,0,0,0,.15.53.26.26,0,0,0,.15.49c.59.06.67.45.66.56" style="fill:#b73336"/><path d="M163.92,116.63c0-.31.12-.6.32-.48s0,.37,0,.46c0-.06.15-.14.22-.07s0,.38-.12.75a2.15,2.15,0,0,0-.23,1.44c.08-.63.49-1,.69-.81a.59.59,0,0,1,0,.74c.14,0,.23.1.26.23s0,.36-.25.61a1.48,1.48,0,0,0-.63.86c-.09.21.05.29.1.1.26-.59.49-.61.63-.58s.23.31.14.5a.36.36,0,0,1,.54.28c.08.39-.16.58-.53.62.21.17.1.53-.26.55-.52,0-.55.16-.7.32s-.13.35,0,.2c.28-.31.6-.29.66-.08a.44.44,0,0,1-.15.53.26.26,0,0,1-.14.49c-.59.06-.68.45-.67.56" style="fill:#b73336"/><path d="M163.9,129.42c0,.16-.06.3-.16.24s0-.18,0-.23-.08.07-.12,0,0-.2.06-.38a1.11,1.11,0,0,0,.12-.74c0,.32-.25.5-.35.41a.29.29,0,0,1,0-.38c-.08,0-.12,0-.14-.11a.29.29,0,0,1,.13-.31.74.74,0,0,0,.32-.44c0-.11,0-.15-.05-.06-.13.31-.25.32-.32.3s-.12-.16-.07-.26a.19.19,0,0,1-.28-.14c0-.2.08-.3.27-.31-.11-.09,0-.27.13-.28s.28-.09.36-.17.07-.17,0-.1-.31.15-.34,0a.22.22,0,0,1,.08-.27.13.13,0,0,1,.07-.25c.3,0,.34-.23.34-.29" style="fill:#b73336"/><path d="M163.92,129.42c0,.16.06.3.16.24s0-.18,0-.23.08.07.11,0,0-.2-.06-.38a1.11,1.11,0,0,1-.12-.74c.05.32.26.5.36.41a.32.32,0,0,0,0-.38c.07,0,.12,0,.13-.11a.28.28,0,0,0-.12-.31.82.82,0,0,1-.33-.44c0-.11,0-.15.06-.06.13.31.25.32.32.3s.12-.16.07-.26c.14,0,.23,0,.27-.14s-.07-.3-.27-.31c.11-.09,0-.27-.13-.28s-.28-.09-.35-.17-.07-.17,0-.1.3.15.34,0a.23.23,0,0,0-.08-.27.13.13,0,0,0-.07-.25c-.31,0-.35-.23-.34-.29" style="fill:#b73336"/><line x1="163.9" y1="132.44" x2="163.9" y2="147.38" style="fill:none;stroke:#b73336;stroke-width:0.30000000447034836px"/><path d="M163.9,141.41c.09.18.24.23.34.12a.49.49,0,0,0,.09-.53c.09,0,.16-.11.19-.21a.31.31,0,0,0-.12-.39.66.66,0,0,1-.34-.69h-.31a.66.66,0,0,1-.34.69.32.32,0,0,0-.13.39c0,.1.11.22.2.21a.47.47,0,0,0,.09.53C163.67,141.64,163.82,141.59,163.9,141.41Z" style="fill:#b73336"/><path d="M163.89,132.25c0-.3-.12-.59-.32-.47s-.06.36,0,.45c0-.06-.15-.14-.23-.06s0,.37.13.74a2.25,2.25,0,0,1,.23,1.45c-.09-.63-.5-1-.7-.82a.62.62,0,0,0,0,.75c-.15-.06-.24.1-.26.23s0,.36.25.61a1.47,1.47,0,0,1,.63.86c.09.21-.06.28-.11.1-.25-.59-.49-.62-.63-.58s-.23.31-.14.5c-.27-.09-.45,0-.53.27s.15.59.53.62c-.22.17-.1.53.25.55.52,0,.55.17.7.32s.14.35,0,.21c-.29-.32-.6-.29-.67-.09a.47.47,0,0,0,.15.54.26.26,0,0,0,.15.49c.59.06.67.44.66.56" style="fill:#b73336"/><path d="M163.92,132.25c0-.3.12-.59.32-.47s0,.36,0,.45c0-.06.15-.14.22-.06s0,.37-.12.74a2.19,2.19,0,0,0-.23,1.45c.08-.63.49-1,.69-.82a.61.61,0,0,1,0,.75c.14-.06.23.1.26.23s0,.36-.25.61a1.43,1.43,0,0,0-.63.86c-.09.21.05.28.1.1.26-.59.49-.62.63-.58s.23.31.14.5c.27-.09.45,0,.54.27s-.16.59-.53.62c.21.17.1.53-.26.55-.52,0-.55.17-.7.32s-.13.35,0,.21c.28-.32.6-.29.66-.09a.46.46,0,0,1-.15.54.26.26,0,0,1-.14.49c-.59.06-.68.44-.67.56" style="fill:#b73336"/><path d="M163.9,145.05c0,.15-.06.3-.16.24s0-.19,0-.23-.08.07-.12,0,0-.19.06-.38a1.11,1.11,0,0,0,.12-.74c0,.32-.25.51-.35.42a.29.29,0,0,1,0-.38c-.08,0-.12,0-.14-.12s0-.18.13-.31a.71.71,0,0,0,.32-.44c0-.11,0-.14-.05,0-.13.3-.25.31-.32.29s-.12-.15-.07-.25A.19.19,0,0,1,163,143c0-.2.08-.3.27-.32-.11-.09,0-.27.13-.28s.28-.08.36-.16.07-.18,0-.11-.31.15-.34,0a.23.23,0,0,1,.08-.28.13.13,0,0,1,.07-.25c.3,0,.34-.22.34-.28" style="fill:#b73336"/><path d="M163.92,145.05c0,.15.06.3.16.24s0-.19,0-.23.08.07.11,0,0-.19-.06-.38A1.11,1.11,0,0,1,164,144c.05.32.26.51.36.42a.32.32,0,0,0,0-.38c.07,0,.12,0,.13-.12a.29.29,0,0,0-.12-.31.79.79,0,0,1-.33-.44c0-.11,0-.14.06,0,.13.3.25.31.32.29s.12-.15.07-.25c.14.05.23,0,.27-.14s-.07-.3-.27-.32c.11-.09,0-.27-.13-.28s-.28-.08-.35-.16-.07-.18,0-.11.3.15.34,0a.24.24,0,0,0-.08-.28.13.13,0,0,0-.07-.25c-.31,0-.35-.22-.34-.28" style="fill:#b73336"/><line x1="163.9" y1="148.06" x2="163.9" y2="163" style="fill:none;stroke:#b73336;stroke-width:0.30000000447034836px"/><path d="M163.9,157c.09.18.24.24.34.13a.5.5,0,0,0,.09-.54c.09,0,.16-.11.19-.2a.32.32,0,0,0-.12-.4.65.65,0,0,1-.34-.68.29.29,0,0,0-.16,0,.26.26,0,0,0-.15,0,.65.65,0,0,1-.34.68.33.33,0,0,0-.13.4c0,.09.11.22.2.2a.48.48,0,0,0,.09.54C163.67,157.27,163.82,157.21,163.9,157Z" style="fill:#b73336"/><path d="M163.89,147.88c0-.31-.12-.6-.32-.48s-.06.37,0,.46c0-.06-.15-.14-.23-.07s0,.38.13.75a2.21,2.21,0,0,1,.23,1.44c-.09-.63-.5-1-.7-.81a.6.6,0,0,0,0,.74c-.15,0-.24.1-.26.23s0,.36.25.61a1.53,1.53,0,0,1,.63.86c.09.21-.06.29-.11.1-.25-.59-.49-.61-.63-.58s-.23.31-.14.5c-.27-.09-.45,0-.53.28s.15.58.53.62c-.22.17-.1.53.25.55.52,0,.55.16.7.32s.14.35,0,.2c-.29-.31-.6-.29-.67-.08a.45.45,0,0,0,.15.53.26.26,0,0,0,.15.49c.59.06.67.45.66.56" style="fill:#b73336"/><path d="M163.92,147.88c0-.31.12-.6.32-.48s0,.37,0,.46c0-.06.15-.14.22-.07s0,.38-.12.75a2.15,2.15,0,0,0-.23,1.44c.08-.63.49-1,.69-.81a.59.59,0,0,1,0,.74c.14,0,.23.1.26.23s0,.36-.25.61a1.48,1.48,0,0,0-.63.86c-.09.21.05.29.1.1.26-.59.49-.61.63-.58s.23.31.14.5a.36.36,0,0,1,.54.28c.08.39-.16.58-.53.62.21.17.1.53-.26.55-.52,0-.55.16-.7.32s-.13.35,0,.2c.28-.31.6-.29.66-.08a.44.44,0,0,1-.15.53.26.26,0,0,1-.14.49c-.59.06-.68.45-.67.56" style="fill:#b73336"/><path d="M163.9,160.67c0,.16-.06.31-.16.25s0-.19,0-.24-.08.07-.12,0,0-.2.06-.38a1.11,1.11,0,0,0,.12-.74c0,.32-.25.5-.35.41a.29.29,0,0,1,0-.38c-.08,0-.12,0-.14-.11a.29.29,0,0,1,.13-.31.74.74,0,0,0,.32-.44c0-.11,0-.15-.05-.06-.13.31-.25.32-.32.3s-.12-.16-.07-.26a.19.19,0,0,1-.28-.14c0-.19.08-.29.27-.31-.11-.09,0-.27.13-.28s.28-.09.36-.17.07-.17,0-.1-.31.15-.34,0a.22.22,0,0,1,.08-.27.13.13,0,0,1,.07-.25c.3,0,.34-.23.34-.29" style="fill:#b73336"/><path d="M163.92,160.67c0,.16.06.31.16.25s0-.19,0-.24.08.07.11,0,0-.2-.06-.38a1.11,1.11,0,0,1-.12-.74c.05.32.26.5.36.41a.32.32,0,0,0,0-.38c.07,0,.12,0,.13-.11a.28.28,0,0,0-.12-.31.82.82,0,0,1-.33-.44c0-.11,0-.15.06-.06.13.31.25.32.32.3s.12-.16.07-.26c.14.05.23,0,.27-.14s-.07-.29-.27-.31c.11-.09,0-.27-.13-.28s-.28-.09-.35-.17-.07-.17,0-.1.3.15.34,0a.23.23,0,0,0-.08-.27.13.13,0,0,0-.07-.25c-.31,0-.35-.23-.34-.29" style="fill:#b73336"/><line x1="163.9" y1="163.69" x2="163.9" y2="178.63" style="fill:none;stroke:#b73336;stroke-width:0.30000000447034836px"/><path d="M163.9,172.66c.09.18.24.23.34.12a.48.48,0,0,0,.09-.53c.09,0,.16-.11.19-.21a.31.31,0,0,0-.12-.39.66.66,0,0,1-.34-.69h-.31a.66.66,0,0,1-.34.69.32.32,0,0,0-.13.39c0,.1.11.22.2.21a.47.47,0,0,0,.09.53C163.67,172.89,163.82,172.84,163.9,172.66Z" style="fill:#b73336"/><path d="M163.89,163.5c0-.3-.12-.59-.32-.47s-.06.36,0,.46c0-.07-.15-.15-.23-.07s0,.37.13.74a2.25,2.25,0,0,1,.23,1.45c-.09-.63-.5-1-.7-.82a.62.62,0,0,0,0,.75c-.15-.06-.24.1-.26.23s0,.36.25.61a1.47,1.47,0,0,1,.63.86c.09.21-.06.28-.11.1-.25-.59-.49-.62-.63-.58s-.23.31-.14.5c-.27-.09-.45,0-.53.27s.15.59.53.62c-.22.17-.1.53.25.55.52,0,.55.17.7.32s.14.35,0,.21c-.29-.32-.6-.29-.67-.09a.47.47,0,0,0,.15.54.26.26,0,0,0,.15.49c.59.06.67.44.66.56" style="fill:#b73336"/><path d="M163.92,163.5c0-.3.12-.59.32-.47s0,.36,0,.46c0-.07.15-.15.22-.07s0,.37-.12.74a2.19,2.19,0,0,0-.23,1.45c.08-.63.49-1,.69-.82a.61.61,0,0,1,0,.75c.14-.06.23.1.26.23s0,.36-.25.61a1.43,1.43,0,0,0-.63.86c-.09.21.05.28.1.1.26-.59.49-.62.63-.58s.23.31.14.5c.27-.09.45,0,.54.27s-.16.59-.53.62c.21.17.1.53-.26.55-.52,0-.55.17-.7.32s-.13.35,0,.21c.28-.32.6-.29.66-.09a.46.46,0,0,1-.15.54.26.26,0,0,1-.14.49c-.59.06-.68.44-.67.56" style="fill:#b73336"/><path d="M163.9,176.3c0,.15-.06.3-.16.24s0-.19,0-.23-.08.07-.12,0,0-.19.06-.38a1.11,1.11,0,0,0,.12-.74c0,.32-.25.51-.35.42a.29.29,0,0,1,0-.38c-.08,0-.12,0-.14-.12s0-.18.13-.31a.71.71,0,0,0,.32-.44c0-.11,0-.14-.05,0-.13.3-.25.31-.32.29s-.12-.15-.07-.25a.19.19,0,0,1-.28-.14c0-.2.08-.3.27-.32-.11-.08,0-.27.13-.28s.28-.08.36-.16.07-.18,0-.11-.31.15-.34,0a.23.23,0,0,1,.08-.28.13.13,0,0,1,.07-.25c.3,0,.34-.22.34-.28" style="fill:#b73336"/><path d="M163.92,176.3c0,.15.06.3.16.24s0-.19,0-.23.08.07.11,0,0-.19-.06-.38a1.11,1.11,0,0,1-.12-.74c.05.32.26.51.36.42a.32.32,0,0,0,0-.38c.07,0,.12,0,.13-.12a.29.29,0,0,0-.12-.31.79.79,0,0,1-.33-.44c0-.11,0-.14.06,0,.13.3.25.31.32.29s.12-.15.07-.25c.14.05.23,0,.27-.14s-.07-.3-.27-.32c.11-.08,0-.27-.13-.28s-.28-.08-.35-.16-.07-.18,0-.11.3.15.34,0a.24.24,0,0,0-.08-.28.13.13,0,0,0-.07-.25c-.31,0-.35-.22-.34-.28" style="fill:#b73336"/><line x1="163.9" y1="179.31" x2="163.9" y2="194.25" style="fill:none;stroke:#b73336;stroke-width:0.30000000447034836px"/><path d="M163.9,188.28c.09.18.24.24.34.13a.5.5,0,0,0,.09-.54c.09,0,.16-.11.19-.2a.32.32,0,0,0-.12-.4.65.65,0,0,1-.34-.68.29.29,0,0,0-.16,0,.26.26,0,0,0-.15,0,.65.65,0,0,1-.34.68.33.33,0,0,0-.13.4c0,.09.11.22.2.2a.48.48,0,0,0,.09.54C163.67,188.52,163.82,188.46,163.9,188.28Z" style="fill:#b73336"/><path d="M163.89,179.13c0-.3-.12-.6-.32-.48s-.06.37,0,.46c0-.06-.15-.14-.23-.07s0,.38.13.75a2.21,2.21,0,0,1,.23,1.44c-.09-.63-.5-1-.7-.81a.6.6,0,0,0,0,.74c-.15,0-.24.1-.26.23s0,.36.25.61a1.53,1.53,0,0,1,.63.86c.09.21-.06.29-.11.1-.25-.59-.49-.61-.63-.58s-.23.31-.14.5c-.27-.09-.45,0-.53.28s.15.58.53.62c-.22.17-.1.53.25.55.52,0,.55.16.7.32s.14.35,0,.2c-.29-.31-.6-.29-.67-.08a.45.45,0,0,0,.15.53.26.26,0,0,0,.15.49c.59.06.67.45.66.56" style="fill:#b73336"/><path d="M163.92,179.13c0-.3.12-.6.32-.48s0,.37,0,.46c0-.06.15-.14.22-.07s0,.38-.12.75a2.15,2.15,0,0,0-.23,1.44c.08-.63.49-1,.69-.81a.59.59,0,0,1,0,.74c.14,0,.23.1.26.23s0,.36-.25.61a1.48,1.48,0,0,0-.63.86c-.09.21.05.29.1.1.26-.59.49-.61.63-.58s.23.31.14.5a.36.36,0,0,1,.54.28c.08.39-.16.58-.53.62.21.17.1.53-.26.55-.52,0-.55.16-.7.32s-.13.35,0,.2c.28-.31.6-.29.66-.08a.44.44,0,0,1-.15.53.26.26,0,0,1-.14.49c-.59.06-.68.45-.67.56" style="fill:#b73336"/><path d="M163.9,191.92c0,.16-.06.31-.16.25s0-.19,0-.24-.08.07-.12,0,0-.2.06-.38a1.11,1.11,0,0,0,.12-.74c0,.32-.25.5-.35.41a.29.29,0,0,1,0-.38c-.08,0-.12,0-.14-.11a.29.29,0,0,1,.13-.31.74.74,0,0,0,.32-.44c0-.11,0-.15-.05-.06-.13.31-.25.32-.32.3s-.12-.16-.07-.26a.19.19,0,0,1-.28-.14c0-.19.08-.29.27-.31-.11-.09,0-.27.13-.28s.28-.09.36-.17.07-.17,0-.1-.31.15-.34,0a.22.22,0,0,1,.08-.27.13.13,0,0,1,.07-.25c.3,0,.34-.23.34-.29" style="fill:#b73336"/><path d="M163.92,191.92c0,.16.06.31.16.25s0-.19,0-.24.08.07.11,0,0-.2-.06-.38a1.11,1.11,0,0,1-.12-.74c.05.32.26.5.36.41a.32.32,0,0,0,0-.38c.07,0,.12,0,.13-.11a.28.28,0,0,0-.12-.31.82.82,0,0,1-.33-.44c0-.11,0-.15.06-.06.13.31.25.32.32.3s.12-.16.07-.26c.14.05.23,0,.27-.14s-.07-.29-.27-.31c.11-.09,0-.27-.13-.28s-.28-.09-.35-.17-.07-.17,0-.1.3.15.34,0a.23.23,0,0,0-.08-.27.13.13,0,0,0-.07-.25c-.31,0-.35-.23-.34-.29" style="fill:#b73336"/><line x1="161.47" y1="196" x2="146.62" y2="196" style="fill:none;stroke:#b73336;stroke-width:0.30000000447034836px"/><path d="M152.55,196c-.18.09-.23.23-.12.33a.45.45,0,0,0,.53.09c0,.1.11.17.21.2a.31.31,0,0,0,.39-.12.64.64,0,0,1,.68-.34,1.28,1.28,0,0,0,0-.32.64.64,0,0,1-.68-.34.31.31,0,0,0-.39-.12c-.1,0-.22.1-.21.2a.45.45,0,0,0-.53.09C152.32,195.77,152.37,195.91,152.55,196Z" style="fill:#b73336"/><path d="M161.65,196c.31,0,.59-.11.48-.32s-.36,0-.46,0c.07,0,.14-.14.07-.22s-.37,0-.74.12a2.15,2.15,0,0,1-1.44.23c.63-.08,1-.49.81-.69a.59.59,0,0,0-.74,0c.06-.15-.1-.24-.23-.27a.58.58,0,0,0-.6.25,1.49,1.49,0,0,1-.86.64c-.21.08-.28-.06-.1-.11.59-.26.61-.49.58-.63s-.31-.23-.5-.14c.09-.27,0-.45-.27-.53s-.58.15-.62.53c-.17-.22-.53-.1-.54.25,0,.52-.17.55-.32.7s-.35.13-.21,0c.32-.29.29-.6.09-.67a.47.47,0,0,0-.54.15.25.25,0,0,0-.48.15c-.06.59-.44.67-.56.66" style="fill:#b73336"/><path d="M161.65,196c.31,0,.59.11.48.32s-.36,0-.46,0c.07,0,.14.14.07.22s-.37,0-.74-.12a2.15,2.15,0,0,0-1.44-.23c.63.08,1,.49.81.69a.59.59,0,0,1-.74,0c.06.15-.1.24-.23.27a.58.58,0,0,1-.6-.25,1.49,1.49,0,0,0-.86-.64c-.21-.08-.28.06-.1.11.59.26.61.49.58.63s-.31.23-.5.14c.09.27,0,.45-.27.53s-.58-.15-.62-.53c-.17.22-.53.1-.54-.25,0-.52-.17-.55-.32-.7s-.35-.13-.21,0c.32.29.29.6.09.67a.47.47,0,0,1-.54-.15.25.25,0,0,1-.48-.15c-.06-.59-.44-.67-.56-.66" style="fill:#b73336"/><path d="M148.94,196c-.16,0-.3-.06-.24-.17s.18,0,.23,0-.07-.07,0-.11.19,0,.38.06a1.11,1.11,0,0,0,.74.12c-.32,0-.51-.25-.42-.35a.31.31,0,0,1,.38,0c0-.07.05-.12.12-.13s.18,0,.3.13a.79.79,0,0,0,.44.32c.11,0,.15,0,0-.05-.3-.14-.31-.25-.29-.33s.16-.11.25-.07a.19.19,0,0,1,.14-.27c.2,0,.3.08.32.27.08-.11.27,0,.28.13s.08.28.16.36.18.07.1,0-.14-.31,0-.35a.25.25,0,0,1,.27.08.13.13,0,0,1,.25.08c0,.3.23.34.28.34" style="fill:#b73336"/><path d="M148.94,196c-.16,0-.3.06-.24.17s.18,0,.23,0-.07.07,0,.11.19,0,.38-.06a1.11,1.11,0,0,1,.74-.12c-.32,0-.51.25-.42.35a.31.31,0,0,0,.38,0c0,.07.05.12.12.13s.18,0,.3-.13a.79.79,0,0,1,.44-.32c.11,0,.15,0,0,.05-.3.14-.31.25-.29.33s.16.11.25.07c0,.14,0,.23.14.27s.3-.08.32-.27c.08.11.27,0,.28-.13a.38.38,0,0,1,.16-.36c.08-.07.18-.07.1,0s-.14.3,0,.34a.25.25,0,0,0,.27-.08.13.13,0,0,0,.25-.08c0-.3.23-.34.28-.34" style="fill:#b73336"/><line x1="145.94" y1="196" x2="131.09" y2="196" style="fill:none;stroke:#b73336;stroke-width:0.30000000447034836px"/><path d="M137,196c-.18.09-.23.23-.12.33a.45.45,0,0,0,.53.09c0,.1.11.17.21.2a.31.31,0,0,0,.39-.12.64.64,0,0,1,.68-.34,1.28,1.28,0,0,0,0-.32.64.64,0,0,1-.68-.34.31.31,0,0,0-.39-.12c-.1,0-.22.1-.21.2a.45.45,0,0,0-.53.09C136.79,195.77,136.84,195.91,137,196Z" style="fill:#b73336"/><path d="M146.12,196c.3,0,.59-.11.48-.32s-.36,0-.46,0c.07,0,.14-.14.07-.22s-.38,0-.74.12a2.15,2.15,0,0,1-1.44.23c.63-.08,1-.49.81-.69a.59.59,0,0,0-.74,0c.06-.15-.1-.24-.23-.27a.58.58,0,0,0-.6.25,1.49,1.49,0,0,1-.86.64c-.21.08-.28-.06-.1-.11.59-.26.61-.49.58-.63s-.31-.23-.5-.14c.09-.27,0-.45-.27-.53s-.58.15-.62.53c-.17-.22-.53-.1-.54.25,0,.52-.17.55-.32.7s-.35.13-.21,0c.32-.29.29-.6.09-.67a.47.47,0,0,0-.54.15.25.25,0,0,0-.48.15c-.06.59-.44.67-.56.66" style="fill:#b73336"/><path d="M146.12,196c.3,0,.59.11.48.32s-.36,0-.46,0c.07,0,.14.14.07.22s-.38,0-.74-.12a2.15,2.15,0,0,0-1.44-.23c.63.08,1,.49.81.69a.59.59,0,0,1-.74,0c.06.15-.1.24-.23.27a.58.58,0,0,1-.6-.25,1.49,1.49,0,0,0-.86-.64c-.21-.08-.28.06-.1.11.59.26.61.49.58.63s-.31.23-.5.14c.09.27,0,.45-.27.53s-.58-.15-.62-.53c-.17.22-.53.1-.54-.25,0-.52-.17-.55-.32-.7s-.35-.13-.21,0c.32.29.29.6.09.67a.47.47,0,0,1-.54-.15.25.25,0,0,1-.48-.15c-.06-.59-.44-.67-.56-.66" style="fill:#b73336"/><path d="M133.41,196c-.16,0-.3-.06-.25-.17s.19,0,.24,0a.08.08,0,0,1,0-.11c0-.06.19,0,.38.06a1.11,1.11,0,0,0,.74.12c-.32,0-.51-.25-.42-.35a.31.31,0,0,1,.38,0c0-.07.05-.12.11-.13a.28.28,0,0,1,.31.13.79.79,0,0,0,.44.32c.11,0,.15,0,0-.05-.3-.14-.31-.25-.29-.33s.16-.11.25-.07a.19.19,0,0,1,.14-.27c.2,0,.3.08.32.27.08-.11.27,0,.28.13s.08.28.16.36.17.07.1,0-.15-.31,0-.35a.25.25,0,0,1,.27.08.13.13,0,0,1,.25.08c0,.3.23.34.28.34" style="fill:#b73336"/><path d="M133.41,196c-.16,0-.3.06-.25.17s.19,0,.24,0a.08.08,0,0,0,0,.11c0,.06.19,0,.38-.06a1.11,1.11,0,0,1,.74-.12c-.32,0-.51.25-.42.35a.31.31,0,0,0,.38,0c0,.07.05.12.11.13a.28.28,0,0,0,.31-.13.79.79,0,0,1,.44-.32c.11,0,.15,0,0,.05-.3.14-.31.25-.29.33s.16.11.25.07c0,.14,0,.23.14.27s.3-.08.32-.27c.08.11.27,0,.28-.13a.38.38,0,0,1,.16-.36c.08-.07.17-.07.1,0s-.15.3,0,.34a.25.25,0,0,0,.27-.08.13.13,0,0,0,.25-.08c0-.3.23-.34.28-.34" style="fill:#b73336"/><line x1="130.41" y1="196" x2="115.56" y2="196" style="fill:none;stroke:#b73336;stroke-width:0.30000000447034836px"/><path d="M121.49,196c-.18.09-.23.23-.12.33a.45.45,0,0,0,.53.09c0,.1.11.17.21.2a.31.31,0,0,0,.39-.12.64.64,0,0,1,.68-.34,1.28,1.28,0,0,0,0-.32.64.64,0,0,1-.68-.34.31.31,0,0,0-.39-.12c-.1,0-.22.1-.21.2a.45.45,0,0,0-.53.09C121.26,195.77,121.31,195.91,121.49,196Z" style="fill:#b73336"/><path d="M130.59,196c.3,0,.59-.11.48-.32s-.37,0-.46,0,.14-.14.07-.22-.38,0-.74.12a2.15,2.15,0,0,1-1.44.23c.63-.08,1-.49.81-.69a.59.59,0,0,0-.74,0c.05-.15-.1-.24-.23-.27a.58.58,0,0,0-.6.25,1.49,1.49,0,0,1-.86.64c-.21.08-.28-.06-.1-.11.59-.26.61-.49.58-.63s-.31-.23-.5-.14c.09-.27,0-.45-.27-.53s-.59.15-.62.53c-.17-.22-.53-.1-.55.25,0,.52-.16.55-.31.7s-.35.13-.21,0c.32-.29.29-.6.09-.67a.47.47,0,0,0-.54.15.25.25,0,0,0-.48.15c-.06.59-.44.67-.56.66" style="fill:#b73336"/><path d="M130.59,196c.3,0,.59.11.48.32s-.37,0-.46,0,.14.14.07.22-.38,0-.74-.12a2.15,2.15,0,0,0-1.44-.23c.63.08,1,.49.81.69a.59.59,0,0,1-.74,0c.05.15-.1.24-.23.27a.58.58,0,0,1-.6-.25,1.49,1.49,0,0,0-.86-.64c-.21-.08-.28.06-.1.11.59.26.61.49.58.63s-.31.23-.5.14c.09.27,0,.45-.27.53s-.59-.15-.62-.53c-.17.22-.53.1-.55-.25,0-.52-.16-.55-.31-.7s-.35-.13-.21,0c.32.29.29.6.09.67a.47.47,0,0,1-.54-.15.25.25,0,0,1-.48-.15c-.06-.59-.44-.67-.56-.66" style="fill:#b73336"/><path d="M117.88,196c-.16,0-.31-.06-.25-.17s.19,0,.24,0a.08.08,0,0,1,0-.11c0-.06.19,0,.38.06a1.09,1.09,0,0,0,.73.12c-.32,0-.5-.25-.41-.35a.31.31,0,0,1,.38,0c0-.07,0-.12.11-.13a.28.28,0,0,1,.31.13.79.79,0,0,0,.44.32c.11,0,.14,0,0-.05-.3-.14-.31-.25-.29-.33s.16-.11.25-.07a.19.19,0,0,1,.14-.27c.2,0,.3.08.32.27.08-.11.27,0,.27.13s.09.28.17.36.17.07.1,0-.15-.31,0-.35a.25.25,0,0,1,.27.08.13.13,0,0,1,.25.08c0,.3.22.34.28.34" style="fill:#b73336"/><path d="M117.88,196c-.16,0-.31.06-.25.17s.19,0,.24,0a.08.08,0,0,0,0,.11c0,.06.19,0,.38-.06a1.09,1.09,0,0,1,.73-.12c-.32,0-.5.25-.41.35a.31.31,0,0,0,.38,0c0,.07,0,.12.11.13a.28.28,0,0,0,.31-.13.79.79,0,0,1,.44-.32c.11,0,.14,0,0,.05-.3.14-.31.25-.29.33s.16.11.25.07c0,.14,0,.23.14.27s.3-.08.32-.27c.08.11.27,0,.27-.13a.4.4,0,0,1,.17-.36c.08-.07.17-.07.1,0s-.15.3,0,.34a.25.25,0,0,0,.27-.08.13.13,0,0,0,.25-.08c0-.3.22-.34.28-.34" style="fill:#b73336"/><line x1="114.88" y1="196" x2="100.03" y2="196" style="fill:none;stroke:#b73336;stroke-width:0.30000000447034836px"/><path d="M106,196c-.18.09-.23.23-.12.33a.45.45,0,0,0,.53.09c0,.1.11.17.21.2a.31.31,0,0,0,.39-.12.64.64,0,0,1,.68-.34,1.28,1.28,0,0,0,0-.32.64.64,0,0,1-.68-.34.31.31,0,0,0-.39-.12c-.1,0-.22.1-.21.2a.45.45,0,0,0-.53.09C105.73,195.77,105.78,195.91,106,196Z" style="fill:#b73336"/><path d="M115.06,196c.3,0,.59-.11.47-.32s-.36,0-.45,0c.06,0,.14-.14.07-.22s-.38,0-.74.12a2.15,2.15,0,0,1-1.44.23c.63-.08,1-.49.81-.69a.59.59,0,0,0-.74,0c0-.15-.1-.24-.23-.27a.57.57,0,0,0-.6.25,1.49,1.49,0,0,1-.86.64c-.21.08-.28-.06-.1-.11.59-.26.61-.49.58-.63s-.31-.23-.5-.14c.09-.27,0-.45-.27-.53s-.59.15-.62.53c-.17-.22-.53-.1-.55.25,0,.52-.16.55-.31.7s-.35.13-.21,0c.32-.29.29-.6.09-.67a.47.47,0,0,0-.54.15.25.25,0,0,0-.48.15c-.06.59-.45.67-.56.66" style="fill:#b73336"/><path d="M115.06,196c.3,0,.59.11.47.32s-.36,0-.45,0c.06,0,.14.14.07.22s-.38,0-.74-.12a2.15,2.15,0,0,0-1.44-.23c.63.08,1,.49.81.69a.59.59,0,0,1-.74,0c0,.15-.1.24-.23.27a.57.57,0,0,1-.6-.25,1.49,1.49,0,0,0-.86-.64c-.21-.08-.28.06-.1.11.59.26.61.49.58.63s-.31.23-.5.14c.09.27,0,.45-.27.53s-.59-.15-.62-.53c-.17.22-.53.1-.55-.25,0-.52-.16-.55-.31-.7s-.35-.13-.21,0c.32.29.29.6.09.67a.47.47,0,0,1-.54-.15.25.25,0,0,1-.48-.15c-.06-.59-.45-.67-.56-.66" style="fill:#b73336"/><path d="M102.35,196c-.16,0-.31-.06-.25-.17s.19,0,.24,0-.08-.07,0-.11.19,0,.38.06a1.09,1.09,0,0,0,.73.12c-.32,0-.5-.25-.41-.35a.31.31,0,0,1,.38,0c0-.07.05-.12.11-.13a.28.28,0,0,1,.31.13.79.79,0,0,0,.44.32c.11,0,.14,0,.05-.05-.3-.14-.31-.25-.29-.33s.15-.11.25-.07a.18.18,0,0,1,.14-.27c.2,0,.3.08.32.27.08-.11.26,0,.27.13s.09.28.17.36.17.07.1,0-.15-.31,0-.35a.25.25,0,0,1,.27.08.13.13,0,0,1,.25.08c0,.3.22.34.28.34" style="fill:#b73336"/><path d="M102.35,196c-.16,0-.31.06-.25.17s.19,0,.24,0-.08.07,0,.11.19,0,.38-.06a1.09,1.09,0,0,1,.73-.12c-.32,0-.5.25-.41.35a.31.31,0,0,0,.38,0c0,.07.05.12.11.13a.28.28,0,0,0,.31-.13.79.79,0,0,1,.44-.32c.11,0,.14,0,.05.05-.3.14-.31.25-.29.33s.15.11.25.07c0,.14,0,.23.14.27s.3-.08.32-.27c.08.11.26,0,.27-.13a.4.4,0,0,1,.17-.36c.08-.07.17-.07.1,0s-.15.3,0,.34a.25.25,0,0,0,.27-.08.13.13,0,0,0,.25-.08c0-.3.22-.34.28-.34" style="fill:#b73336"/><line x1="99.35" y1="196" x2="84.5" y2="196" style="fill:none;stroke:#b73336;stroke-width:0.30000000447034836px"/><path d="M90.43,196c-.18.09-.23.23-.12.33a.45.45,0,0,0,.53.09c0,.1.11.17.2.2a.31.31,0,0,0,.39-.12.65.65,0,0,1,.69-.34,1.28,1.28,0,0,0,0-.32.65.65,0,0,1-.69-.34.31.31,0,0,0-.39-.12c-.09,0-.22.1-.2.2a.45.45,0,0,0-.53.09C90.2,195.77,90.25,195.91,90.43,196Z" style="fill:#b73336"/><path d="M99.53,196c.3,0,.59-.11.47-.32s-.36,0-.45,0c.06,0,.14-.14.07-.22s-.38,0-.74.12a2.16,2.16,0,0,1-1.44.23c.62-.08,1-.49.81-.69a.59.59,0,0,0-.74,0c0-.15-.1-.24-.23-.27a.57.57,0,0,0-.6.25,1.49,1.49,0,0,1-.86.64c-.21.08-.28-.06-.1-.11.59-.26.61-.49.58-.63s-.31-.23-.5-.14c.09-.27,0-.45-.27-.53s-.59.15-.62.53c-.17-.22-.53-.1-.55.25,0,.52-.16.55-.31.7s-.35.13-.21,0c.32-.29.29-.6.09-.67a.47.47,0,0,0-.54.15.25.25,0,0,0-.48.15c-.06.59-.45.67-.56.66" style="fill:#b73336"/><path d="M99.53,196c.3,0,.59.11.47.32s-.36,0-.45,0c.06,0,.14.14.07.22s-.38,0-.74-.12a2.16,2.16,0,0,0-1.44-.23c.62.08,1,.49.81.69a.59.59,0,0,1-.74,0c0,.15-.1.24-.23.27a.57.57,0,0,1-.6-.25,1.49,1.49,0,0,0-.86-.64c-.21-.08-.28.06-.1.11.59.26.61.49.58.63s-.31.23-.5.14c.09.27,0,.45-.27.53s-.59-.15-.62-.53c-.17.22-.53.1-.55-.25,0-.52-.16-.55-.31-.7s-.35-.13-.21,0c.32.29.29.6.09.67a.47.47,0,0,1-.54-.15.25.25,0,0,1-.48-.15c-.06-.59-.45-.67-.56-.66" style="fill:#b73336"/><path d="M86.82,196c-.16,0-.31-.06-.25-.17s.19,0,.24,0-.08-.07,0-.11.19,0,.38.06a1.09,1.09,0,0,0,.73.12c-.32,0-.5-.25-.41-.35a.31.31,0,0,1,.38,0c0-.07.05-.12.11-.13a.28.28,0,0,1,.31.13.76.76,0,0,0,.44.32c.11,0,.14,0,.05-.05-.3-.14-.31-.25-.29-.33s.15-.11.25-.07a.18.18,0,0,1,.14-.27c.2,0,.3.08.32.27.08-.11.26,0,.27.13s.09.28.17.36.17.07.1,0-.15-.31,0-.35a.25.25,0,0,1,.27.08.13.13,0,0,1,.25.08c0,.3.22.34.28.34" style="fill:#b73336"/><path d="M86.82,196c-.16,0-.31.06-.25.17s.19,0,.24,0-.08.07,0,.11.19,0,.38-.06a1.09,1.09,0,0,1,.73-.12c-.32,0-.5.25-.41.35a.31.31,0,0,0,.38,0c0,.07.05.12.11.13a.28.28,0,0,0,.31-.13.76.76,0,0,1,.44-.32c.11,0,.14,0,.05.05-.3.14-.31.25-.29.33s.15.11.25.07c0,.14,0,.23.14.27s.3-.08.32-.27c.08.11.26,0,.27-.13a.4.4,0,0,1,.17-.36c.07-.07.17-.07.1,0s-.15.3,0,.34a.25.25,0,0,0,.27-.08.13.13,0,0,0,.25-.08c0-.3.22-.34.28-.34" style="fill:#b73336"/><line x1="83.81" y1="196" x2="68.97" y2="196" style="fill:none;stroke:#b73336;stroke-width:0.30000000447034836px"/><path d="M74.9,196c-.18.09-.23.23-.13.33a.47.47,0,0,0,.54.09c0,.1.11.17.2.2a.31.31,0,0,0,.39-.12.65.65,0,0,1,.69-.34,1.28,1.28,0,0,0,0-.32.65.65,0,0,1-.69-.34.31.31,0,0,0-.39-.12c-.09,0-.22.1-.2.2a.47.47,0,0,0-.54.09C74.67,195.77,74.72,195.91,74.9,196Z" style="fill:#b73336"/><path d="M84,196c.3,0,.59-.11.47-.32s-.36,0-.45,0c.06,0,.14-.14.07-.22s-.38,0-.74.12a2.16,2.16,0,0,1-1.44.23c.62-.08,1-.49.81-.69a.59.59,0,0,0-.74,0c0-.15-.1-.24-.23-.27a.57.57,0,0,0-.6.25,1.52,1.52,0,0,1-.86.64c-.21.08-.28-.06-.1-.11.59-.26.61-.49.58-.63s-.31-.23-.5-.14c.09-.27,0-.45-.27-.53s-.59.15-.62.53c-.17-.22-.53-.1-.55.25,0,.52-.16.55-.32.7s-.34.13-.2,0c.32-.29.29-.6.09-.67a.47.47,0,0,0-.54.15.25.25,0,0,0-.48.15c-.06.59-.45.67-.56.66" style="fill:#b73336"/><path d="M84,196c.3,0,.59.11.47.32s-.36,0-.45,0c.06,0,.14.14.07.22s-.38,0-.74-.12a2.16,2.16,0,0,0-1.44-.23c.62.08,1,.49.81.69a.59.59,0,0,1-.74,0c0,.15-.1.24-.23.27a.57.57,0,0,1-.6-.25,1.52,1.52,0,0,0-.86-.64c-.21-.08-.28.06-.1.11.59.26.61.49.58.63s-.31.23-.5.14c.09.27,0,.45-.27.53s-.59-.15-.62-.53c-.17.22-.53.1-.55-.25,0-.52-.16-.55-.32-.7s-.34-.13-.2,0c.32.29.29.6.09.67a.47.47,0,0,1-.54-.15.25.25,0,0,1-.48-.15c-.06-.59-.45-.67-.56-.66" style="fill:#b73336"/><path d="M71.28,196c-.15,0-.3-.06-.24-.17s.19,0,.23,0-.07-.07,0-.11.19,0,.38.06a1.09,1.09,0,0,0,.73.12c-.32,0-.5-.25-.41-.35a.31.31,0,0,1,.38,0c0-.07.05-.12.11-.13a.28.28,0,0,1,.31.13.76.76,0,0,0,.44.32c.11,0,.14,0,0-.05-.3-.14-.31-.25-.29-.33s.15-.11.25-.07a.18.18,0,0,1,.14-.27c.2,0,.3.08.31.27.09-.11.27,0,.28.13a.41.41,0,0,0,.16.36c.08.07.18.07.11,0s-.15-.31,0-.35a.26.26,0,0,1,.28.08.13.13,0,0,1,.25.08c0,.3.22.34.28.34" style="fill:#b73336"/><path d="M71.28,196c-.15,0-.3.06-.24.17s.19,0,.23,0-.07.07,0,.11.19,0,.38-.06a1.09,1.09,0,0,1,.73-.12c-.32,0-.5.25-.41.35a.31.31,0,0,0,.38,0c0,.07.05.12.11.13a.28.28,0,0,0,.31-.13.76.76,0,0,1,.44-.32c.11,0,.14,0,0,.05-.3.14-.31.25-.29.33s.15.11.25.07c0,.14,0,.23.14.27s.3-.08.31-.27c.09.11.27,0,.28-.13a.43.43,0,0,1,.16-.36c.08-.07.18-.07.11,0s-.15.3,0,.34a.26.26,0,0,0,.28-.08.13.13,0,0,0,.25-.08c0-.3.22-.34.28-.34" style="fill:#b73336"/><line x1="68.28" y1="196" x2="53.44" y2="196" style="fill:none;stroke:#b73336;stroke-width:0.30000000447034836px"/><path d="M59.37,196c-.18.09-.23.23-.13.33a.46.46,0,0,0,.54.09c0,.1.11.17.2.2a.31.31,0,0,0,.39-.12.65.65,0,0,1,.69-.34,1.29,1.29,0,0,0,0-.32.65.65,0,0,1-.69-.34.31.31,0,0,0-.39-.12c-.09,0-.22.1-.2.2a.46.46,0,0,0-.54.09C59.14,195.77,59.19,195.91,59.37,196Z" style="fill:#b73336"/><path d="M68.47,196c.3,0,.59-.11.47-.32s-.36,0-.45,0c.06,0,.14-.14.07-.22s-.38,0-.74.12a2.17,2.17,0,0,1-1.44.23c.62-.08,1-.49.81-.69a.59.59,0,0,0-.74,0c0-.15-.1-.24-.23-.27a.59.59,0,0,0-.61.25,1.48,1.48,0,0,1-.85.64c-.21.08-.28-.06-.1-.11.59-.26.61-.49.57-.63s-.3-.23-.49-.14c.09-.27,0-.45-.27-.53s-.59.15-.62.53c-.17-.22-.53-.1-.55.25,0,.52-.16.55-.32.7s-.34.13-.2,0c.31-.29.29-.6.09-.67a.46.46,0,0,0-.54.15.25.25,0,0,0-.48.15c-.06.59-.45.67-.56.66" style="fill:#b73336"/><path d="M68.47,196c.3,0,.59.11.47.32s-.36,0-.45,0c.06,0,.14.14.07.22s-.38,0-.74-.12a2.17,2.17,0,0,0-1.44-.23c.62.08,1,.49.81.69a.59.59,0,0,1-.74,0c0,.15-.1.24-.23.27a.59.59,0,0,1-.61-.25,1.48,1.48,0,0,0-.85-.64c-.21-.08-.28.06-.1.11.59.26.61.49.57.63s-.3.23-.49.14c.09.27,0,.45-.27.53s-.59-.15-.62-.53c-.17.22-.53.1-.55-.25,0-.52-.16-.55-.32-.7s-.34-.13-.2,0c.31.29.29.6.09.67a.46.46,0,0,1-.54-.15.25.25,0,0,1-.48-.15c-.06-.59-.45-.67-.56-.66" style="fill:#b73336"/><path d="M55.75,196c-.15,0-.3-.06-.24-.17s.19,0,.23,0-.07-.07,0-.11.19,0,.38.06a1.08,1.08,0,0,0,.73.12c-.32,0-.5-.25-.41-.35a.31.31,0,0,1,.38,0c0-.07.05-.12.11-.13a.28.28,0,0,1,.31.13.76.76,0,0,0,.44.32c.1,0,.14,0,.05-.05-.3-.14-.31-.25-.3-.33s.16-.11.26-.07a.18.18,0,0,1,.14-.27c.2,0,.3.08.31.27.09-.11.27,0,.28.13s.08.28.16.36.18.07.11,0-.15-.31,0-.35a.26.26,0,0,1,.28.08.13.13,0,0,1,.25.08c0,.3.22.34.28.34" style="fill:#b73336"/><path d="M55.75,196c-.15,0-.3.06-.24.17s.19,0,.23,0-.07.07,0,.11.19,0,.38-.06a1.08,1.08,0,0,1,.73-.12c-.32,0-.5.25-.41.35a.31.31,0,0,0,.38,0c0,.07.05.12.11.13a.28.28,0,0,0,.31-.13.76.76,0,0,1,.44-.32c.1,0,.14,0,.05.05-.3.14-.31.25-.3.33s.16.11.26.07c0,.14,0,.23.14.27s.3-.08.31-.27c.09.11.27,0,.28-.13s.08-.28.16-.36.18-.07.11,0-.15.3,0,.34a.26.26,0,0,0,.28-.08.13.13,0,0,0,.25-.08c0-.3.22-.34.28-.34" style="fill:#b73336"/><line x1="52.75" y1="196" x2="37.91" y2="196" style="fill:none;stroke:#b73336;stroke-width:0.30000000447034836px"/><path d="M43.84,196c-.18.09-.23.23-.13.33a.46.46,0,0,0,.54.09c0,.1.11.17.2.2a.31.31,0,0,0,.39-.12.64.64,0,0,1,.69-.34,1.29,1.29,0,0,0,0-.32.64.64,0,0,1-.69-.34.31.31,0,0,0-.39-.12c-.09,0-.22.1-.2.2a.46.46,0,0,0-.54.09C43.61,195.77,43.66,195.91,43.84,196Z" style="fill:#b73336"/><path d="M52.94,196c.3,0,.59-.11.47-.32s-.36,0-.45,0,.14-.14.07-.22-.38,0-.75.12a2.13,2.13,0,0,1-1.43.23c.62-.08,1-.49.81-.69a.59.59,0,0,0-.74,0c0-.15-.1-.24-.23-.27a.59.59,0,0,0-.61.25,1.48,1.48,0,0,1-.85.64c-.21.08-.28-.06-.1-.11.59-.26.61-.49.57-.63s-.3-.23-.49-.14c.09-.27,0-.45-.28-.53s-.58.15-.61.53c-.17-.22-.53-.1-.55.25,0,.52-.16.55-.32.7s-.34.13-.2,0c.31-.29.29-.6.09-.67a.46.46,0,0,0-.54.15.26.26,0,0,0-.49.15c-.05.59-.44.67-.55.66" style="fill:#b73336"/><path d="M52.94,196c.3,0,.59.11.47.32s-.36,0-.45,0,.14.14.07.22-.38,0-.75-.12a2.13,2.13,0,0,0-1.43-.23c.62.08,1,.49.81.69a.59.59,0,0,1-.74,0c0,.15-.1.24-.23.27a.59.59,0,0,1-.61-.25,1.48,1.48,0,0,0-.85-.64c-.21-.08-.28.06-.1.11.59.26.61.49.57.63s-.3.23-.49.14c.09.27,0,.45-.28.53s-.58-.15-.61-.53c-.17.22-.53.1-.55-.25,0-.52-.16-.55-.32-.7s-.34-.13-.2,0c.31.29.29.6.09.67a.46.46,0,0,1-.54-.15.26.26,0,0,1-.49-.15c-.05-.59-.44-.67-.55-.66" style="fill:#b73336"/><path d="M40.22,196c-.15,0-.3-.06-.24-.17s.19,0,.23,0-.07-.07,0-.11.19,0,.38.06a1.08,1.08,0,0,0,.73.12c-.32,0-.5-.25-.41-.35a.29.29,0,0,1,.37,0c0-.07,0-.12.12-.13a.28.28,0,0,1,.31.13.76.76,0,0,0,.44.32c.1,0,.14,0,.05-.05-.3-.14-.31-.25-.3-.33s.16-.11.26-.07a.18.18,0,0,1,.14-.27c.2,0,.29.08.31.27.09-.11.27,0,.28.13s.08.28.16.36.18.07.11,0-.15-.31-.05-.35a.26.26,0,0,1,.28.08.13.13,0,0,1,.24.08c0,.3.23.34.29.34" style="fill:#b73336"/><path d="M40.22,196c-.15,0-.3.06-.24.17s.19,0,.23,0-.07.07,0,.11.19,0,.38-.06a1.08,1.08,0,0,1,.73-.12c-.32,0-.5.25-.41.35a.29.29,0,0,0,.37,0c0,.07,0,.12.12.13a.28.28,0,0,0,.31-.13.76.76,0,0,1,.44-.32c.1,0,.14,0,.05.05-.3.14-.31.25-.3.33s.16.11.26.07c-.05.14,0,.23.14.27s.29-.08.31-.27c.09.11.27,0,.28-.13s.08-.28.16-.36.18-.07.11,0-.15.3-.05.34a.26.26,0,0,0,.28-.08.13.13,0,0,0,.24-.08c0-.3.23-.34.29-.34" style="fill:#b73336"/><line x1="37.22" y1="196" x2="22.38" y2="196" style="fill:none;stroke:#b73336;stroke-width:0.30000000447034836px"/><path d="M28.31,196c-.18.09-.23.23-.13.33a.46.46,0,0,0,.54.09c0,.1.11.17.2.2a.31.31,0,0,0,.39-.12.64.64,0,0,1,.68-.34.65.65,0,0,0,0-.32.64.64,0,0,1-.68-.34.31.31,0,0,0-.39-.12c-.09,0-.22.1-.2.2a.46.46,0,0,0-.54.09C28.08,195.77,28.13,195.91,28.31,196Z" style="fill:#b73336"/><path d="M37.41,196c.3,0,.59-.11.47-.32s-.36,0-.45,0c.06,0,.14-.14.07-.22s-.38,0-.75.12a2.13,2.13,0,0,1-1.43.23c.62-.08,1-.49.81-.69a.59.59,0,0,0-.74,0c0-.15-.1-.24-.23-.27a.59.59,0,0,0-.61.25,1.48,1.48,0,0,1-.85.64c-.21.08-.29-.06-.1-.11.59-.26.61-.49.57-.63s-.31-.23-.49-.14c.09-.27,0-.45-.28-.53s-.58.15-.62.53c-.16-.22-.52-.1-.54.25,0,.52-.16.55-.32.7s-.34.13-.2,0c.31-.29.29-.6.08-.67a.45.45,0,0,0-.53.15.26.26,0,0,0-.49.15c-.05.59-.44.67-.55.66" style="fill:#b73336"/><path d="M37.41,196c.3,0,.59.11.47.32s-.36,0-.45,0c.06,0,.14.14.07.22s-.38,0-.75-.12a2.13,2.13,0,0,0-1.43-.23c.62.08,1,.49.81.69a.59.59,0,0,1-.74,0c0,.15-.1.24-.23.27a.59.59,0,0,1-.61-.25,1.48,1.48,0,0,0-.85-.64c-.21-.08-.29.06-.1.11.59.26.61.49.57.63s-.31.23-.49.14c.09.27,0,.45-.28.53s-.58-.15-.62-.53c-.16.22-.52.1-.54-.25,0-.52-.16-.55-.32-.7s-.34-.13-.2,0c.31.29.29.6.08.67a.45.45,0,0,1-.53-.15.26.26,0,0,1-.49-.15c-.05-.59-.44-.67-.55-.66" style="fill:#b73336"/><path d="M24.69,196c-.15,0-.3-.06-.24-.17s.18,0,.23,0-.07-.07,0-.11.19,0,.38.06a1.08,1.08,0,0,0,.73.12c-.32,0-.5-.25-.41-.35a.29.29,0,0,1,.37,0c0-.07.05-.12.12-.13s.18,0,.31.13a.76.76,0,0,0,.44.32c.1,0,.14,0,.05-.05-.3-.14-.31-.25-.3-.33s.16-.11.26-.07a.18.18,0,0,1,.14-.27c.19,0,.29.08.31.27.09-.11.27,0,.28.13s.08.28.16.36.18.07.11,0-.15-.31-.05-.35a.26.26,0,0,1,.28.08.13.13,0,0,1,.24.08c0,.3.23.34.29.34" style="fill:#b73336"/><path d="M24.69,196c-.15,0-.3.06-.24.17s.18,0,.23,0-.07.07,0,.11.19,0,.38-.06a1.08,1.08,0,0,1,.73-.12c-.32,0-.5.25-.41.35a.29.29,0,0,0,.37,0c0,.07.05.12.12.13s.18,0,.31-.13a.76.76,0,0,1,.44-.32c.1,0,.14,0,.05.05-.3.14-.31.25-.3.33s.16.11.26.07c-.05.14,0,.23.14.27s.29-.08.31-.27c.09.11.27,0,.28-.13s.08-.28.16-.36.18-.07.11,0-.15.3-.05.34a.26.26,0,0,0,.28-.08.13.13,0,0,0,.24-.08c0-.3.23-.34.29-.34" style="fill:#b73336"/><line x1="21.69" y1="196" x2="6.85" y2="196" style="fill:none;stroke:#b73336;stroke-width:0.30000000447034836px"/><path d="M12.78,196c-.18.09-.23.23-.13.33a.46.46,0,0,0,.54.09c0,.1.11.17.2.2a.31.31,0,0,0,.39-.12.64.64,0,0,1,.68-.34,1.28,1.28,0,0,0,0-.32.64.64,0,0,1-.68-.34.31.31,0,0,0-.39-.12c-.09,0-.22.1-.2.2a.46.46,0,0,0-.54.09C12.55,195.77,12.6,195.91,12.78,196Z" style="fill:#b73336"/><path d="M21.88,196c.3,0,.59-.11.47-.32s-.36,0-.45,0c.06,0,.13-.14.06-.22s-.37,0-.74.12a2.15,2.15,0,0,1-1.44.23c.63-.08,1-.49.82-.69a.59.59,0,0,0-.74,0c.05-.15-.1-.24-.23-.27A.59.59,0,0,0,19,195a1.48,1.48,0,0,1-.85.64c-.21.08-.29-.06-.1-.11.58-.26.61-.49.57-.63s-.31-.23-.49-.14c.09-.27,0-.45-.28-.53s-.58.15-.62.53c-.16-.22-.52-.1-.54.25,0,.52-.16.55-.32.7s-.34.13-.2,0c.31-.29.29-.6.08-.67a.45.45,0,0,0-.53.15.26.26,0,0,0-.49.15c-.05.59-.44.67-.55.66" style="fill:#b73336"/><path d="M21.88,196c.3,0,.59.11.47.32s-.36,0-.45,0c.06,0,.13.14.06.22s-.37,0-.74-.12a2.15,2.15,0,0,0-1.44-.23c.63.08,1,.49.82.69a.59.59,0,0,1-.74,0c.05.15-.1.24-.23.27A.59.59,0,0,1,19,197a1.48,1.48,0,0,0-.85-.64c-.21-.08-.29.06-.1.11.58.26.61.49.57.63s-.31.23-.49.14c.09.27,0,.45-.28.53s-.58-.15-.62-.53c-.16.22-.52.1-.54-.25,0-.52-.16-.55-.32-.7s-.34-.13-.2,0c.31.29.29.6.08.67a.45.45,0,0,1-.53-.15.26.26,0,0,1-.49-.15c-.05-.59-.44-.67-.55-.66" style="fill:#b73336"/><path d="M9.16,196c-.15,0-.3-.06-.24-.17s.18,0,.23,0-.07-.07,0-.11.19,0,.37.06a1.11,1.11,0,0,0,.74.12c-.32,0-.5-.25-.41-.35a.29.29,0,0,1,.37,0c0-.07.05-.12.12-.13s.18,0,.31.13a.76.76,0,0,0,.44.32c.1,0,.14,0,0-.05-.3-.14-.31-.25-.3-.33s.16-.11.26-.07a.18.18,0,0,1,.14-.27c.19,0,.29.08.31.27.09-.11.27,0,.28.13s.08.28.16.36.18.07.11,0-.15-.31-.05-.35a.26.26,0,0,1,.28.08.13.13,0,0,1,.24.08c0,.3.23.34.29.34" style="fill:#b73336"/><path d="M9.16,196c-.15,0-.3.06-.24.17s.18,0,.23,0-.07.07,0,.11.19,0,.37-.06a1.11,1.11,0,0,1,.74-.12c-.32,0-.5.25-.41.35a.29.29,0,0,0,.37,0c0,.07.05.12.12.13s.18,0,.31-.13a.76.76,0,0,1,.44-.32c.1,0,.14,0,0,.05-.3.14-.31.25-.3.33s.16.11.26.07c-.05.14,0,.23.14.27s.29-.08.31-.27c.09.11.27,0,.28-.13s.08-.28.16-.36.18-.07.11,0-.15.3-.05.34a.26.26,0,0,0,.28-.08.13.13,0,0,0,.24-.08c0-.3.23-.34.29-.34" style="fill:#b73336"/><path d="M83.64,26.91l3.61,3.22c-.19.34-.47.45-1.17.56C85,39.13,82.25,46.76,71.43,50.34l-.22-.28a20,20,0,0,0,8.63-10.6,2.48,2.48,0,0,1-2.47-.64,8.82,8.82,0,0,0-1-3.94,19.28,19.28,0,0,1-4.72,4.77l-.31-.19A38,38,0,0,0,76,23.89l5.44,1.16c-.11.39-.42.64-1.08.67-.31,1.19-.67,2.33-1.06,3.39h2.28Zm-4.61,3a28.55,28.55,0,0,1-1.91,3.92A5.84,5.84,0,0,1,80.89,36a46.35,46.35,0,0,0,1-6.11Zm12.49,2.78c9.89,2.05,6.8,9.57,2.81,6.85a20.89,20.89,0,0,0-2.81-5.8V49.17c0,.34-1.72,1.14-3.27,1.14h-.81V24l5.11.5c0,.39-.25.67-1,.78Z" style="fill:#a01f24"/><path d="M96.24,87.17c1.17.44,1.53.86,1.53,1.52,0,1.72-1.58,2.33-7.72,2.33h-3.6c-3.59,0-4.89-.58-4.89-3.49V82.34A72.36,72.36,0,0,1,74,87.89a1.24,1.24,0,0,1-.78.8l-2.11-4.44c.69-.11,1.8-.33,3.14-.61V74.43H71.43l-.22-.78h3V66.1l4.82.42c0,.38-.25.69-1,.8v6.33h.28l1.41-2.56s1,1.12,1.86,2.14V69.65l4.69.47c0,.36-.3.67-1,.75v4.22l1.66-.75v-8.8l4.67.45c-.06.39-.25.66-1,.78v6l2.14-.94,1.64-1.7,3,3.2c-.22.25-.5.36-1.14.41a39.4,39.4,0,0,1-4.11,10.38L91.89,84a101.44,101.44,0,0,0,.69-11.22l-2,.89V84.56c0,.33-1.58,1.08-3,1.08h-.67V75.2l-1.66.72V86.55c0,.78.39,1,1.64,1h3.49c1.14,0,2.14,0,2.7,0a1.44,1.44,0,0,0,1.08-.45,18.23,18.23,0,0,0,1.66-3.77h.28ZM78,82.78c1.14-.28,2.36-.55,3.55-.86V77.56l-2.3,1L78.73,78l2.83-1.25V74.43H78Z" style="fill:#a01f24"/><path d="M93.38,108s2.45,1.8,4,3c-.09.31-.39.45-.81.45H72l-.22-.78H83.31a1.54,1.54,0,0,1-.28-.19,6.93,6.93,0,0,0-1.14-3.28l.2-.11c5.16.06,5.24,2.58,3.8,3.58h5.33Zm-7.49,7.88a35.88,35.88,0,0,0,.69-4.41l5.14,1.11c-.11.33-.39.58-1,.58a41.06,41.06,0,0,1-3.41,2.72H90.5l1.75-1.94,3.58,2.75a1.82,1.82,0,0,1-1.11.61v12.1c0,2.47-.56,3.83-4.67,4.19a5.52,5.52,0,0,0-.58-2.64,2.87,2.87,0,0,0-1.94-1.14,5.41,5.41,0,0,1-1.17.14h-.61v-1.36H83.11v.84c0,.3-1.55,1.05-3,1.05h-.49v-8.71a13.4,13.4,0,0,1-2,.69v9.74c0,.45-1.63,1.33-3.27,1.33h-.61V114.22L78,115.83h1.58a2.37,2.37,0,0,1-.55-.36,8.61,8.61,0,0,0-1.22-3.77l.22-.14c5.3.52,5.19,3.38,3.61,4.27Zm-8.22,5.64a5.37,5.37,0,0,0,2.53-4.86H77.67Zm5.56,1.41H85.5l1.36-1.44c-1.14-.17-1.27-.78-1.27-2.08v-2.75H83.78c-.25,1.94-1,3.66-3.88,5Zm2.52,4.89v-4.11H83.11v4.11Zm3.53,1.33c0,.08-.28.19-.64.33.64.06,1.3.08,1.61.08s.53-.19.53-.52v-7.72a7.09,7.09,0,0,1-2.14.22H87.31l2.85,2.11a1.47,1.47,0,0,1-.88.47Zm-1-12.49v2.19c0,.28,0,.36.27.36h.92a2.48,2.48,0,0,0,.47,0,4,4,0,0,0,.59-.08h.25v-2.44Z" style="fill:#a01f24"/><path d="M86.17,149.69c-.06.41-.31.66-1,.77.58,10.91,3.28,17,12.69,20l0,.33a4.79,4.79,0,0,0-3.72,4.14c-6.69-3.44-8.55-9.94-9.16-19.1-.53,7.33-2.61,14.43-13.24,19.32l-.28-.36c9.72-7.69,9.36-16.6,9.38-25.59Z" style="fill:#a01f24"/></svg>